SplineFontDB: 3.0
FontName: OdiaOTJagannathaNormal
FullName: Odia_OT_Jagannatha
FamilyName: Odia_OT_Jagannatha
Weight: Book
Copyright: Copyright (c) 2010-14, TechZ Solutions. Odia_OT_Jagannatha Normal.  Odia OpenType Jagannatha font project contributors <http://www.odialanguage.com/Odia_fonts.html>Designed by: Sujata PatelLicensed under the SIL Open Font License 1.1 (see file OFL.
Version: V.2
ItalicAngle: 0
UnderlinePosition: -325
UnderlineWidth: 50
Ascent: 1638
Descent: 410
sfntRevision: 0x00010000
LayerCount: 2
Layer: 0 1 "Back"  1
Layer: 1 1 "Fore"  0
XUID: [1021 281 -1885909511 2521416]
FSType: 4
OS2Version: 1
OS2_WeightWidthSlopeOnly: 0
OS2_UseTypoMetrics: 1
CreationTime: 1394793167
ModificationTime: 1394833240
PfmFamily: 81
TTFWeight: 400
TTFWidth: 5
LineGap: 410
VLineGap: 0
Panose: 0 0 4 0 0 0 0 0 0 0
OS2TypoAscent: 2522
OS2TypoAOffset: 0
OS2TypoDescent: -1288
OS2TypoDOffset: 0
OS2TypoLinegap: 410
OS2WinAscent: 2522
OS2WinAOffset: 0
OS2WinDescent: 1288
OS2WinDOffset: 0
HheadAscent: 2040
HheadAOffset: 0
HheadDescent: -1000
HheadDOffset: 0
OS2SubXSize: 1434
OS2SubYSize: 1331
OS2SubXOff: 0
OS2SubYOff: 293
OS2SupXSize: 1434
OS2SupYSize: 1331
OS2SupXOff: 0
OS2SupYOff: 928
OS2StrikeYSize: 102
OS2StrikeYPos: 530
OS2Vendor: 'TECZ'
OS2CodePages: 00000001.00000000
OS2UnicodeRanges: 00080003.00000000.00000000.00000000
Lookup: 4 0 0 "'akhn' Akhand in Oriya lookup 0"  {"'akhn' Akhand in Oriya lookup 0 subtable"  } ['akhn' ('orya' <'dflt' > ) ]
Lookup: 4 0 0 "'nukt' Nukta Forms in Oriya lookup 1"  {"'nukt' Nukta Forms in Oriya lookup 1 subtable"  } ['nukt' ('orya' <'dflt' > ) ]
Lookup: 4 0 0 "'rphf' Reph Form in Oriya lookup 2"  {"'rphf' Reph Form in Oriya lookup 2 subtable"  } ['rphf' ('orya' <'dflt' > ) ]
Lookup: 6 0 0 "'abvs' Above Base Substitutions in Oriya lookup 3"  {"'abvs' Above Base Substitutions in Oriya lookup 3 subtable"  } ['abvs' ('orya' <'dflt' > ) ]

StartChar: .notdef
Encoding: 65536 -1 0
Width: 1024
GlyphClass: 2
Flags: W
LayerCount: 2
Fore
SplineSet
128 0 m 1,0,-1
 128 2040 l 1,1,-1
 896 2040 l 1,2,-1
 896 0 l 1,3,-1
 128 0 l 1,0,-1
256 128 m 1,4,-1
 768 128 l 1,5,-1
 768 1912 l 1,6,-1
 256 1912 l 1,7,-1
 256 128 l 1,4,-1
EndSplineSet
EndChar

StartChar: exclam
Encoding: 33 33 4
Width: 1186
GlyphClass: 2
Flags: W
LayerCount: 2
Fore
SplineSet
987 1346 m 1,0,-1
 963 399 l 1,1,-1
 834 399 l 1,2,-1
 802 1346 l 1,3,-1
 987 1346 l 1,0,-1
987 20 m 1,4,-1
 814 20 l 1,5,-1
 814 191 l 1,6,-1
 987 191 l 1,7,-1
 987 20 l 1,4,-1
EndSplineSet
EndChar

StartChar: quotedbl
Encoding: 34 34 5
Width: 666
GlyphClass: 2
Flags: W
LayerCount: 2
Fore
SplineSet
558 1455 m 1,0,-1
 528 948 l 1,1,-1
 426 948 l 1,2,-1
 396 1455 l 1,3,-1
 558 1455 l 1,0,-1
268 1455 m 1,4,-1
 239 948 l 1,5,-1
 136 948 l 1,6,-1
 107 1455 l 1,7,-1
 268 1455 l 1,4,-1
EndSplineSet
EndChar

StartChar: numbersign
Encoding: 35 35 6
Width: 1100
GlyphClass: 2
Flags: W
LayerCount: 2
Fore
SplineSet
1042 957 m 1,0,-1
 1027 866 l 1,1,-1
 847 866 l 1,2,-1
 794 525 l 1,3,-1
 976 525 l 1,4,-1
 962 434 l 1,5,-1
 780 434 l 1,6,-1
 714 20 l 1,7,-1
 601 20 l 1,8,-1
 666 434 l 1,9,-1
 362 434 l 1,10,-1
 296 20 l 1,11,-1
 183 20 l 1,12,-1
 249 434 l 1,13,-1
 66 434 l 1,14,-1
 81 525 l 1,15,-1
 257 525 l 1,16,-1
 310 866 l 1,17,-1
 134 866 l 1,18,-1
 150 957 l 1,19,-1
 332 957 l 1,20,-1
 394 1346 l 1,21,-1
 507 1346 l 1,22,-1
 446 963 l 1,23,-1
 750 963 l 1,24,-1
 812 1346 l 1,25,-1
 925 1346 l 1,26,-1
 863 957 l 1,27,-1
 1042 957 l 1,0,-1
736 866 m 1,28,-1
 429 866 l 1,29,-1
 376 525 l 1,30,-1
 681 525 l 1,31,-1
 736 866 l 1,28,-1
EndSplineSet
EndChar

StartChar: dollar
Encoding: 36 36 7
Width: 1100
GlyphClass: 2
Flags: W
LayerCount: 2
Fore
SplineSet
975 395 m 0,0,1
 975 221 975 221 858 119 c 0,2,3
 755 27 755 27 575 8 c 1,4,-1
 575 -161 l 1,5,-1
 491 -161 l 1,6,-1
 491 7 l 1,7,8
 324 12 324 12 138 64 c 1,9,-1
 149 217 l 1,10,11
 302 145 302 145 491 141 c 1,12,-1
 491 654 l 1,13,14
 234 724 234 724 150 873 c 0,15,16
 116 932 116 932 116 1010 c 0,17,18
 116 1172 116 1172 230 1263 c 0,19,20
 329 1343 329 1343 499 1358 c 1,21,-1
 499 1528 l 1,22,-1
 584 1528 l 1,23,-1
 584 1358 l 1,24,25
 741 1360 741 1360 894 1307 c 1,26,-1
 880 1167 l 1,27,28
 785 1212 785 1212 663 1224 c 0,29,30
 626 1227 626 1227 584 1230 c 1,31,-1
 584 787 l 1,32,33
 773 722 773 722 853 658 c 0,34,35
 975 559 975 559 975 395 c 0,0,1
499 808 m 1,36,-1
 499 1225 l 1,37,38
 343 1190 343 1190 295 1111 c 0,39,40
 275 1078 275 1078 275 1030 c 0,41,42
 275 940 275 940 348 885 c 0,43,44
 389 853 389 853 499 808 c 1,36,-1
817 379 m 0,45,46
 817 544 817 544 575 628 c 1,47,-1
 575 143 l 1,48,49
 817 173 817 173 817 379 c 0,45,46
EndSplineSet
EndChar

StartChar: percent
Encoding: 37 37 8
Width: 1665
GlyphClass: 2
Flags: W
LayerCount: 2
Fore
SplineSet
1596 332 m 0,0,1
 1596 176 1596 176 1513 87 c 128,-1,2
 1430 -2 1430 -2 1292 -2 c 0,3,4
 1149 -2 1149 -2 1069 87.5 c 128,-1,5
 989 177 989 177 989 334 c 0,6,7
 989 487 989 487 1064 574 c 0,8,9
 1143 666 1143 666 1294 666 c 0,10,11
 1596 666 1596 666 1596 332 c 0,0,1
1295 1430 m 1,12,-1
 449 -63 l 1,13,-1
 336 -63 l 1,14,-1
 1182 1430 l 1,15,-1
 1295 1430 l 1,12,-1
674 1034 m 0,16,17
 674 879 674 879 592 789.5 c 128,-1,18
 510 700 510 700 373 700 c 0,19,20
 229 700 229 700 148 789 c 128,-1,21
 67 878 67 878 67 1036 c 0,22,23
 67 1190 67 1190 142 1277 c 0,24,25
 221 1369 221 1369 373 1369 c 0,26,27
 674 1369 674 1369 674 1034 c 0,16,17
1482 330 m 0,28,29
 1482 571 1482 571 1296 571 c 0,30,31
 1102 571 1102 571 1102 330 c 0,32,33
 1102 94 1102 94 1292 94 c 256,34,35
 1482 94 1482 94 1482 330 c 0,28,29
561 1032 m 0,36,37
 561 1274 561 1274 375 1274 c 0,38,39
 181 1274 181 1274 181 1030 c 0,40,41
 181 797 181 797 371 797 c 256,42,43
 561 797 561 797 561 1032 c 0,36,37
EndSplineSet
EndChar

StartChar: ampersand
Encoding: 38 38 9
Width: 1425
GlyphClass: 2
Flags: W
LayerCount: 2
Fore
SplineSet
1306 20 m 1,0,-1
 1119 20 l 1,1,-1
 1003 158 l 1,2,3
 867 25 867 25 731 2 c 0,4,5
 684 -6 684 -6 629 -6 c 0,6,7
 432 -6 432 -6 307 103.5 c 128,-1,8
 182 213 182 213 182 381 c 0,9,10
 182 573 182 573 354 682 c 0,11,12
 382 699 382 699 441 725 c 0,13,14
 470 738 470 738 513 756 c 1,15,16
 390 862 390 862 353 997 c 0,17,18
 342 1037 342 1037 342 1073 c 0,19,20
 342 1268 342 1268 539 1337 c 0,21,22
 601 1358 601 1358 676 1358 c 0,23,24
 823 1358 823 1358 911.5 1282.5 c 128,-1,25
 1000 1207 1000 1207 1000 1087 c 0,26,27
 1000 884 1000 884 700 738 c 1,28,-1
 1005 368 l 1,29,30
 1096 535 1096 535 1107 721 c 1,31,-1
 1249 721 l 1,32,33
 1233 445 1233 445 1092 272 c 1,34,-1
 1306 20 l 1,0,-1
858 1079 m 0,35,36
 858 1152 858 1152 802 1198 c 0,37,38
 750 1241 750 1241 676 1241 c 0,39,40
 600 1241 600 1241 546 1192 c 128,-1,41
 492 1143 492 1143 492 1069 c 0,42,43
 492 997 492 997 563 897 c 0,44,45
 588 861 588 861 626 814 c 1,46,47
 753 889 753 889 803 946 c 0,48,49
 858 1009 858 1009 858 1079 c 0,35,36
920 261 m 1,50,-1
 578 671 l 1,51,52
 534 646 534 646 450 589 c 1,53,54
 349 508 349 508 349 383 c 0,55,56
 349 267 349 267 434 190 c 0,57,58
 515 115 515 115 631 115 c 0,59,60
 744 115 744 115 846 194 c 0,61,62
 881 221 881 221 920 261 c 1,50,-1
EndSplineSet
EndChar

StartChar: quotesingle
Encoding: 39 39 10
Width: 375
GlyphClass: 2
Flags: W
LayerCount: 2
Fore
SplineSet
268 1455 m 1,0,-1
 239 948 l 1,1,-1
 136 948 l 1,2,-1
 107 1455 l 1,3,-1
 268 1455 l 1,0,-1
EndSplineSet
EndChar

StartChar: parenleft
Encoding: 40 40 11
Width: 725
GlyphClass: 2
Flags: W
LayerCount: 2
Fore
SplineSet
593 -397 m 1,0,-1
 461 -397 l 1,1,2
 147 92 147 92 147 535 c 0,3,4
 147 822 147 822 283 1133 c 0,5,6
 318 1212 318 1212 351 1274 c 0,7,8
 396 1358 396 1358 456 1455 c 1,9,-1
 585 1455 l 1,10,11
 310 938 310 938 310 535 c 0,12,13
 310 129 310 129 593 -397 c 1,0,-1
EndSplineSet
EndChar

StartChar: parenright
Encoding: 41 41 12
Width: 725
GlyphClass: 2
Flags: W
LayerCount: 2
Fore
SplineSet
578 522 m 0,0,1
 578 235 578 235 442 -75 c 0,2,3
 407 -155 407 -155 374 -216 c 0,4,5
 334 -289 334 -289 269 -397 c 1,6,-1
 140 -397 l 1,7,8
 415 118 415 118 415 522 c 0,9,10
 415 929 415 929 132 1455 c 1,11,-1
 264 1455 l 1,12,13
 578 964 578 964 578 522 c 0,0,1
EndSplineSet
EndChar

StartChar: asterisk
Encoding: 42 42 13
Width: 1100
GlyphClass: 2
Flags: W
LayerCount: 2
Fore
SplineSet
908 1160 m 1,0,-1
 619 1076 l 1,1,-1
 807 839 l 1,2,-1
 722 776 l 1,3,-1
 553 1027 l 1,4,-1
 386 778 l 1,5,-1
 303 838 l 1,6,-1
 484 1076 l 1,7,-1
 193 1160 l 1,8,-1
 224 1258 l 1,9,-1
 508 1153 l 1,10,-1
 498 1455 l 1,11,-1
 602 1455 l 1,12,-1
 589 1153 l 1,13,-1
 876 1258 l 1,14,-1
 908 1160 l 1,0,-1
EndSplineSet
EndChar

StartChar: plus
Encoding: 43 43 14
Width: 1100
GlyphClass: 2
Flags: W
LayerCount: 2
Fore
SplineSet
1002 643 m 1,0,-1
 605 643 l 1,1,-1
 605 260 l 1,2,-1
 495 260 l 1,3,-1
 495 643 l 1,4,-1
 100 643 l 1,5,-1
 100 752 l 1,6,-1
 495 752 l 1,7,-1
 495 1133 l 1,8,-1
 605 1133 l 1,9,-1
 605 752 l 1,10,-1
 1002 752 l 1,11,-1
 1002 643 l 1,0,-1
EndSplineSet
EndChar

StartChar: comma
Encoding: 44 44 15
Width: 547
GlyphClass: 2
Flags: W
LayerCount: 2
Fore
SplineSet
357 199 m 1,0,-1
 201 -243 l 1,1,-1
 69 -243 l 1,2,-1
 181 199 l 1,3,-1
 357 199 l 1,0,-1
EndSplineSet
EndChar

StartChar: hyphen
Encoding: 45 45 16
Width: 514
GlyphClass: 2
Flags: W
LayerCount: 2
Fore
SplineSet
494 448 m 1,0,-1
 20 448 l 1,1,-1
 20 562 l 1,2,-1
 494 562 l 1,3,-1
 494 448 l 1,0,-1
EndSplineSet
EndChar

StartChar: period
Encoding: 46 46 17
Width: 547
GlyphClass: 2
Flags: W
LayerCount: 2
Fore
SplineSet
363 20 m 1,0,-1
 184 20 l 1,1,-1
 184 199 l 1,2,-1
 363 199 l 1,3,-1
 363 20 l 1,0,-1
EndSplineSet
EndChar

StartChar: slash
Encoding: 47 47 18
Width: 891
GlyphClass: 2
Flags: W
LayerCount: 2
Fore
SplineSet
762 1455 m 1,0,-1
 90 -397 l 1,1,-1
 -30 -397 l 1,2,-1
 647 1455 l 1,3,-1
 762 1455 l 1,0,-1
EndSplineSet
EndChar

StartChar: zero
Encoding: 48 48 19
Width: 1100
GlyphClass: 2
Flags: W
LayerCount: 2
Fore
SplineSet
994 670 m 0,0,1
 994 523 994 523 975 420 c 0,2,3
 939 226 939 226 854 130 c 0,4,5
 734 -6 734 -6 549 -6 c 0,6,7
 281 -6 281 -6 176 251 c 0,8,9
 106 422 106 422 106 690 c 0,10,11
 106 835 106 835 123 935 c 0,12,13
 141 1041 141 1041 176 1120 c 0,14,15
 285 1369 285 1369 557 1369 c 0,16,17
 672 1369 672 1369 769 1306.5 c 128,-1,18
 866 1244 866 1244 914 1140 c 0,19,20
 994 966 994 966 994 670 c 0,0,1
835 682 m 0,21,22
 835 945 835 945 765 1093 c 0,23,24
 691 1249 691 1249 557 1249 c 0,25,26
 364 1249 364 1249 302 1011 c 0,27,28
 265 869 265 869 265 684 c 0,29,30
 265 548 265 548 286.5 431 c 128,-1,31
 308 314 308 314 349 240 c 0,32,33
 420 113 420 113 551 113 c 0,34,35
 694 113 694 113 766 264 c 0,36,37
 835 408 835 408 835 682 c 0,21,22
EndSplineSet
EndChar

StartChar: one
Encoding: 49 49 20
Width: 1100
GlyphClass: 2
Flags: W
LayerCount: 2
Fore
SplineSet
709 20 m 1,0,-1
 555 20 l 1,1,-1
 555 1213 l 1,2,-1
 530 1180 l 2,3,4
 523 1170 523 1170 507 1151 c 2,5,-1
 501 1145 l 2,6,7
 483 1126 483 1126 446 1092 c 2,8,-1
 324 987 l 1,9,-1
 241 1085 l 1,10,-1
 554 1346 l 1,11,-1
 709 1346 l 1,12,-1
 709 20 l 1,0,-1
EndSplineSet
EndChar

StartChar: two
Encoding: 50 50 21
Width: 1100
GlyphClass: 2
Flags: W
LayerCount: 2
Fore
SplineSet
959 20 m 1,0,-1
 129 20 l 1,1,-1
 129 198 l 1,2,3
 458 483 458 483 607 670 c 0,4,5
 759 863 759 863 759 1004 c 0,6,7
 759 1167 759 1167 585 1226 c 0,8,9
 532 1243 532 1243 471 1243 c 0,10,11
 330 1243 330 1243 178 1157 c 1,12,-1
 163 1290 l 1,13,14
 314 1349 314 1349 419 1359 c 0,15,16
 458 1362 458 1362 502 1362 c 0,17,18
 694 1362 694 1362 812 1264 c 128,-1,19
 930 1166 930 1166 930 1008 c 0,20,21
 930 885 930 885 854 755 c 0,22,23
 755 588 755 588 500 349 c 0,24,25
 423 277 423 277 326 200 c 0,26,27
 277 162 277 162 217 119 c 1,28,29
 276 130 276 130 395 142 c 0,30,31
 417 142 417 142 444 142 c 2,32,-1
 959 142 l 1,33,-1
 959 20 l 1,0,-1
EndSplineSet
EndChar

StartChar: three
Encoding: 51 51 22
Width: 1100
GlyphClass: 2
Flags: W
LayerCount: 2
Fore
SplineSet
945 365 m 0,0,1
 945 112 945 112 665 29 c 0,2,3
 575 2 575 2 463 2 c 0,4,5
 298 2 298 2 129 52 c 1,6,-1
 135 188 l 1,7,8
 305 121 305 121 451 121 c 0,9,10
 588 121 588 121 681 193.5 c 128,-1,11
 774 266 774 266 774 381 c 0,12,13
 774 566 774 566 560 628 c 0,14,15
 488 649 488 649 354 649 c 2,16,-1
 334 649 l 2,17,18
 325 649 325 649 311 648 c 1,19,-1
 311 773 l 1,20,21
 417 773 417 773 473 781 c 0,22,23
 488 783 488 783 518 789 c 0,24,25
 770 838 770 838 770 1022 c 0,26,27
 770 1176 770 1176 592 1229 c 0,28,29
 538 1245 538 1245 475 1245 c 0,30,31
 330 1245 330 1245 182 1186 c 1,32,-1
 173 1311 l 1,33,34
 323 1364 323 1364 485 1364 c 0,35,36
 685 1364 685 1364 793 1288 c 0,37,38
 928 1193 928 1193 928 1024 c 0,39,40
 928 833 928 833 744 747 c 0,41,42
 686 720 686 720 614 714 c 1,43,-1
 615 711 l 1,44,45
 763 703 763 703 854 604.5 c 128,-1,46
 945 506 945 506 945 365 c 0,0,1
EndSplineSet
EndChar

StartChar: four
Encoding: 52 52 23
Width: 1100
GlyphClass: 2
Flags: W
LayerCount: 2
Fore
SplineSet
1037 319 m 1,0,-1
 857 319 l 1,1,-1
 857 20 l 1,2,-1
 702 20 l 1,3,-1
 702 319 l 1,4,-1
 63 319 l 1,5,-1
 63 455 l 1,6,-1
 632 1388 l 1,7,-1
 857 1346 l 1,8,-1
 857 441 l 1,9,-1
 1037 441 l 1,10,-1
 1037 319 l 1,0,-1
702 441 m 1,11,-1
 702 1004 l 2,12,13
 702 1028 702 1028 702 1075 c 0,14,15
 701 1121 701 1121 701 1145 c 2,16,-1
 701 1232 l 1,17,18
 593 1071 593 1071 420 793 c 0,19,20
 327 644 327 644 202 441 c 1,21,-1
 702 441 l 1,11,-1
EndSplineSet
EndChar

StartChar: five
Encoding: 53 53 24
Width: 1100
GlyphClass: 2
Flags: W
LayerCount: 2
Fore
SplineSet
969 432 m 0,0,1
 969 240 969 240 830.5 123 c 128,-1,2
 692 6 692 6 457 6 c 0,3,4
 326 6 326 6 190 47 c 1,5,-1
 195 183 l 1,6,7
 334 125 334 125 455 125 c 0,8,9
 605 125 605 125 701.5 208 c 128,-1,10
 798 291 798 291 798 422 c 0,11,12
 798 567 798 567 685 648 c 0,13,14
 587 718 587 718 438 718 c 0,15,16
 330 718 330 718 201 679 c 1,17,-1
 210 1346 l 1,18,-1
 926 1346 l 1,19,-1
 926 1224 l 1,20,-1
 351 1224 l 1,21,-1
 347 942 l 2,22,23
 346 898 346 898 338 810 c 1,24,25
 436 838 436 838 514 838 c 0,26,27
 719 838 719 838 844 726 c 128,-1,28
 969 614 969 614 969 432 c 0,0,1
EndSplineSet
EndChar

StartChar: six
Encoding: 54 54 25
Width: 1100
GlyphClass: 2
Flags: W
LayerCount: 2
Fore
SplineSet
992 432 m 0,0,1
 992 239 992 239 874 117.5 c 128,-1,2
 756 -4 756 -4 569 -4 c 0,3,4
 126 -4 126 -4 126 639 c 0,5,6
 126 1369 126 1369 659 1369 c 0,7,8
 782 1369 782 1369 920 1329 c 1,9,-1
 901 1199 l 1,10,11
 785 1249 785 1249 668 1249 c 0,12,13
 461 1249 461 1249 353 1063 c 0,14,15
 321 1007 321 1007 298 916 c 128,-1,16
 275 825 275 825 275 750 c 2,17,-1
 275 672 l 1,18,19
 378 848 378 848 604 848 c 0,20,21
 774 848 774 848 883 732 c 0,22,23
 992 613 992 613 992 432 c 0,0,1
833 422 m 0,24,25
 833 627 833 627 674 705 c 0,26,27
 625 729 625 729 567 729 c 0,28,29
 444 729 444 729 368 640 c 0,30,31
 297 557 297 557 297 434 c 0,32,33
 297 341 297 341 338 263 c 0,34,35
 381 179 381 179 460 140 c 0,36,37
 509 115 509 115 567 115 c 0,38,39
 689 115 689 115 764 211 c 0,40,41
 833 298 833 298 833 422 c 0,24,25
EndSplineSet
EndChar

StartChar: seven
Encoding: 55 55 26
Width: 1100
GlyphClass: 2
Flags: W
LayerCount: 2
Fore
SplineSet
957 1208 m 1,0,-1
 452 20 l 1,1,-1
 278 20 l 1,2,-1
 678 930 l 2,3,4
 755 1106 755 1106 822 1226 c 1,5,6
 789 1226 789 1226 726 1225 c 0,7,8
 705 1224 705 1224 674 1224 c 2,9,-1
 124 1224 l 1,10,-1
 124 1346 l 1,11,-1
 957 1346 l 1,12,-1
 957 1208 l 1,0,-1
EndSplineSet
EndChar

StartChar: eight
Encoding: 56 56 27
Width: 1100
GlyphClass: 2
Flags: W
LayerCount: 2
Fore
SplineSet
1002 365 m 0,0,1
 1002 240 1002 240 932 150.5 c 128,-1,2
 862 61 862 61 742 23 c 0,3,4
 660 -4 660 -4 559 -4 c 0,5,6
 352 -4 352 -4 225 98 c 128,-1,7
 98 200 98 200 98 360 c 0,8,9
 98 544 98 544 287 656 c 0,10,11
 354 695 354 695 450 730 c 1,12,13
 293 763 293 763 208 851 c 0,14,15
 129 932 129 932 129 1047 c 0,16,17
 129 1271 129 1271 374 1346 c 0,18,19
 451 1369 451 1369 549 1369 c 0,20,21
 733 1369 733 1369 845 1281.5 c 128,-1,22
 957 1194 957 1194 957 1055 c 0,23,24
 957 855 957 855 667 731 c 1,25,26
 1002 619 1002 619 1002 365 c 0,0,1
798 1053 m 0,27,28
 798 1191 798 1191 641 1244 c 0,29,30
 594 1259 594 1259 543 1259 c 0,31,32
 374 1259 374 1259 308 1137 c 0,33,34
 287 1099 287 1099 287 1055 c 0,35,36
 287 978 287 978 380 899 c 0,37,38
 457 832 457 832 582 780 c 1,39,40
 624 806 624 806 647 825 c 0,41,42
 649 827 649 827 660 836 c 0,43,44
 759 921 759 921 787 995 c 0,45,46
 798 1024 798 1024 798 1053 c 0,27,28
843 352 m 0,47,48
 843 505 843 505 656 607 c 0,49,50
 606 634 606 634 515 667 c 1,51,52
 269 546 269 546 269 375 c 0,53,54
 269 255 269 255 360 182 c 0,55,56
 444 115 444 115 565 115 c 256,57,58
 686 115 686 115 764.5 181 c 128,-1,59
 843 247 843 247 843 352 c 0,47,48
EndSplineSet
EndChar

StartChar: nine
Encoding: 57 57 28
Width: 1100
GlyphClass: 2
Flags: W
LayerCount: 2
Fore
SplineSet
963 741 m 0,0,1
 963 -2 963 -2 422 -2 c 0,2,3
 323 -2 323 -2 242 18 c 0,4,5
 210 25 210 25 172 37 c 1,6,-1
 190 168 l 1,7,8
 308 117 308 117 422 117 c 0,9,10
 683 117 683 117 780 405 c 0,11,12
 801 465 801 465 812 566 c 0,13,14
 818 618 818 618 823 691 c 1,15,16
 747 589 747 589 662 550 c 0,17,18
 594 518 594 518 492 518 c 0,19,20
 319 518 319 518 209.5 635 c 128,-1,21
 100 752 100 752 100 940 c 0,22,23
 100 1130 100 1130 217.5 1251.5 c 128,-1,24
 335 1373 335 1373 516 1373 c 0,25,26
 762 1373 762 1373 875 1169 c 0,27,28
 963 1010 963 1010 963 741 c 0,0,1
792 932 m 0,29,30
 792 1144 792 1144 633 1228 c 0,31,32
 584 1253 584 1253 528 1253 c 0,33,34
 404 1253 404 1253 329 1159 c 0,35,36
 259 1073 259 1073 259 948 c 0,37,38
 259 814 259 814 334 727 c 0,39,40
 410 637 410 637 526 637 c 0,41,42
 646 637 646 637 721 727 c 0,43,44
 792 811 792 811 792 932 c 0,29,30
EndSplineSet
EndChar

StartChar: colon
Encoding: 58 58 29
Width: 547
GlyphClass: 2
Flags: W
LayerCount: 2
Fore
SplineSet
363 802 m 1,0,-1
 184 802 l 1,1,-1
 184 981 l 1,2,-1
 363 981 l 1,3,-1
 363 802 l 1,0,-1
363 20 m 1,4,-1
 184 20 l 1,5,-1
 184 199 l 1,6,-1
 363 199 l 1,7,-1
 363 20 l 1,4,-1
EndSplineSet
EndChar

StartChar: semicolon
Encoding: 59 59 30
Width: 547
GlyphClass: 2
Flags: W
LayerCount: 2
Fore
SplineSet
345 802 m 1,0,-1
 165 802 l 1,1,-1
 165 981 l 1,2,-1
 345 981 l 1,3,-1
 345 802 l 1,0,-1
355 199 m 1,4,-1
 201 -243 l 1,5,-1
 67 -243 l 1,6,-1
 179 199 l 1,7,-1
 355 199 l 1,4,-1
EndSplineSet
EndChar

StartChar: less
Encoding: 60 60 31
Width: 1024
GlyphClass: 2
Flags: W
LayerCount: 2
Fore
SplineSet
934 218 m 1,0,-1
 88 625 l 1,1,-1
 88 757 l 1,2,-1
 934 1166 l 1,3,-1
 934 1026 l 1,4,-1
 217 692 l 1,5,-1
 934 356 l 1,6,-1
 934 218 l 1,0,-1
EndSplineSet
EndChar

StartChar: equal
Encoding: 61 61 32
Width: 1100
GlyphClass: 2
Flags: W
LayerCount: 2
Fore
SplineSet
1062 796 m 1,0,-1
 100 796 l 1,1,-1
 100 925 l 1,2,-1
 1062 925 l 1,3,-1
 1062 796 l 1,0,-1
1062 379 m 1,4,-1
 100 379 l 1,5,-1
 100 509 l 1,6,-1
 1062 509 l 1,7,-1
 1062 379 l 1,4,-1
EndSplineSet
EndChar

StartChar: greater
Encoding: 62 62 33
Width: 1024
GlyphClass: 2
Flags: W
LayerCount: 2
Fore
SplineSet
936 625 m 1,0,-1
 90 218 l 1,1,-1
 90 356 l 1,2,-1
 807 692 l 1,3,-1
 90 1026 l 1,4,-1
 90 1164 l 1,5,-1
 936 757 l 1,6,-1
 936 625 l 1,0,-1
EndSplineSet
EndChar

StartChar: question
Encoding: 63 63 34
Width: 1602
GlyphClass: 2
Flags: W
LayerCount: 2
Fore
SplineSet
1460 1062 m 0,0,1
 1460 903 1460 903 1365 791 c 1,2,3
 1277 705 1277 705 1188 620 c 1,4,5
 1092 517 1092 517 1090 382 c 1,6,-1
 953 381 l 1,7,8
 951 545 951 545 1046 653 c 1,9,10
 1133 735 1133 735 1221 816 c 1,11,12
 1316 916 1316 916 1316 1062 c 0,13,14
 1316 1192 1316 1192 1245 1276 c 0,15,16
 1163 1374 1163 1374 1010 1374 c 0,17,18
 898 1374 898 1374 828 1302.5 c 128,-1,19
 758 1231 758 1231 758 1119 c 0,20,21
 758 1110 758 1110 759 1102 c 1,22,23
 787 1117 787 1117 819 1117 c 0,24,25
 868 1117 868 1117 898 1087 c 128,-1,26
 928 1057 928 1057 928 1016 c 256,27,28
 928 975 928 975 899 941 c 0,29,30
 867 903 867 903 819 903 c 0,31,32
 730 903 730 903 675 965 c 0,33,34
 616 1029 616 1029 616 1137 c 0,35,36
 616 1281 616 1281 738 1388 c 0,37,38
 855 1491 855 1491 1002 1491 c 0,39,40
 1214 1491 1214 1491 1340 1369 c 0,41,42
 1460 1251 1460 1251 1460 1062 c 0,0,1
1107 0 m 1,43,-1
 939 0 l 1,44,-1
 939 173 l 1,45,-1
 1107 173 l 1,46,-1
 1107 0 l 1,43,-1
EndSplineSet
EndChar

StartChar: at
Encoding: 64 64 35
Width: 1563
GlyphClass: 2
Flags: W
LayerCount: 2
Fore
SplineSet
1444 786 m 0,0,1
 1444 599 1444 599 1346.5 461 c 128,-1,2
 1249 323 1249 323 1126 323 c 0,3,4
 1009 323 1009 323 987 466 c 1,5,6
 870 291 870 291 719 291 c 0,7,8
 522 291 522 291 447 477 c 0,9,10
 422 538 422 538 422 621 c 0,11,12
 422 736 422 736 486.5 835 c 128,-1,13
 551 934 551 934 656 983 c 0,14,15
 722 1014 722 1014 791 1014 c 0,16,17
 967 1014 967 1014 1025 860 c 1,18,-1
 1047 992 l 1,19,-1
 1167 992 l 1,20,-1
 1090 596 l 2,21,22
 1077 529 1077 529 1077 496 c 0,23,24
 1077 392 1077 392 1133 392 c 0,25,26
 1227 392 1227 392 1299 517 c 0,27,28
 1368 636 1368 636 1368 784 c 0,29,30
 1368 1007 1368 1007 1213.5 1150.5 c 128,-1,31
 1059 1294 1059 1294 821 1294 c 0,32,33
 561 1294 561 1294 384 1114 c 128,-1,34
 207 934 207 934 207 676 c 0,35,36
 207 419 207 419 375 244 c 0,37,38
 540 72 540 72 823 72 c 0,39,40
 1044 72 1044 72 1230 151 c 1,41,-1
 1252 71 l 1,42,43
 1062 -6 1062 -6 829 -6 c 0,44,45
 514 -6 514 -6 321 182 c 0,46,47
 176 323 176 323 132 539 c 0,48,49
 118 607 118 607 118 678 c 0,50,51
 118 971 118 971 320.5 1172 c 128,-1,52
 523 1373 523 1373 815 1373 c 0,53,54
 1087 1373 1087 1373 1265.5 1206 c 128,-1,55
 1444 1039 1444 1039 1444 786 c 0,0,1
987 711 m 0,56,57
 987 803 987 803 937 859 c 128,-1,58
 887 915 887 915 805 915 c 0,59,60
 704 915 704 915 632 826.5 c 128,-1,61
 560 738 560 738 560 623 c 0,62,63
 560 474 560 474 674 421 c 0,64,65
 709 404 709 404 752 404 c 0,66,67
 851 404 851 404 919 496 c 128,-1,68
 987 588 987 588 987 711 c 0,56,57
EndSplineSet
EndChar

StartChar: A
Encoding: 65 65 36
Width: 1399
GlyphClass: 2
Flags: W
LayerCount: 2
Fore
SplineSet
1358 20 m 1,0,-1
 1183 20 l 1,1,-1
 1039 366 l 1,2,-1
 349 366 l 1,3,-1
 208 20 l 1,4,-1
 41 20 l 1,5,-1
 605 1346 l 1,6,-1
 784 1346 l 1,7,-1
 1358 20 l 1,0,-1
988 492 m 1,8,-1
 819 901 l 2,9,10
 755 1056 755 1056 694 1232 c 1,11,12
 673 1183 673 1183 611 1031 c 0,13,14
 594 988 594 988 557 896 c 2,15,-1
 394 492 l 1,16,-1
 988 492 l 1,8,-1
EndSplineSet
EndChar

StartChar: B
Encoding: 66 66 37
Width: 1186
GlyphClass: 2
Flags: W
LayerCount: 2
Fore
SplineSet
1053 367 m 0,0,1
 1053 256 1053 256 990 170.5 c 128,-1,2
 927 85 927 85 822 49 c 0,3,4
 762 29 762 29 672 23 c 0,5,6
 625 20 625 20 565 20 c 2,7,-1
 196 20 l 1,8,-1
 196 1346 l 1,9,-1
 500 1346 l 2,10,11
 655 1346 655 1346 723 1334.5 c 128,-1,12
 791 1323 791 1323 850 1289 c 0,13,14
 1012 1195 1012 1195 1012 1016 c 0,15,16
 1012 861 1012 861 896 778 c 0,17,18
 796 706 796 706 730 690 c 1,19,20
 821 686 821 686 927 614 c 0,21,22
 1053 529 1053 529 1053 367 c 0,0,1
858 991 m 0,23,24
 858 1148 858 1148 692 1201 c 0,25,26
 633 1220 633 1220 471 1220 c 2,27,-1
 351 1220 l 1,28,-1
 351 764 l 1,29,-1
 510 764 l 2,30,31
 657 764 657 764 716 788 c 0,32,33
 858 845 858 845 858 991 c 0,23,24
892 385 m 0,34,35
 892 562 892 562 707 623 c 0,36,37
 640 645 640 645 473 645 c 2,38,-1
 351 645 l 1,39,-1
 351 146 l 1,40,-1
 522 146 l 2,41,42
 614 146 614 146 664 153 c 0,43,44
 709 158 709 158 758 181 c 0,45,46
 892 243 892 243 892 385 c 0,34,35
EndSplineSet
EndChar

StartChar: C
Encoding: 67 67 38
Width: 1190
GlyphClass: 2
Flags: W
LayerCount: 2
Fore
SplineSet
1120 51 m 1,0,1
 1009 17 1009 17 916 12 c 0,2,3
 880 10 880 10 838 10 c 0,4,5
 546 10 546 10 366 149 c 0,6,7
 118 340 118 340 118 690 c 0,8,9
 118 985 118 985 311.5 1170.5 c 128,-1,10
 505 1356 505 1356 815 1356 c 0,11,12
 986 1356 986 1356 1105 1302 c 1,13,-1
 1093 1163 l 1,14,15
 963 1230 963 1230 825 1230 c 0,16,17
 589 1230 589 1230 438 1080.5 c 128,-1,18
 287 931 287 931 287 694 c 256,19,20
 287 457 287 457 442 300.5 c 128,-1,21
 597 144 597 144 834 144 c 0,22,23
 967 144 967 144 1109 197 c 1,24,-1
 1120 51 l 1,0,1
EndSplineSet
EndChar

StartChar: D
Encoding: 68 68 39
Width: 1411
GlyphClass: 2
Flags: W
LayerCount: 2
Fore
SplineSet
1295 678 m 0,0,1
 1295 460 1295 460 1175 296 c 0,2,3
 1034 102 1034 102 777 45 c 0,4,5
 701 27 701 27 600 23 c 0,6,7
 549 20 549 20 489 20 c 2,8,-1
 196 20 l 1,9,-1
 196 1346 l 1,10,-1
 459 1346 l 2,11,12
 599 1346 599 1346 673 1339 c 0,13,14
 755 1331 755 1331 818 1314 c 0,15,16
 1035 1255 1035 1255 1166 1077 c 0,17,18
 1295 903 1295 903 1295 678 c 0,0,1
1126 684 m 0,19,20
 1126 950 1126 950 927 1109 c 0,21,22
 820 1193 820 1193 660 1212 c 0,23,24
 586 1220 586 1220 475 1220 c 2,25,-1
 351 1220 l 1,26,-1
 351 146 l 1,27,-1
 473 146 l 2,28,29
 607 146 607 146 682 157 c 0,30,31
 843 181 843 181 952 276 c 0,32,33
 1126 426 1126 426 1126 684 c 0,19,20
EndSplineSet
EndChar

StartChar: E
Encoding: 69 69 40
Width: 1079
GlyphClass: 2
Flags: W
LayerCount: 2
Fore
SplineSet
932 20 m 1,0,-1
 196 20 l 1,1,-1
 196 1346 l 1,2,-1
 916 1346 l 1,3,-1
 916 1220 l 1,4,-1
 351 1220 l 1,5,-1
 351 777 l 1,6,-1
 875 777 l 1,7,-1
 875 651 l 1,8,-1
 351 651 l 1,9,-1
 351 146 l 1,10,-1
 932 146 l 1,11,-1
 932 20 l 1,0,-1
EndSplineSet
EndChar

StartChar: F
Encoding: 70 70 41
Width: 987
GlyphClass: 2
Flags: W
LayerCount: 2
Fore
SplineSet
881 1220 m 1,0,-1
 351 1220 l 1,1,-1
 351 771 l 1,2,-1
 861 771 l 1,3,-1
 861 645 l 1,4,-1
 351 645 l 1,5,-1
 351 20 l 1,6,-1
 196 20 l 1,7,-1
 196 1346 l 1,8,-1
 881 1346 l 1,9,-1
 881 1220 l 1,0,-1
EndSplineSet
EndChar

StartChar: G
Encoding: 71 71 42
Width: 1407
GlyphClass: 2
Flags: W
LayerCount: 2
Fore
SplineSet
1223 68 m 1,0,1
 1047 10 1047 10 850 10 c 0,2,3
 513 10 513 10 315.5 194 c 128,-1,4
 118 378 118 378 118 694 c 0,5,6
 118 996 118 996 315 1176 c 128,-1,7
 512 1356 512 1356 844 1356 c 0,8,9
 1037 1356 1037 1356 1197 1295 c 1,10,-1
 1187 1154 l 1,11,12
 1037 1230 1037 1230 856 1230 c 0,13,14
 606 1230 606 1230 446.5 1080 c 128,-1,15
 287 930 287 930 287 692 c 0,16,17
 287 443 287 443 446 289.5 c 128,-1,18
 605 136 605 136 864 136 c 0,19,20
 938 136 938 136 1007 154 c 0,21,22
 1034 161 1034 161 1069 172 c 1,23,-1
 1069 602 l 1,24,-1
 776 602 l 1,25,-1
 776 728 l 1,26,-1
 1223 728 l 1,27,-1
 1223 68 l 1,0,1
EndSplineSet
EndChar

StartChar: H
Encoding: 72 72 43
Width: 1403
GlyphClass: 2
Flags: W
LayerCount: 2
Fore
SplineSet
1207 20 m 1,0,-1
 1052 20 l 1,1,-1
 1052 647 l 1,2,-1
 351 647 l 1,3,-1
 351 20 l 1,4,-1
 196 20 l 1,5,-1
 196 1346 l 1,6,-1
 351 1346 l 1,7,-1
 351 773 l 1,8,-1
 1052 773 l 1,9,-1
 1052 1346 l 1,10,-1
 1207 1346 l 1,11,-1
 1207 20 l 1,0,-1
EndSplineSet
EndChar

StartChar: I
Encoding: 73 73 44
Width: 573
GlyphClass: 2
Flags: W
LayerCount: 2
Fore
SplineSet
365 20 m 1,0,-1
 210 20 l 1,1,-1
 210 1346 l 1,2,-1
 365 1346 l 1,3,-1
 365 20 l 1,0,-1
EndSplineSet
EndChar

StartChar: J
Encoding: 74 74 45
Width: 754
GlyphClass: 2
Flags: W
LayerCount: 2
Fore
SplineSet
560 436 m 2,0,1
 560 297 560 297 553 248 c 0,2,3
 547 205 547 205 519 155 c 0,4,5
 433 2 433 2 211 2 c 0,6,7
 163 2 163 2 110 12 c 0,8,9
 89 16 89 16 59 22 c 1,10,-1
 59 147 l 1,11,12
 117 127 117 127 182 127 c 0,13,14
 332 127 332 127 383 261 c 0,15,16
 402 310 402 310 404 396 c 0,17,18
 405 431 405 431 405 485 c 2,19,-1
 405 1346 l 1,20,-1
 560 1346 l 1,21,-1
 560 436 l 2,0,1
EndSplineSet
EndChar

StartChar: K
Encoding: 75 75 46
Width: 1290
GlyphClass: 2
Flags: W
LayerCount: 2
Fore
SplineSet
1227 20 m 1,0,-1
 1000 20 l 1,1,-1
 508 544 l 1,2,-1
 353 678 l 1,3,-1
 351 537 l 1,4,-1
 351 20 l 1,5,-1
 196 20 l 1,6,-1
 196 1346 l 1,7,-1
 351 1346 l 1,8,-1
 351 717 l 1,9,-1
 494 857 l 1,10,-1
 965 1346 l 1,11,-1
 1171 1346 l 1,12,-1
 547 719 l 1,13,-1
 1227 20 l 1,0,-1
EndSplineSet
EndChar

StartChar: L
Encoding: 76 76 47
Width: 983
GlyphClass: 2
Flags: W
LayerCount: 2
Fore
SplineSet
928 20 m 1,0,-1
 196 20 l 1,1,-1
 196 1346 l 1,2,-1
 351 1346 l 1,3,-1
 351 146 l 1,4,-1
 928 146 l 1,5,-1
 928 20 l 1,0,-1
EndSplineSet
EndChar

StartChar: M
Encoding: 77 77 48
Width: 1853
GlyphClass: 2
Flags: W
LayerCount: 2
Fore
SplineSet
1657 20 m 1,0,-1
 1503 20 l 1,1,-1
 1503 837 l 2,2,3
 1503 869 1503 869 1504 907 c 2,4,-1
 1505 984 l 2,5,6
 1505 1010 1505 1010 1506 1061 c 2,7,-1
 1509 1247 l 1,8,-1
 1479 1245 l 1,9,-1
 1319 836 l 2,10,11
 1301 791 1301 791 1294 771 c 0,12,13
 1284 744 1284 744 1273 716 c 2,14,-1
 1255 671 l 1,15,-1
 1004 20 l 1,16,-1
 843 20 l 1,17,-1
 350 1256 l 1,18,-1
 350 993 l 2,19,20
 350 966 350 966 351 913 c 0,21,22
 351 861 351 861 351 834 c 2,23,-1
 351 20 l 1,24,-1
 196 20 l 1,25,-1
 196 1346 l 1,26,-1
 484 1346 l 1,27,-1
 827 470 l 2,28,29
 852 404 852 404 895 271 c 0,30,31
 906 228 906 228 925 136 c 1,32,33
 961 267 961 267 1001 383 c 0,34,35
 1022 444 1022 444 1049 514 c 2,36,-1
 1110 677 l 1,37,-1
 1365 1346 l 1,38,-1
 1657 1346 l 1,39,-1
 1657 20 l 1,0,-1
EndSplineSet
EndChar

StartChar: N
Encoding: 78 78 49
Width: 1444
GlyphClass: 2
Flags: W
LayerCount: 2
Fore
SplineSet
1248 20 m 1,0,1
 1218 21 1218 21 1192 21 c 0,2,3
 1157 20 1157 20 1087 20 c 0,4,5
 1060 19 1060 19 1027 20 c 1,6,-1
 347 1212 l 1,7,8
 348 1128 348 1128 349 917 c 2,9,-1
 351 20 l 1,10,-1
 196 20 l 1,11,-1
 196 1346 l 1,12,-1
 407 1347 l 1,13,-1
 1093 127 l 1,14,-1
 1093 1346 l 1,15,-1
 1248 1346 l 1,16,-1
 1248 20 l 1,0,1
EndSplineSet
EndChar

StartChar: O
Encoding: 79 79 50
Width: 1518
GlyphClass: 2
Flags: W
LayerCount: 2
Fore
SplineSet
1399 682 m 0,0,1
 1399 384 1399 384 1240 191 c 0,2,3
 1077 -6 1077 -6 762 -6 c 0,4,5
 385 -6 385 -6 222 281 c 0,6,7
 118 463 118 463 118 680 c 0,8,9
 118 1005 118 1005 305 1203 c 0,10,11
 466 1373 466 1373 768 1373 c 0,12,13
 1056 1373 1056 1373 1227.5 1186 c 128,-1,14
 1399 999 1399 999 1399 682 c 0,0,1
1230 678 m 0,15,16
 1230 933 1230 933 1101 1096 c 128,-1,17
 972 1259 972 1259 766 1259 c 0,18,19
 548 1259 548 1259 417.5 1101.5 c 128,-1,20
 287 944 287 944 287 684 c 0,21,22
 287 433 287 433 418 270 c 128,-1,23
 549 107 549 107 760 107 c 0,24,25
 919 107 919 107 1036 204 c 0,26,27
 1146 294 1146 294 1196 449 c 0,28,29
 1230 554 1230 554 1230 678 c 0,15,16
EndSplineSet
EndChar

StartChar: P
Encoding: 80 80 51
Width: 1087
GlyphClass: 2
Flags: W
LayerCount: 2
Fore
SplineSet
1022 958 m 0,0,1
 1022 698 1022 698 791 606 c 0,2,3
 693 567 693 567 481 567 c 2,4,-1
 353 567 l 1,5,-1
 353 20 l 1,6,-1
 198 20 l 1,7,-1
 198 1346 l 1,8,-1
 449 1346 l 2,9,10
 596 1346 596 1346 661 1339 c 0,11,12
 800 1322 800 1322 886 1257 c 0,13,14
 1022 1151 1022 1151 1022 958 c 0,0,1
854 958 m 0,15,16
 854 1147 854 1147 663 1201 c 0,17,18
 635 1209 635 1209 574.5 1214.5 c 128,-1,19
 514 1220 514 1220 455 1220 c 2,20,-1
 353 1220 l 1,21,-1
 353 693 l 1,22,-1
 479 693 l 2,23,24
 657 693 657 693 729 734 c 0,25,26
 854 805 854 805 854 958 c 0,15,16
EndSplineSet
EndChar

StartChar: Q
Encoding: 81 81 52
Width: 1518
GlyphClass: 2
Flags: W
LayerCount: 2
Fore
SplineSet
1399 678 m 0,0,1
 1399 215 1399 215 1021 36 c 1,2,-1
 1332 -243 l 1,3,-1
 1136 -243 l 1,4,-1
 876 0 l 1,5,6
 839 -3 839 -3 809 -5 c 2,7,-1
 785 -6 l 2,8,9
 774 -6 774 -6 764 -6 c 0,10,11
 471 -6 471 -6 294.5 180.5 c 128,-1,12
 118 367 118 367 118 682 c 0,13,14
 118 999 118 999 293 1186 c 128,-1,15
 468 1373 468 1373 760 1373 c 0,16,17
 1079 1373 1079 1373 1248 1161 c 0,18,19
 1399 972 1399 972 1399 678 c 0,0,1
1230 678 m 0,20,21
 1230 933 1230 933 1101 1096 c 128,-1,22
 972 1259 972 1259 766 1259 c 0,23,24
 548 1259 548 1259 417.5 1102 c 128,-1,25
 287 945 287 945 287 690 c 0,26,27
 287 434 287 434 417 272 c 0,28,29
 549 107 549 107 758 107 c 0,30,31
 918 107 918 107 1035 203 c 0,32,33
 1146 293 1146 293 1196 448 c 0,34,35
 1230 553 1230 553 1230 678 c 0,20,21
EndSplineSet
EndChar

StartChar: R
Encoding: 82 82 53
Width: 1194
GlyphClass: 2
Flags: W
LayerCount: 2
Fore
SplineSet
1120 20 m 1,0,-1
 939 20 l 1,1,-1
 768 418 l 2,2,3
 711 550 711 550 658.5 589 c 128,-1,4
 606 628 606 628 483 628 c 2,5,-1
 351 628 l 1,6,-1
 351 20 l 1,7,-1
 196 20 l 1,8,-1
 196 1346 l 1,9,-1
 506 1346 l 2,10,11
 624 1346 624 1346 687 1340 c 0,12,13
 815 1326 815 1326 895 1266 c 0,14,15
 1020 1171 1020 1171 1020 1006 c 0,16,17
 1020 857 1020 857 915 771 c 0,18,19
 870 734 870 734 776 711 c 0,20,21
 738 702 738 702 681 692 c 1,22,23
 820 632 820 632 866 558 c 0,24,25
 880 534 880 534 901 489 c 2,26,-1
 1120 20 l 1,0,-1
860 989 m 0,27,28
 860 1144 860 1144 715 1196 c 0,29,30
 648 1220 648 1220 512 1220 c 2,31,-1
 351 1220 l 1,32,-1
 351 756 l 1,33,-1
 492 756 l 2,34,35
 744 756 744 756 821 862 c 0,36,37
 860 916 860 916 860 989 c 0,27,28
EndSplineSet
EndChar

StartChar: S
Encoding: 83 83 54
Width: 971
GlyphClass: 2
Flags: W
LayerCount: 2
Fore
SplineSet
869 385 m 0,0,1
 869 210 869 210 747.5 102 c 128,-1,2
 626 -6 626 -6 424 -6 c 0,3,4
 268 -6 268 -6 132 42 c 1,5,-1
 148 181 l 1,6,7
 288 119 288 119 399 119 c 0,8,9
 534 119 534 119 617 187.5 c 128,-1,10
 700 256 700 256 700 371 c 0,11,12
 700 524 700 524 477 628 c 2,13,-1
 402 663 l 2,14,15
 242 738 242 738 175 819 c 128,-1,16
 108 900 108 900 108 1020 c 0,17,18
 108 1179 108 1179 220 1276 c 128,-1,19
 332 1373 332 1373 518 1373 c 0,20,21
 654 1373 654 1373 795 1330 c 1,22,-1
 776 1199 l 1,23,24
 640 1247 640 1247 537 1247 c 0,25,26
 422 1247 422 1247 346.5 1190.5 c 128,-1,27
 271 1134 271 1134 271 1038 c 0,28,29
 271 927 271 927 396 847 c 0,30,31
 437 820 437 820 503 787 c 2,32,-1
 577 750 l 2,33,34
 745 666 745 666 807 587 c 128,-1,35
 869 508 869 508 869 385 c 0,0,1
EndSplineSet
EndChar

StartChar: T
Encoding: 84 84 55
Width: 1083
GlyphClass: 2
Flags: W
LayerCount: 2
Fore
SplineSet
1051 1220 m 1,0,-1
 623 1220 l 1,1,-1
 623 20 l 1,2,-1
 469 20 l 1,3,-1
 469 1220 l 1,4,-1
 32 1220 l 1,5,-1
 32 1346 l 1,6,-1
 1051 1346 l 1,7,-1
 1051 1220 l 1,0,-1
EndSplineSet
EndChar

StartChar: U
Encoding: 85 85 56
Width: 1409
GlyphClass: 2
Flags: W
LayerCount: 2
Fore
SplineSet
1213 596 m 2,0,1
 1213 440 1213 440 1195.5 356 c 128,-1,2
 1178 272 1178 272 1134 203 c 0,3,4
 1001 -6 1001 -6 707 -6 c 0,5,6
 365 -6 365 -6 248 262 c 0,7,8
 196 381 196 381 196 623 c 2,9,-1
 196 1346 l 1,10,-1
 351 1346 l 1,11,-1
 351 651 l 2,12,13
 351 511 351 511 361.5 433.5 c 128,-1,14
 372 356 372 356 402 296 c 0,15,16
 492 119 492 119 713 119 c 0,17,18
 952 119 952 119 1029 339 c 0,19,20
 1048 393 1048 393 1053 453 c 0,21,22
 1058 508 1058 508 1058 641 c 2,23,-1
 1058 1346 l 1,24,-1
 1213 1346 l 1,25,-1
 1213 596 l 2,0,1
EndSplineSet
EndChar

StartChar: V
Encoding: 86 86 57
Width: 1296
GlyphClass: 2
Flags: W
LayerCount: 2
Fore
SplineSet
1257 1346 m 1,0,-1
 756 20 l 1,1,-1
 546 20 l 1,2,-1
 39 1346 l 1,3,-1
 211 1346 l 1,4,-1
 548 437 l 2,5,6
 552 425 552 425 556 416 c 2,7,-1
 593 310 l 2,8,9
 626 217 626 217 657 121 c 1,10,-1
 729 351 l 2,11,12
 747 406 747 406 766 458 c 2,13,-1
 1095 1346 l 1,14,-1
 1257 1346 l 1,0,-1
EndSplineSet
EndChar

StartChar: W
Encoding: 87 87 58
Width: 1954
GlyphClass: 2
Flags: W
LayerCount: 2
Fore
SplineSet
1919 1346 m 1,0,-1
 1521 20 l 1,1,-1
 1304 20 l 1,2,-1
 1070 902 l 2,3,4
 1026 1069 1026 1069 999 1196 c 2,5,-1
 975 1305 l 1,6,-1
 925 1067 l 2,7,8
 913 1012 913 1012 888 902 c 2,9,-1
 666 20 l 1,10,-1
 445 20 l 1,11,-1
 37 1346 l 1,12,-1
 208 1346 l 1,13,-1
 440 562 l 2,14,15
 503 348 503 348 532 219 c 0,16,17
 544 161 544 161 558 87 c 1,18,19
 584 270 584 270 630 449 c 0,20,21
 632 457 632 457 660 569 c 2,22,-1
 853 1346 l 1,23,-1
 1103 1346 l 1,24,-1
 1366 340 l 2,25,26
 1394 233 1394 233 1426 118 c 1,27,28
 1454 293 1454 293 1498 449 c 0,29,30
 1498 450 1498 450 1531 562 c 2,31,-1
 1760 1346 l 1,32,-1
 1919 1346 l 1,0,-1
EndSplineSet
EndChar

StartChar: X
Encoding: 88 88 59
Width: 1300
GlyphClass: 2
Flags: W
LayerCount: 2
Fore
SplineSet
1249 20 m 1,0,-1
 1051 20 l 1,1,-1
 635 619 l 1,2,-1
 235 20 l 1,3,-1
 51 20 l 1,4,-1
 541 717 l 1,5,-1
 90 1346 l 1,6,-1
 276 1346 l 1,7,-1
 649 815 l 1,8,-1
 1020 1346 l 1,9,-1
 1196 1346 l 1,10,-1
 752 717 l 1,11,-1
 1249 20 l 1,0,-1
EndSplineSet
EndChar

StartChar: Y
Encoding: 89 89 60
Width: 1288
GlyphClass: 2
Flags: W
LayerCount: 2
Fore
SplineSet
1240 1346 m 1,0,-1
 725 586 l 1,1,-1
 725 20 l 1,2,-1
 571 20 l 1,3,-1
 571 580 l 1,4,-1
 48 1346 l 1,5,-1
 241 1346 l 1,6,-1
 573 843 l 2,7,8
 627 761 627 761 649 712 c 1,9,10
 674 769 674 769 701 807 c 0,11,12
 705 813 705 813 721 837 c 2,13,-1
 1057 1346 l 1,14,-1
 1240 1346 l 1,0,-1
EndSplineSet
EndChar

StartChar: Z
Encoding: 90 90 61
Width: 1094
GlyphClass: 2
Flags: W
LayerCount: 2
Fore
SplineSet
994 20 m 1,0,-1
 81 20 l 1,1,-1
 81 160 l 1,2,-1
 633 959 l 2,3,4
 699 1055 699 1055 731 1097 c 0,5,6
 787 1172 787 1172 839 1226 c 1,7,8
 671 1220 671 1220 655 1220 c 2,9,-1
 106 1220 l 1,10,-1
 106 1346 l 1,11,-1
 981 1346 l 1,12,-1
 981 1192 l 1,13,-1
 399 355 l 2,14,15
 346 283 346 283 245 135 c 1,16,17
 339 146 339 146 388 146 c 2,18,-1
 994 146 l 1,19,-1
 994 20 l 1,0,-1
EndSplineSet
EndChar

StartChar: bracketleft
Encoding: 91 91 62
Width: 727
GlyphClass: 2
Flags: W
LayerCount: 2
Fore
SplineSet
555 -397 m 1,0,-1
 215 -397 l 1,1,-1
 215 1455 l 1,2,-1
 555 1455 l 1,3,-1
 555 1361 l 1,4,-1
 351 1361 l 1,5,-1
 351 -306 l 1,6,-1
 555 -306 l 1,7,-1
 555 -397 l 1,0,-1
EndSplineSet
EndChar

StartChar: backslash
Encoding: 92 92 63
Width: 891
GlyphClass: 2
Flags: W
LayerCount: 2
Fore
SplineSet
922 -397 m 1,0,-1
 800 -397 l 1,1,-1
 129 1455 l 1,2,-1
 244 1455 l 1,3,-1
 922 -397 l 1,0,-1
EndSplineSet
EndChar

StartChar: bracketright
Encoding: 93 93 64
Width: 727
GlyphClass: 2
Flags: W
LayerCount: 2
Fore
SplineSet
512 -397 m 1,0,-1
 172 -397 l 1,1,-1
 172 -304 l 1,2,-1
 376 -304 l 1,3,-1
 376 1363 l 1,4,-1
 172 1363 l 1,5,-1
 172 1455 l 1,6,-1
 512 1455 l 1,7,-1
 512 -397 l 1,0,-1
EndSplineSet
EndChar

StartChar: asciicircum
Encoding: 94 94 65
Width: 1024
GlyphClass: 2
Flags: W
LayerCount: 2
Fore
SplineSet
951 749 m 1,0,-1
 800 749 l 1,1,-1
 512 1266 l 1,2,-1
 224 749 l 1,3,-1
 73 749 l 1,4,-1
 403 1350 l 1,5,-1
 621 1350 l 1,6,-1
 951 749 l 1,0,-1
EndSplineSet
EndChar

StartChar: underscore
Encoding: 95 95 66
Width: 1024
GlyphClass: 2
Flags: W
LayerCount: 2
Fore
SplineSet
1004 -268 m 1,0,-1
 20 -268 l 1,1,-1
 20 -140 l 1,2,-1
 1004 -140 l 1,3,-1
 1004 -268 l 1,0,-1
EndSplineSet
EndChar

StartChar: grave
Encoding: 96 96 67
Width: 1024
GlyphClass: 2
Flags: W
LayerCount: 2
Fore
SplineSet
591 1189 m 1,0,-1
 505 1189 l 1,1,-1
 298 1430 l 1,2,-1
 447 1430 l 1,3,-1
 591 1189 l 1,0,-1
EndSplineSet
EndChar

StartChar: a
Encoding: 97 97 68
Width: 1083
GlyphClass: 2
Flags: W
LayerCount: 2
Fore
SplineSet
921 20 m 1,0,-1
 791 20 l 1,1,2
 790 40 790 40 790 53 c 2,3,-1
 790 90 l 1,4,-1
 792 134 l 2,5,6
 793 157 793 157 795 209 c 1,7,8
 718 78 718 78 629 37 c 0,9,10
 562 6 562 6 436 6 c 0,11,12
 285 6 285 6 196.5 83 c 128,-1,13
 108 160 108 160 108 287 c 0,14,15
 108 462 108 462 284 540 c 0,16,17
 412 596 412 596 612 596 c 0,18,19
 662 596 662 596 717 593 c 2,20,-1
 772 589 l 1,21,22
 768 882 768 882 502 882 c 0,23,24
 358 882 358 882 225 799 c 1,25,-1
 217 916 l 1,26,27
 366 1000 366 1000 532 1000 c 0,28,29
 826 1000 826 1000 891 780 c 0,30,31
 906 726 906 726 910 647 c 0,32,33
 912 605 912 605 912 549 c 2,34,-1
 912 340 l 2,35,36
 912 123 912 123 921 20 c 1,0,-1
776 491 m 1,37,-1
 740 495 l 2,38,39
 692 499 692 499 655 499 c 0,40,41
 466 499 466 499 369 450 c 0,42,43
 265 396 265 396 265 289 c 0,44,45
 265 167 265 167 394 126 c 0,46,47
 432 113 432 113 477 113 c 0,48,49
 577 113 577 113 652.5 164.5 c 128,-1,50
 728 216 728 216 759 309 c 0,51,52
 770 344 770 344 774 413 c 0,53,54
 776 446 776 446 776 491 c 1,37,-1
EndSplineSet
EndChar

StartChar: b
Encoding: 98 98 69
Width: 1182
GlyphClass: 2
Flags: W
LayerCount: 2
Fore
SplineSet
1082 510 m 0,0,1
 1082 278 1082 278 969 142 c 128,-1,2
 856 6 856 6 668 6 c 0,3,4
 543 6 543 6 467 46 c 0,5,6
 371 96 371 96 304 222 c 1,7,-1
 304 20 l 1,8,-1
 165 20 l 1,9,-1
 165 1455 l 1,10,-1
 312 1455 l 1,11,-1
 312 946 l 2,12,13
 312 830 312 830 300 770 c 1,14,15
 350 892 350 892 456 950 c 0,16,17
 545 1000 545 1000 672 1000 c 0,18,19
 858 1000 858 1000 970 867 c 128,-1,20
 1082 734 1082 734 1082 510 c 0,0,1
925 502 m 0,21,22
 925 667 925 667 845 774.5 c 128,-1,23
 765 882 765 882 635 882 c 0,24,25
 417 882 417 882 340 652 c 0,26,27
 316 582 316 582 316 500 c 0,28,29
 316 341 316 341 404.5 232 c 128,-1,30
 493 123 493 123 627 123 c 0,31,32
 728 123 728 123 803 191 c 0,33,34
 872 253 872 253 904 353 c 0,35,36
 925 422 925 422 925 502 c 0,21,22
EndSplineSet
EndChar

StartChar: c
Encoding: 99 99 70
Width: 874
GlyphClass: 2
Flags: W
LayerCount: 2
Fore
SplineSet
812 51 m 1,0,1
 716 8 716 8 588 8 c 0,2,3
 367 8 367 8 233.5 143 c 128,-1,4
 100 278 100 278 100 500 c 0,5,6
 100 706 100 706 218 837 c 0,7,8
 360 994 360 994 582 994 c 0,9,10
 691 994 691 994 788 959 c 1,11,-1
 779 841 l 1,12,13
 706 876 706 876 614 876 c 0,14,15
 457 876 457 876 356.5 772 c 128,-1,16
 256 668 256 668 256 508 c 0,17,18
 256 340 256 340 354 232.5 c 128,-1,19
 452 125 452 125 610 125 c 0,20,21
 711 125 711 125 802 175 c 1,22,-1
 812 51 l 1,0,1
EndSplineSet
EndChar

StartChar: d
Encoding: 100 100 71
Width: 1188
GlyphClass: 2
Flags: W
LayerCount: 2
Fore
SplineSet
1023 20 m 1,0,-1
 884 20 l 1,1,-1
 884 232 l 1,2,3
 797 105 797 105 711 53 c 0,4,5
 632 6 632 6 518 6 c 0,6,7
 326 6 326 6 213 138 c 128,-1,8
 100 270 100 270 100 498 c 0,9,10
 100 723 100 723 216.5 861.5 c 128,-1,11
 333 1000 333 1000 518 1000 c 0,12,13
 670 1000 670 1000 787 884 c 0,14,15
 829 841 829 841 873 778 c 1,16,-1
 866 935 l 2,17,18
 864 980 864 980 864 983 c 2,19,-1
 864 1455 l 1,20,-1
 1010 1455 l 1,21,-1
 1010 467 l 2,22,23
 1010 312 1010 312 1018 141 c 2,24,-1
 1023 20 l 1,0,-1
868 500 m 0,25,26
 868 659 868 659 783 769 c 0,27,28
 694 882 694 882 565 882 c 0,29,30
 352 882 352 882 279 652 c 0,31,32
 256 581 256 581 256 498 c 0,33,34
 256 335 256 335 339 229 c 128,-1,35
 422 123 422 123 557 123 c 0,36,37
 768 123 768 123 845 352 c 0,38,39
 868 420 868 420 868 500 c 0,25,26
EndSplineSet
EndChar

StartChar: e
Encoding: 101 101 72
Width: 1069
GlyphClass: 2
Flags: W
LayerCount: 2
Fore
SplineSet
969 473 m 1,0,-1
 244 473 l 1,1,2
 264 303 264 303 360 206 c 0,3,4
 453 111 453 111 602 111 c 256,5,6
 751 111 751 111 893 191 c 1,7,-1
 893 60 l 1,8,9
 744 -6 744 -6 592 -6 c 0,10,11
 366 -6 366 -6 233 133 c 128,-1,12
 100 272 100 272 100 510 c 0,13,14
 100 736 100 736 224.5 872 c 128,-1,15
 349 1008 349 1008 553 1008 c 0,16,17
 751 1008 751 1008 860 874 c 0,18,19
 969 737 969 737 969 485 c 2,20,-1
 969 473 l 1,0,-1
826 578 m 1,21,22
 814 662 814 662 802.5 704 c 128,-1,23
 791 746 791 746 768 781 c 0,24,25
 690 901 690 901 547 901 c 0,26,27
 363 901 363 901 282 714 c 0,28,29
 256 654 256 654 245 578 c 1,30,-1
 826 578 l 1,21,22
EndSplineSet
EndChar

StartChar: f
Encoding: 102 102 73
Width: 723
GlyphClass: 2
Flags: W
LayerCount: 2
Fore
SplineSet
680 876 m 1,0,-1
 408 876 l 1,1,-1
 408 20 l 1,2,-1
 262 20 l 1,3,-1
 262 876 l 1,4,-1
 26 876 l 1,5,-1
 26 981 l 1,6,-1
 262 981 l 1,7,-1
 262 1044 l 2,8,9
 262 1248 262 1248 312 1333 c 0,10,11
 387 1461 387 1461 565 1461 c 0,12,13
 628 1461 628 1461 680 1448 c 1,14,-1
 680 1335 l 1,15,16
 636 1343 636 1343 606 1343 c 0,17,18
 460 1343 460 1343 425 1226 c 0,19,20
 408 1169 408 1169 408 1047 c 2,21,-1
 408 981 l 1,22,-1
 680 981 l 1,23,-1
 680 876 l 1,0,-1
EndSplineSet
EndChar

StartChar: g
Encoding: 103 103 74
Width: 1159
GlyphClass: 2
Flags: W
LayerCount: 2
Fore
SplineSet
1008 174 m 2,0,1
 1008 32 1008 32 1002 -40 c 0,2,3
 995 -107 995 -107 976 -167 c 0,4,5
 897 -411 897 -411 539 -411 c 0,6,7
 398 -411 398 -411 273 -377 c 0,8,9
 229 -365 229 -365 181 -348 c 1,10,-1
 195 -212 l 1,11,12
 371 -293 371 -293 535 -293 c 0,13,14
 758 -293 758 -293 835 -130 c 0,15,16
 862 -72 862 -72 870 14 c 0,17,18
 872 44 872 44 872 82 c 0,19,20
 872 97 872 97 874 128 c 0,21,22
 876 176 876 176 879 218 c 1,23,24
 802 104 802 104 709 57 c 0,25,26
 634 18 634 18 520 18 c 0,27,28
 331 18 331 18 215.5 149 c 128,-1,29
 100 280 100 280 100 496 c 0,30,31
 100 723 100 723 216.5 860.5 c 128,-1,32
 333 998 333 998 516 998 c 0,33,34
 630 998 630 998 727 941 c 0,35,36
 829 883 829 883 876 783 c 1,37,38
 874 835 874 835 874 883 c 2,39,-1
 874 984 l 1,40,-1
 1008 984 l 1,41,-1
 1008 174 l 2,0,1
866 506 m 0,42,43
 866 660 866 660 780 769 c 0,44,45
 691 880 691 880 563 880 c 0,46,47
 350 880 350 880 278 651 c 0,48,49
 256 581 256 581 256 498 c 0,50,51
 256 340 256 340 339 238 c 128,-1,52
 422 136 422 136 553 136 c 0,53,54
 657 136 657 136 735 199 c 0,55,56
 809 258 809 258 843 359 c 0,57,58
 866 426 866 426 866 506 c 0,42,43
EndSplineSet
EndChar

StartChar: h
Encoding: 104 104 75
Width: 1161
GlyphClass: 2
Flags: W
LayerCount: 2
Fore
SplineSet
1012 20 m 1,0,-1
 866 20 l 1,1,-1
 866 434 l 2,2,3
 866 550 866 550 862 605 c 0,4,5
 856 667 856 667 847 702 c 0,6,7
 799 882 799 882 618 882 c 0,8,9
 503 882 503 882 421 805 c 0,10,11
 344 732 344 732 322 617 c 0,12,13
 313 573 313 573 311 494 c 0,14,15
 310 453 310 453 310 397 c 2,16,-1
 310 20 l 1,17,-1
 163 20 l 1,18,-1
 163 1455 l 1,19,-1
 310 1455 l 1,20,-1
 310 949 l 2,21,22
 310 929 310 929 306 793 c 1,23,24
 357 888 357 888 453 944 c 128,-1,25
 549 1000 549 1000 657 1000 c 0,26,27
 899 1000 899 1000 977 798 c 0,28,29
 997 747 997 747 1004 687 c 0,30,31
 1012 621 1012 621 1012 526 c 2,32,-1
 1012 20 l 1,0,-1
EndSplineSet
EndChar

StartChar: i
Encoding: 105 105 76
Width: 469
GlyphClass: 2
Flags: W
LayerCount: 2
Fore
SplineSet
312 1261 m 1,0,-1
 149 1261 l 1,1,-1
 149 1426 l 1,2,-1
 312 1426 l 1,3,-1
 312 1261 l 1,0,-1
308 20 m 1,4,-1
 161 20 l 1,5,-1
 161 981 l 1,6,-1
 308 981 l 1,7,-1
 308 20 l 1,4,-1
EndSplineSet
EndChar

StartChar: j
Encoding: 106 106 77
Width: 508
GlyphClass: 2
Flags: W
LayerCount: 2
Fore
SplineSet
349 1261 m 1,0,-1
 186 1261 l 1,1,-1
 186 1426 l 1,2,-1
 349 1426 l 1,3,-1
 349 1261 l 1,0,-1
340 20 m 2,4,5
 340 -113 340 -113 337 -151 c 0,6,7
 323 -299 323 -299 227 -362 c 0,8,9
 162 -405 162 -405 72 -405 c 0,10,11
 34 -405 34 -405 -16 -397 c 1,12,-1
 -16 -283 l 1,13,14
 7 -285 7 -285 12 -285 c 0,15,16
 138 -285 138 -285 176 -184 c 0,17,18
 189 -149 189 -149 192 -120 c 0,19,20
 194 -85 194 -85 194 20 c 2,21,-1
 194 981 l 1,22,-1
 340 981 l 1,23,-1
 340 20 l 2,4,5
EndSplineSet
EndChar

StartChar: k
Encoding: 107 107 78
Width: 1061
GlyphClass: 2
Flags: W
LayerCount: 2
Fore
SplineSet
1002 20 m 1,0,-1
 795 20 l 1,1,-1
 410 438 l 2,2,3
 374 477 374 477 350 495 c 0,4,5
 336 505 336 505 313 521 c 1,6,7
 313 489 313 489 313 473 c 2,8,-1
 312 443 l 2,9,10
 310 398 310 398 310 365 c 2,11,-1
 310 20 l 1,12,-1
 163 20 l 1,13,-1
 163 1455 l 1,14,-1
 310 1455 l 1,15,-1
 310 553 l 1,16,17
 355 593 355 593 397 635 c 2,18,-1
 424 662 l 1,19,-1
 744 981 l 1,20,-1
 935 981 l 1,21,-1
 490 560 l 1,22,-1
 1002 20 l 1,0,-1
EndSplineSet
EndChar

StartChar: l
Encoding: 108 108 79
Width: 469
GlyphClass: 2
Flags: W
LayerCount: 2
Fore
SplineSet
308 20 m 1,0,-1
 161 20 l 1,1,-1
 161 1455 l 1,2,-1
 308 1455 l 1,3,-1
 308 20 l 1,0,-1
EndSplineSet
EndChar

StartChar: m
Encoding: 109 109 80
Width: 1729
GlyphClass: 2
Flags: W
LayerCount: 2
Fore
SplineSet
1579 20 m 1,0,-1
 1433 20 l 1,1,-1
 1433 492 l 2,2,3
 1433 586 1433 586 1429 642 c 0,4,5
 1425 695 1425 695 1416 728 c 0,6,7
 1374 882 1374 882 1225 882 c 0,8,9
 1086 882 1086 882 1008 750 c 0,10,11
 975 696 975 696 960 618 c 0,12,13
 952 579 952 579 952 511 c 0,14,15
 951 476 951 476 951 424 c 2,16,-1
 951 20 l 1,17,-1
 804 20 l 1,18,-1
 804 514 l 2,19,20
 804 610 804 610 802 652 c 0,21,22
 794 782 794 782 721 842 c 0,23,24
 672 882 672 882 604 882 c 0,25,26
 518 882 518 882 447 826 c 0,27,28
 382 773 382 773 350 689 c 0,29,30
 320 609 320 609 320 442 c 2,31,-1
 320 20 l 1,32,-1
 174 20 l 1,33,-1
 174 565 l 2,34,35
 174 692 174 692 167 873 c 0,36,37
 165 924 165 924 162 981 c 1,38,-1
 295 981 l 1,39,-1
 309 781 l 1,40,41
 414 1000 414 1000 639 1000 c 0,42,43
 752 1000 752 1000 817 956 c 0,44,45
 890 906 890 906 930 787 c 1,46,47
 1047 1000 1047 1000 1264 1000 c 0,48,49
 1487 1000 1487 1000 1554 797 c 0,50,51
 1567 757 1567 757 1573 694 c 0,52,53
 1579 628 1579 628 1579 526 c 2,54,-1
 1579 20 l 1,0,-1
EndSplineSet
EndChar

StartChar: n
Encoding: 110 110 81
Width: 1169
GlyphClass: 2
Flags: W
LayerCount: 2
Fore
SplineSet
1020 20 m 1,0,-1
 874 20 l 1,1,-1
 874 451 l 2,2,3
 874 573 874 573 871 615 c 0,4,5
 867 666 867 666 857 704 c 0,6,7
 808 882 808 882 627 882 c 0,8,9
 525 882 525 882 447 820 c 0,10,11
 373 760 373 760 343 661 c 0,12,13
 324 597 324 597 321 481 c 0,14,15
 320 435 320 435 320 367 c 2,16,-1
 320 20 l 1,17,-1
 174 20 l 1,18,-1
 174 496 l 2,19,20
 174 760 174 760 162 981 c 1,21,-1
 296 981 l 1,22,-1
 307 783 l 1,23,24
 383 897 383 897 474 951 c 0,25,26
 557 1000 557 1000 668 1000 c 0,27,28
 925 1000 925 1000 995 770 c 0,29,30
 1008 727 1008 727 1014 658 c 0,31,32
 1020 586 1020 586 1020 467 c 2,33,-1
 1020 20 l 1,0,-1
EndSplineSet
EndChar

StartChar: o
Encoding: 111 111 82
Width: 1186
GlyphClass: 2
Flags: W
LayerCount: 2
Fore
SplineSet
1086 492 m 0,0,1
 1086 274 1086 274 946 134 c 128,-1,2
 806 -6 806 -6 590 -6 c 0,3,4
 379 -6 379 -6 239.5 137 c 128,-1,5
 100 280 100 280 100 498 c 0,6,7
 100 720 100 720 238.5 864 c 128,-1,8
 377 1008 377 1008 590 1008 c 0,9,10
 810 1008 810 1008 948 864.5 c 128,-1,11
 1086 721 1086 721 1086 492 c 0,0,1
929 492 m 0,12,13
 929 669 929 669 836 785 c 128,-1,14
 743 901 743 901 594 901 c 0,15,16
 481 901 481 901 397 832 c 0,17,18
 318 768 318 768 281 659 c 0,19,20
 256 585 256 585 256 500 c 0,21,22
 256 325 256 325 350 213 c 128,-1,23
 444 101 444 101 594 101 c 0,24,25
 705 101 705 101 788 168 c 0,26,27
 867 231 867 231 904 338 c 0,28,29
 929 409 929 409 929 492 c 0,12,13
EndSplineSet
EndChar

StartChar: p
Encoding: 112 112 83
Width: 1190
GlyphClass: 2
Flags: W
LayerCount: 2
Fore
SplineSet
1088 514 m 0,0,1
 1088 282 1088 282 973 144 c 128,-1,2
 858 6 858 6 674 6 c 0,3,4
 543 6 543 6 457 63 c 0,5,6
 379 115 379 115 314 232 c 1,7,8
 320 133 320 133 320 54 c 2,9,-1
 320 -397 l 1,10,-1
 174 -397 l 1,11,-1
 174 563 l 2,12,13
 174 682 174 682 167 875 c 0,14,15
 165 930 165 930 162 981 c 1,16,-1
 299 981 l 1,17,-1
 304 770 l 1,18,19
 378 894 378 894 476 951 c 0,20,21
 561 1000 561 1000 678 1000 c 0,22,23
 861 1000 861 1000 974 868 c 0,24,25
 1088 733 1088 733 1088 514 c 0,0,1
931 502 m 0,26,27
 931 668 931 668 851.5 775 c 128,-1,28
 772 882 772 882 641 882 c 0,29,30
 535 882 535 882 454 817 c 0,31,32
 378 755 378 755 344 652 c 0,33,34
 320 582 320 582 320 500 c 0,35,36
 320 391 320 391 366 299 c 0,37,38
 417 199 417 199 508 153 c 0,39,40
 565 123 565 123 633 123 c 0,41,42
 734 123 734 123 809 192 c 0,43,44
 877 253 877 253 909 354 c 0,45,46
 931 423 931 423 931 502 c 0,26,27
EndSplineSet
EndChar

StartChar: q
Encoding: 113 113 84
Width: 1184
GlyphClass: 2
Flags: W
LayerCount: 2
Fore
SplineSet
1016 -397 m 1,0,-1
 870 -397 l 1,1,-1
 870 16 l 2,2,3
 870 30 870 30 870 59 c 0,4,5
 869 88 869 88 869 102 c 0,6,7
 869 131 869 131 873 203 c 1,8,9
 791 96 791 96 709.5 51 c 128,-1,10
 628 6 628 6 514 6 c 0,11,12
 325 6 325 6 211.5 137 c 128,-1,13
 98 268 98 268 98 496 c 256,14,15
 98 724 98 724 214 862 c 128,-1,16
 330 1000 330 1000 520 1000 c 0,17,18
 633 1000 633 1000 730 939.5 c 128,-1,19
 827 879 827 879 880 779 c 1,20,21
 880 846 880 846 874 981 c 1,22,-1
 1016 981 l 1,23,-1
 1016 -397 l 1,0,-1
868 500 m 0,24,25
 868 660 868 660 783 770 c 0,26,27
 695 882 695 882 567 882 c 0,28,29
 461 882 461 882 383 816 c 0,30,31
 310 754 310 754 277 651 c 0,32,33
 254 581 254 581 254 500 c 0,34,35
 254 337 254 337 338 230 c 128,-1,36
 422 123 422 123 557 123 c 0,37,38
 768 123 768 123 845 352 c 0,39,40
 868 420 868 420 868 500 c 0,24,25
EndSplineSet
EndChar

StartChar: r
Encoding: 114 114 85
Width: 737
GlyphClass: 2
Flags: W
LayerCount: 2
Fore
SplineSet
689 860 m 1,0,1
 655 870 655 870 621 870 c 0,2,3
 414 870 414 870 343 647 c 0,4,5
 324 586 324 586 321 488 c 0,6,7
 320 449 320 449 320 393 c 2,8,-1
 320 20 l 1,9,-1
 174 20 l 1,10,-1
 174 610 l 2,11,12
 174 718 174 718 162 981 c 1,13,-1
 294 981 l 1,14,-1
 298 772 l 1,15,16
 360 897 360 897 441 950 c 0,17,18
 512 996 512 996 608 996 c 0,19,20
 649 996 649 996 689 986 c 1,21,-1
 689 860 l 1,0,1
EndSplineSet
EndChar

StartChar: s
Encoding: 115 115 86
Width: 774
GlyphClass: 2
Flags: W
LayerCount: 2
Fore
SplineSet
689 287 m 0,0,1
 689 89 689 89 487 23 c 0,2,3
 423 2 423 2 344 2 c 0,4,5
 215 2 215 2 104 52 c 1,6,-1
 104 173 l 1,7,8
 228 119 228 119 319 119 c 0,9,10
 462 119 462 119 515 207 c 0,11,12
 532 235 532 235 532 270 c 0,13,14
 532 337 532 337 475 381 c 0,15,16
 457 395 457 395 424 412 c 0,17,18
 414 417 414 417 388 430 c 2,19,-1
 310 468 l 2,20,21
 203 520 203 520 159 563 c 0,22,23
 92 629 92 629 92 729 c 0,24,25
 92 919 92 919 284 981 c 0,26,27
 344 1000 344 1000 420 1000 c 0,28,29
 519 1000 519 1000 632 965 c 1,30,-1
 622 852 l 1,31,32
 528 892 528 892 436 892 c 0,33,34
 307 892 307 892 263 809 c 0,35,36
 248 782 248 782 248 748 c 0,37,38
 248 658 248 658 399 584 c 2,39,-1
 475 547 l 2,40,41
 595 489 595 489 642 430.5 c 128,-1,42
 689 372 689 372 689 287 c 0,0,1
EndSplineSet
EndChar

StartChar: t
Encoding: 116 116 87
Width: 752
GlyphClass: 2
Flags: W
LayerCount: 2
Fore
SplineSet
676 31 m 1,0,1
 596 8 596 8 524 8 c 0,2,3
 314 8 314 8 265 170 c 0,4,5
 251 216 251 216 247 301 c 0,6,7
 245 344 245 344 245 403 c 2,8,-1
 245 876 l 1,9,-1
 14 876 l 1,10,-1
 14 981 l 1,11,-1
 245 981 l 1,12,-1
 245 1212 l 1,13,-1
 392 1262 l 1,14,-1
 392 981 l 1,15,-1
 656 981 l 1,16,-1
 656 876 l 1,17,-1
 392 876 l 1,18,-1
 392 459 l 2,19,20
 392 307 392 307 402 258 c 0,21,22
 429 125 429 125 575 125 c 0,23,24
 623 125 623 125 676 146 c 1,25,-1
 676 31 l 1,0,1
EndSplineSet
EndChar

StartChar: u
Encoding: 117 117 88
Width: 1159
GlyphClass: 2
Flags: W
LayerCount: 2
Fore
SplineSet
995 20 m 1,0,-1
 865 20 l 1,1,-1
 862 193 l 1,2,3
 785 86 785 86 691 42 c 0,4,5
 614 6 614 6 500 6 c 0,6,7
 277 6 277 6 196 175 c 0,8,9
 149 273 149 273 149 471 c 2,10,-1
 149 981 l 1,11,-1
 295 981 l 1,12,-1
 295 537 l 2,13,14
 295 428 295 428 301 364 c 0,15,16
 307 305 307 305 323 261 c 0,17,18
 379 113 379 113 537 113 c 0,19,20
 658 113 658 113 730 183 c 0,21,22
 791 242 791 242 817 350 c 0,23,24
 837 436 837 436 837 551 c 2,25,-1
 837 981 l 1,26,-1
 984 981 l 1,27,-1
 984 371 l 2,28,29
 984 297 984 297 986 217 c 0,30,31
 988 123 988 123 995 20 c 1,0,-1
EndSplineSet
EndChar

StartChar: v
Encoding: 118 118 89
Width: 967
GlyphClass: 2
Flags: W
LayerCount: 2
Fore
SplineSet
926 981 m 1,0,-1
 580 20 l 1,1,-1
 395 20 l 1,2,-1
 41 981 l 1,3,-1
 199 981 l 1,4,-1
 399 417 l 2,5,6
 420 358 420 358 459 238 c 0,7,8
 469 205 469 205 481 174 c 0,9,10
 486 162 486 162 489 158 c 1,11,12
 494 171 494 171 506 201 c 2,13,-1
 527 254 l 2,14,15
 538 282 538 282 554 328 c 2,16,-1
 784 981 l 1,17,-1
 926 981 l 1,0,-1
EndSplineSet
EndChar

StartChar: w
Encoding: 119 119 90
Width: 1622
GlyphClass: 2
Flags: W
LayerCount: 2
Fore
SplineSet
1582 981 m 1,0,-1
 1276 20 l 1,1,-1
 1090 20 l 1,2,-1
 1013 248 l 2,3,4
 872 662 872 662 812 932 c 1,5,6
 741 637 741 637 614 248 c 2,7,-1
 540 20 l 1,8,-1
 356 20 l 1,9,-1
 40 981 l 1,10,-1
 200 981 l 1,11,12
 225 904 225 904 275 751 c 2,13,-1
 328 586 l 2,14,15
 387 400 387 400 424 251 c 0,16,17
 442 174 442 174 450 119 c 1,18,19
 522 337 522 337 589 551 c 2,20,-1
 723 981 l 1,21,-1
 911 981 l 1,22,23
 928 931 928 931 951 866 c 2,24,-1
 1001 725 l 2,25,26
 1105 430 1105 430 1155 258 c 0,27,28
 1176 183 1176 183 1190 119 c 1,29,30
 1206 234 1206 234 1258 412 c 0,31,32
 1296 543 1296 543 1357 727 c 2,33,-1
 1403 867 l 2,34,35
 1425 932 1425 932 1440 981 c 1,36,-1
 1582 981 l 1,0,-1
EndSplineSet
EndChar

StartChar: x
Encoding: 120 120 91
Width: 973
GlyphClass: 2
Flags: W
LayerCount: 2
Fore
SplineSet
923 20 m 1,0,-1
 742 20 l 1,1,-1
 562 300 l 2,2,3
 534 344 534 344 477 432 c 1,4,5
 452 389 452 389 401 304 c 2,6,-1
 218 20 l 1,7,-1
 50 20 l 1,8,-1
 395 526 l 1,9,-1
 77 981 l 1,10,-1
 255 981 l 1,11,-1
 413 743 l 2,12,13
 424 727 424 727 493 616 c 1,14,15
 526 660 526 660 580 745 c 2,16,-1
 730 981 l 1,17,-1
 886 981 l 1,18,-1
 580 526 l 1,19,-1
 923 20 l 1,0,-1
EndSplineSet
EndChar

StartChar: y
Encoding: 121 121 92
Width: 965
GlyphClass: 2
Flags: W
LayerCount: 2
Fore
SplineSet
924 981 m 1,0,-1
 577 17 l 2,1,2
 553 -50 553 -50 500 -181 c 1,3,4
 430 -326 430 -326 331 -375 c 0,5,6
 272 -403 272 -403 188 -403 c 0,7,8
 148 -403 148 -403 95 -392 c 1,9,-1
 102 -285 l 1,10,11
 132 -295 132 -295 172 -295 c 0,12,13
 267 -295 267 -295 320 -233 c 0,14,15
 384 -158 384 -158 418 -39 c 1,16,-1
 41 981 l 1,17,-1
 199 981 l 1,18,-1
 417 362 l 2,19,20
 425 338 425 338 442 290 c 2,21,-1
 466 220 l 2,22,23
 474 196 474 196 490 147 c 1,24,25
 518 219 518 219 551 315 c 2,26,-1
 782 981 l 1,27,-1
 924 981 l 1,0,-1
EndSplineSet
EndChar

StartChar: z
Encoding: 122 122 93
Width: 973
GlyphClass: 2
Flags: W
LayerCount: 2
Fore
SplineSet
867 20 m 1,0,-1
 94 20 l 1,1,-1
 94 144 l 1,2,-1
 562 721 l 1,3,-1
 644 821 l 2,4,5
 663 844 663 844 690 878 c 1,6,7
 616 876 616 876 562 876 c 2,8,-1
 116 876 l 1,9,-1
 116 981 l 1,10,-1
 844 981 l 1,11,-1
 844 853 l 1,12,-1
 365 269 l 2,13,14
 335 232 335 232 272 160 c 0,15,16
 248 134 248 134 238 124 c 1,17,-1
 294 124 l 2,18,19
 317 124 317 124 363 125 c 0,20,21
 409 125 409 125 432 125 c 2,22,-1
 867 125 l 1,23,-1
 867 20 l 1,0,-1
EndSplineSet
EndChar

StartChar: braceleft
Encoding: 123 123 94
Width: 1010
GlyphClass: 2
Flags: W
LayerCount: 2
Fore
SplineSet
746 -397 m 1,0,-1
 676 -397 l 2,1,2
 415 -397 415 -397 415 -118 c 2,3,-1
 415 270 l 2,4,5
 415 442 415 442 301 478 c 1,6,-1
 301 579 l 1,7,8
 415 619 415 619 415 782 c 2,9,-1
 415 1190 l 2,10,11
 415 1345 415 1345 497 1405 c 0,12,13
 536 1434 536 1434 582 1444 c 0,14,15
 632 1455 632 1455 733 1455 c 2,16,-1
 746 1455 l 1,17,-1
 746 1361 l 1,18,19
 630 1359 630 1359 590.5 1321.5 c 128,-1,20
 551 1284 551 1284 551 1174 c 2,21,-1
 551 772 l 2,22,23
 551 676 551 676 524 626 c 128,-1,24
 497 576 497 576 414 529 c 1,25,26
 495 479 495 479 523 428 c 128,-1,27
 551 377 551 377 551 281 c 2,28,-1
 551 -114 l 2,29,30
 551 -225 551 -225 591 -264.5 c 128,-1,31
 631 -304 631 -304 746 -304 c 1,32,-1
 746 -397 l 1,0,-1
EndSplineSet
EndChar

StartChar: bar
Encoding: 124 124 95
Width: 1024
GlyphClass: 2
Flags: W
LayerCount: 2
Fore
SplineSet
584 -321 m 1,0,-1
 440 -321 l 1,1,-1
 440 1346 l 1,2,-1
 584 1346 l 1,3,-1
 584 -321 l 1,0,-1
EndSplineSet
EndChar

StartChar: braceright
Encoding: 125 125 96
Width: 1010
GlyphClass: 2
Flags: W
LayerCount: 2
Fore
SplineSet
709 478 m 1,0,1
 594 438 594 438 594 274 c 2,2,-1
 594 -132 l 2,3,4
 594 -288 594 -288 512 -347 c 0,5,6
 471 -376 471 -376 428 -386 c 0,7,8
 379 -397 379 -397 276 -397 c 2,9,-1
 264 -397 l 1,10,-1
 264 -304 l 1,11,12
 378 -302 378 -302 418 -264 c 128,-1,13
 458 -226 458 -226 458 -116 c 2,14,-1
 458 285 l 2,15,16
 458 381 458 381 485.5 430 c 128,-1,17
 513 479 513 479 596 528 c 1,18,19
 515 578 515 578 486.5 628 c 128,-1,20
 458 678 458 678 458 776 c 2,21,-1
 458 1171 l 2,22,23
 458 1284 458 1284 418.5 1323 c 128,-1,24
 379 1362 379 1362 264 1362 c 1,25,-1
 264 1455 l 1,26,-1
 334 1455 l 2,27,28
 594 1455 594 1455 594 1176 c 2,29,-1
 594 786 l 2,30,31
 594 615 594 615 709 579 c 1,32,-1
 709 478 l 1,0,1
EndSplineSet
EndChar

StartChar: asciitilde
Encoding: 126 126 97
Width: 852
GlyphClass: 2
Flags: W
LayerCount: 2
Fore
SplineSet
775 604 m 1,0,1
 775 506 775 506 714 439 c 128,-1,2
 653 372 653 372 556 372 c 0,3,4
 492 372 492 372 360 431 c 0,5,6
 234 488 234 488 197 488 c 0,7,8
 98 488 98 488 81 372 c 1,9,-1
 14 372 l 1,10,11
 14 469 14 469 75.5 536.5 c 128,-1,12
 137 604 137 604 234 604 c 0,13,14
 285 604 285 604 334 586 c 0,15,16
 342 583 342 583 430 542 c 0,17,18
 545 488 545 488 592 488 c 0,19,20
 693 488 693 488 708 604 c 1,21,-1
 775 604 l 1,0,1
EndSplineSet
EndChar

StartChar: glyph98
Encoding: 65539 -1 98
Width: 3277
GlyphClass: 2
Flags: W
LayerCount: 2
Fore
SplineSet
2005 214 m 2,0,1
 2005 184 2005 184 1982.5 161.5 c 128,-1,2
 1960 139 1960 139 1930 139 c 2,3,-1
 555 139 l 2,4,5
 525 139 525 139 502.5 161.5 c 128,-1,6
 480 184 480 184 480 214 c 2,7,-1
 480 2447 l 2,8,9
 480 2477 480 2477 502.5 2499.5 c 128,-1,10
 525 2522 525 2522 555 2522 c 2,11,-1
 1930 2522 l 2,12,13
 1960 2522 1960 2522 1982.5 2499.5 c 128,-1,14
 2005 2477 2005 2477 2005 2447 c 2,15,-1
 2005 214 l 2,0,1
1854 289 m 1,16,-1
 1854 2371 l 1,17,-1
 631 2371 l 1,18,-1
 631 289 l 1,19,-1
 1854 289 l 1,16,-1
EndSplineSet
EndChar

StartChar: glyph99
Encoding: 65540 -1 99
Width: 3277
GlyphClass: 2
Flags: W
LayerCount: 2
Fore
SplineSet
2005 214 m 2,0,1
 2005 184 2005 184 1982.5 161.5 c 128,-1,2
 1960 139 1960 139 1930 139 c 2,3,-1
 555 139 l 2,4,5
 525 139 525 139 502.5 161.5 c 128,-1,6
 480 184 480 184 480 214 c 2,7,-1
 480 2447 l 2,8,9
 480 2477 480 2477 502.5 2499.5 c 128,-1,10
 525 2522 525 2522 555 2522 c 2,11,-1
 1930 2522 l 2,12,13
 1960 2522 1960 2522 1982.5 2499.5 c 128,-1,14
 2005 2477 2005 2477 2005 2447 c 2,15,-1
 2005 214 l 2,0,1
1854 289 m 1,16,-1
 1854 2371 l 1,17,-1
 631 2371 l 1,18,-1
 631 289 l 1,19,-1
 1854 289 l 1,16,-1
EndSplineSet
EndChar

StartChar: glyph100
Encoding: 65541 -1 100
Width: 3277
GlyphClass: 2
Flags: W
LayerCount: 2
Fore
SplineSet
2005 214 m 2,0,1
 2005 184 2005 184 1982.5 161.5 c 128,-1,2
 1960 139 1960 139 1930 139 c 2,3,-1
 555 139 l 2,4,5
 525 139 525 139 502.5 161.5 c 128,-1,6
 480 184 480 184 480 214 c 2,7,-1
 480 2447 l 2,8,9
 480 2477 480 2477 502.5 2499.5 c 128,-1,10
 525 2522 525 2522 555 2522 c 2,11,-1
 1930 2522 l 2,12,13
 1960 2522 1960 2522 1982.5 2499.5 c 128,-1,14
 2005 2477 2005 2477 2005 2447 c 2,15,-1
 2005 214 l 2,0,1
1854 289 m 1,16,-1
 1854 2371 l 1,17,-1
 631 2371 l 1,18,-1
 631 289 l 1,19,-1
 1854 289 l 1,16,-1
EndSplineSet
EndChar

StartChar: glyph101
Encoding: 65542 -1 101
Width: 3277
GlyphClass: 2
Flags: W
LayerCount: 2
Fore
SplineSet
2005 214 m 2,0,1
 2005 184 2005 184 1982.5 161.5 c 128,-1,2
 1960 139 1960 139 1930 139 c 2,3,-1
 555 139 l 2,4,5
 525 139 525 139 502.5 161.5 c 128,-1,6
 480 184 480 184 480 214 c 2,7,-1
 480 2447 l 2,8,9
 480 2477 480 2477 502.5 2499.5 c 128,-1,10
 525 2522 525 2522 555 2522 c 2,11,-1
 1930 2522 l 2,12,13
 1960 2522 1960 2522 1982.5 2499.5 c 128,-1,14
 2005 2477 2005 2477 2005 2447 c 2,15,-1
 2005 214 l 2,0,1
1854 289 m 1,16,-1
 1854 2371 l 1,17,-1
 631 2371 l 1,18,-1
 631 289 l 1,19,-1
 1854 289 l 1,16,-1
EndSplineSet
EndChar

StartChar: glyph102
Encoding: 65543 -1 102
Width: 3277
GlyphClass: 2
Flags: W
LayerCount: 2
Fore
SplineSet
2005 214 m 2,0,1
 2005 184 2005 184 1982.5 161.5 c 128,-1,2
 1960 139 1960 139 1930 139 c 2,3,-1
 555 139 l 2,4,5
 525 139 525 139 502.5 161.5 c 128,-1,6
 480 184 480 184 480 214 c 2,7,-1
 480 2447 l 2,8,9
 480 2477 480 2477 502.5 2499.5 c 128,-1,10
 525 2522 525 2522 555 2522 c 2,11,-1
 1930 2522 l 2,12,13
 1960 2522 1960 2522 1982.5 2499.5 c 128,-1,14
 2005 2477 2005 2477 2005 2447 c 2,15,-1
 2005 214 l 2,0,1
1854 289 m 1,16,-1
 1854 2371 l 1,17,-1
 631 2371 l 1,18,-1
 631 289 l 1,19,-1
 1854 289 l 1,16,-1
EndSplineSet
EndChar

StartChar: glyph103
Encoding: 65544 -1 103
Width: 3277
GlyphClass: 2
Flags: W
LayerCount: 2
Fore
SplineSet
2005 214 m 2,0,1
 2005 184 2005 184 1982.5 161.5 c 128,-1,2
 1960 139 1960 139 1930 139 c 2,3,-1
 555 139 l 2,4,5
 525 139 525 139 502.5 161.5 c 128,-1,6
 480 184 480 184 480 214 c 2,7,-1
 480 2447 l 2,8,9
 480 2477 480 2477 502.5 2499.5 c 128,-1,10
 525 2522 525 2522 555 2522 c 2,11,-1
 1930 2522 l 2,12,13
 1960 2522 1960 2522 1982.5 2499.5 c 128,-1,14
 2005 2477 2005 2477 2005 2447 c 2,15,-1
 2005 214 l 2,0,1
1854 289 m 1,16,-1
 1854 2371 l 1,17,-1
 631 2371 l 1,18,-1
 631 289 l 1,19,-1
 1854 289 l 1,16,-1
EndSplineSet
EndChar

StartChar: glyph104
Encoding: 65545 -1 104
Width: 3277
GlyphClass: 2
Flags: W
LayerCount: 2
Fore
SplineSet
2005 214 m 2,0,1
 2005 184 2005 184 1982.5 161.5 c 128,-1,2
 1960 139 1960 139 1930 139 c 2,3,-1
 555 139 l 2,4,5
 525 139 525 139 502.5 161.5 c 128,-1,6
 480 184 480 184 480 214 c 2,7,-1
 480 2447 l 2,8,9
 480 2477 480 2477 502.5 2499.5 c 128,-1,10
 525 2522 525 2522 555 2522 c 2,11,-1
 1930 2522 l 2,12,13
 1960 2522 1960 2522 1982.5 2499.5 c 128,-1,14
 2005 2477 2005 2477 2005 2447 c 2,15,-1
 2005 214 l 2,0,1
1854 289 m 1,16,-1
 1854 2371 l 1,17,-1
 631 2371 l 1,18,-1
 631 289 l 1,19,-1
 1854 289 l 1,16,-1
EndSplineSet
EndChar

StartChar: glyph105
Encoding: 65546 -1 105
Width: 3277
GlyphClass: 2
Flags: W
LayerCount: 2
Fore
SplineSet
2005 214 m 2,0,1
 2005 184 2005 184 1982.5 161.5 c 128,-1,2
 1960 139 1960 139 1930 139 c 2,3,-1
 555 139 l 2,4,5
 525 139 525 139 502.5 161.5 c 128,-1,6
 480 184 480 184 480 214 c 2,7,-1
 480 2447 l 2,8,9
 480 2477 480 2477 502.5 2499.5 c 128,-1,10
 525 2522 525 2522 555 2522 c 2,11,-1
 1930 2522 l 2,12,13
 1960 2522 1960 2522 1982.5 2499.5 c 128,-1,14
 2005 2477 2005 2477 2005 2447 c 2,15,-1
 2005 214 l 2,0,1
1854 289 m 1,16,-1
 1854 2371 l 1,17,-1
 631 2371 l 1,18,-1
 631 289 l 1,19,-1
 1854 289 l 1,16,-1
EndSplineSet
EndChar

StartChar: glyph106
Encoding: 65547 -1 106
Width: 3277
GlyphClass: 2
Flags: W
LayerCount: 2
Fore
SplineSet
2005 214 m 2,0,1
 2005 184 2005 184 1982.5 161.5 c 128,-1,2
 1960 139 1960 139 1930 139 c 2,3,-1
 555 139 l 2,4,5
 525 139 525 139 502.5 161.5 c 128,-1,6
 480 184 480 184 480 214 c 2,7,-1
 480 2447 l 2,8,9
 480 2477 480 2477 502.5 2499.5 c 128,-1,10
 525 2522 525 2522 555 2522 c 2,11,-1
 1930 2522 l 2,12,13
 1960 2522 1960 2522 1982.5 2499.5 c 128,-1,14
 2005 2477 2005 2477 2005 2447 c 2,15,-1
 2005 214 l 2,0,1
1854 289 m 1,16,-1
 1854 2371 l 1,17,-1
 631 2371 l 1,18,-1
 631 289 l 1,19,-1
 1854 289 l 1,16,-1
EndSplineSet
EndChar

StartChar: glyph107
Encoding: 65548 -1 107
Width: 3277
GlyphClass: 2
Flags: W
LayerCount: 2
Fore
SplineSet
2005 214 m 2,0,1
 2005 184 2005 184 1982.5 161.5 c 128,-1,2
 1960 139 1960 139 1930 139 c 2,3,-1
 555 139 l 2,4,5
 525 139 525 139 502.5 161.5 c 128,-1,6
 480 184 480 184 480 214 c 2,7,-1
 480 2447 l 2,8,9
 480 2477 480 2477 502.5 2499.5 c 128,-1,10
 525 2522 525 2522 555 2522 c 2,11,-1
 1930 2522 l 2,12,13
 1960 2522 1960 2522 1982.5 2499.5 c 128,-1,14
 2005 2477 2005 2477 2005 2447 c 2,15,-1
 2005 214 l 2,0,1
1854 289 m 1,16,-1
 1854 2371 l 1,17,-1
 631 2371 l 1,18,-1
 631 289 l 1,19,-1
 1854 289 l 1,16,-1
EndSplineSet
EndChar

StartChar: glyph108
Encoding: 65549 -1 108
Width: 3277
GlyphClass: 2
Flags: W
LayerCount: 2
Fore
SplineSet
2005 214 m 2,0,1
 2005 184 2005 184 1982.5 161.5 c 128,-1,2
 1960 139 1960 139 1930 139 c 2,3,-1
 555 139 l 2,4,5
 525 139 525 139 502.5 161.5 c 128,-1,6
 480 184 480 184 480 214 c 2,7,-1
 480 2447 l 2,8,9
 480 2477 480 2477 502.5 2499.5 c 128,-1,10
 525 2522 525 2522 555 2522 c 2,11,-1
 1930 2522 l 2,12,13
 1960 2522 1960 2522 1982.5 2499.5 c 128,-1,14
 2005 2477 2005 2477 2005 2447 c 2,15,-1
 2005 214 l 2,0,1
1854 289 m 1,16,-1
 1854 2371 l 1,17,-1
 631 2371 l 1,18,-1
 631 289 l 1,19,-1
 1854 289 l 1,16,-1
EndSplineSet
EndChar

StartChar: glyph109
Encoding: 65550 -1 109
Width: 3277
GlyphClass: 2
Flags: W
LayerCount: 2
Fore
SplineSet
2005 214 m 2,0,1
 2005 184 2005 184 1982.5 161.5 c 128,-1,2
 1960 139 1960 139 1930 139 c 2,3,-1
 555 139 l 2,4,5
 525 139 525 139 502.5 161.5 c 128,-1,6
 480 184 480 184 480 214 c 2,7,-1
 480 2447 l 2,8,9
 480 2477 480 2477 502.5 2499.5 c 128,-1,10
 525 2522 525 2522 555 2522 c 2,11,-1
 1930 2522 l 2,12,13
 1960 2522 1960 2522 1982.5 2499.5 c 128,-1,14
 2005 2477 2005 2477 2005 2447 c 2,15,-1
 2005 214 l 2,0,1
1854 289 m 1,16,-1
 1854 2371 l 1,17,-1
 631 2371 l 1,18,-1
 631 289 l 1,19,-1
 1854 289 l 1,16,-1
EndSplineSet
EndChar

StartChar: glyph110
Encoding: 65551 -1 110
Width: 3277
GlyphClass: 2
Flags: W
LayerCount: 2
Fore
SplineSet
2005 214 m 2,0,1
 2005 184 2005 184 1982.5 161.5 c 128,-1,2
 1960 139 1960 139 1930 139 c 2,3,-1
 555 139 l 2,4,5
 525 139 525 139 502.5 161.5 c 128,-1,6
 480 184 480 184 480 214 c 2,7,-1
 480 2447 l 2,8,9
 480 2477 480 2477 502.5 2499.5 c 128,-1,10
 525 2522 525 2522 555 2522 c 2,11,-1
 1930 2522 l 2,12,13
 1960 2522 1960 2522 1982.5 2499.5 c 128,-1,14
 2005 2477 2005 2477 2005 2447 c 2,15,-1
 2005 214 l 2,0,1
1854 289 m 1,16,-1
 1854 2371 l 1,17,-1
 631 2371 l 1,18,-1
 631 289 l 1,19,-1
 1854 289 l 1,16,-1
EndSplineSet
EndChar

StartChar: glyph111
Encoding: 65552 -1 111
Width: 3277
GlyphClass: 2
Flags: W
LayerCount: 2
Fore
SplineSet
2005 214 m 2,0,1
 2005 184 2005 184 1982.5 161.5 c 128,-1,2
 1960 139 1960 139 1930 139 c 2,3,-1
 555 139 l 2,4,5
 525 139 525 139 502.5 161.5 c 128,-1,6
 480 184 480 184 480 214 c 2,7,-1
 480 2447 l 2,8,9
 480 2477 480 2477 502.5 2499.5 c 128,-1,10
 525 2522 525 2522 555 2522 c 2,11,-1
 1930 2522 l 2,12,13
 1960 2522 1960 2522 1982.5 2499.5 c 128,-1,14
 2005 2477 2005 2477 2005 2447 c 2,15,-1
 2005 214 l 2,0,1
1854 289 m 1,16,-1
 1854 2371 l 1,17,-1
 631 2371 l 1,18,-1
 631 289 l 1,19,-1
 1854 289 l 1,16,-1
EndSplineSet
EndChar

StartChar: glyph112
Encoding: 65553 -1 112
Width: 3277
GlyphClass: 2
Flags: W
LayerCount: 2
Fore
SplineSet
2005 214 m 2,0,1
 2005 184 2005 184 1982.5 161.5 c 128,-1,2
 1960 139 1960 139 1930 139 c 2,3,-1
 555 139 l 2,4,5
 525 139 525 139 502.5 161.5 c 128,-1,6
 480 184 480 184 480 214 c 2,7,-1
 480 2447 l 2,8,9
 480 2477 480 2477 502.5 2499.5 c 128,-1,10
 525 2522 525 2522 555 2522 c 2,11,-1
 1930 2522 l 2,12,13
 1960 2522 1960 2522 1982.5 2499.5 c 128,-1,14
 2005 2477 2005 2477 2005 2447 c 2,15,-1
 2005 214 l 2,0,1
1854 289 m 1,16,-1
 1854 2371 l 1,17,-1
 631 2371 l 1,18,-1
 631 289 l 1,19,-1
 1854 289 l 1,16,-1
EndSplineSet
EndChar

StartChar: glyph113
Encoding: 65554 -1 113
Width: 3277
GlyphClass: 2
Flags: W
LayerCount: 2
Fore
SplineSet
2005 214 m 2,0,1
 2005 184 2005 184 1982.5 161.5 c 128,-1,2
 1960 139 1960 139 1930 139 c 2,3,-1
 555 139 l 2,4,5
 525 139 525 139 502.5 161.5 c 128,-1,6
 480 184 480 184 480 214 c 2,7,-1
 480 2447 l 2,8,9
 480 2477 480 2477 502.5 2499.5 c 128,-1,10
 525 2522 525 2522 555 2522 c 2,11,-1
 1930 2522 l 2,12,13
 1960 2522 1960 2522 1982.5 2499.5 c 128,-1,14
 2005 2477 2005 2477 2005 2447 c 2,15,-1
 2005 214 l 2,0,1
1854 289 m 1,16,-1
 1854 2371 l 1,17,-1
 631 2371 l 1,18,-1
 631 289 l 1,19,-1
 1854 289 l 1,16,-1
EndSplineSet
EndChar

StartChar: glyph114
Encoding: 65555 -1 114
Width: 3277
GlyphClass: 2
Flags: W
LayerCount: 2
Fore
SplineSet
2005 214 m 2,0,1
 2005 184 2005 184 1982.5 161.5 c 128,-1,2
 1960 139 1960 139 1930 139 c 2,3,-1
 555 139 l 2,4,5
 525 139 525 139 502.5 161.5 c 128,-1,6
 480 184 480 184 480 214 c 2,7,-1
 480 2447 l 2,8,9
 480 2477 480 2477 502.5 2499.5 c 128,-1,10
 525 2522 525 2522 555 2522 c 2,11,-1
 1930 2522 l 2,12,13
 1960 2522 1960 2522 1982.5 2499.5 c 128,-1,14
 2005 2477 2005 2477 2005 2447 c 2,15,-1
 2005 214 l 2,0,1
1854 289 m 1,16,-1
 1854 2371 l 1,17,-1
 631 2371 l 1,18,-1
 631 289 l 1,19,-1
 1854 289 l 1,16,-1
EndSplineSet
EndChar

StartChar: glyph115
Encoding: 65556 -1 115
Width: 3277
GlyphClass: 2
Flags: W
LayerCount: 2
Fore
SplineSet
2005 214 m 2,0,1
 2005 184 2005 184 1982.5 161.5 c 128,-1,2
 1960 139 1960 139 1930 139 c 2,3,-1
 555 139 l 2,4,5
 525 139 525 139 502.5 161.5 c 128,-1,6
 480 184 480 184 480 214 c 2,7,-1
 480 2447 l 2,8,9
 480 2477 480 2477 502.5 2499.5 c 128,-1,10
 525 2522 525 2522 555 2522 c 2,11,-1
 1930 2522 l 2,12,13
 1960 2522 1960 2522 1982.5 2499.5 c 128,-1,14
 2005 2477 2005 2477 2005 2447 c 2,15,-1
 2005 214 l 2,0,1
1854 289 m 1,16,-1
 1854 2371 l 1,17,-1
 631 2371 l 1,18,-1
 631 289 l 1,19,-1
 1854 289 l 1,16,-1
EndSplineSet
EndChar

StartChar: glyph116
Encoding: 65557 -1 116
Width: 3277
GlyphClass: 2
Flags: W
LayerCount: 2
Fore
SplineSet
2005 214 m 2,0,1
 2005 184 2005 184 1982.5 161.5 c 128,-1,2
 1960 139 1960 139 1930 139 c 2,3,-1
 555 139 l 2,4,5
 525 139 525 139 502.5 161.5 c 128,-1,6
 480 184 480 184 480 214 c 2,7,-1
 480 2447 l 2,8,9
 480 2477 480 2477 502.5 2499.5 c 128,-1,10
 525 2522 525 2522 555 2522 c 2,11,-1
 1930 2522 l 2,12,13
 1960 2522 1960 2522 1982.5 2499.5 c 128,-1,14
 2005 2477 2005 2477 2005 2447 c 2,15,-1
 2005 214 l 2,0,1
1854 289 m 1,16,-1
 1854 2371 l 1,17,-1
 631 2371 l 1,18,-1
 631 289 l 1,19,-1
 1854 289 l 1,16,-1
EndSplineSet
EndChar

StartChar: glyph117
Encoding: 65558 -1 117
Width: 3277
GlyphClass: 2
Flags: W
LayerCount: 2
Fore
SplineSet
2005 214 m 2,0,1
 2005 184 2005 184 1982.5 161.5 c 128,-1,2
 1960 139 1960 139 1930 139 c 2,3,-1
 555 139 l 2,4,5
 525 139 525 139 502.5 161.5 c 128,-1,6
 480 184 480 184 480 214 c 2,7,-1
 480 2447 l 2,8,9
 480 2477 480 2477 502.5 2499.5 c 128,-1,10
 525 2522 525 2522 555 2522 c 2,11,-1
 1930 2522 l 2,12,13
 1960 2522 1960 2522 1982.5 2499.5 c 128,-1,14
 2005 2477 2005 2477 2005 2447 c 2,15,-1
 2005 214 l 2,0,1
1854 289 m 1,16,-1
 1854 2371 l 1,17,-1
 631 2371 l 1,18,-1
 631 289 l 1,19,-1
 1854 289 l 1,16,-1
EndSplineSet
EndChar

StartChar: glyph118
Encoding: 65559 -1 118
Width: 3277
GlyphClass: 2
Flags: W
LayerCount: 2
Fore
SplineSet
2005 214 m 2,0,1
 2005 184 2005 184 1982.5 161.5 c 128,-1,2
 1960 139 1960 139 1930 139 c 2,3,-1
 555 139 l 2,4,5
 525 139 525 139 502.5 161.5 c 128,-1,6
 480 184 480 184 480 214 c 2,7,-1
 480 2447 l 2,8,9
 480 2477 480 2477 502.5 2499.5 c 128,-1,10
 525 2522 525 2522 555 2522 c 2,11,-1
 1930 2522 l 2,12,13
 1960 2522 1960 2522 1982.5 2499.5 c 128,-1,14
 2005 2477 2005 2477 2005 2447 c 2,15,-1
 2005 214 l 2,0,1
1854 289 m 1,16,-1
 1854 2371 l 1,17,-1
 631 2371 l 1,18,-1
 631 289 l 1,19,-1
 1854 289 l 1,16,-1
EndSplineSet
EndChar

StartChar: glyph119
Encoding: 65560 -1 119
Width: 3277
GlyphClass: 2
Flags: W
LayerCount: 2
Fore
SplineSet
2005 214 m 2,0,1
 2005 184 2005 184 1982.5 161.5 c 128,-1,2
 1960 139 1960 139 1930 139 c 2,3,-1
 555 139 l 2,4,5
 525 139 525 139 502.5 161.5 c 128,-1,6
 480 184 480 184 480 214 c 2,7,-1
 480 2447 l 2,8,9
 480 2477 480 2477 502.5 2499.5 c 128,-1,10
 525 2522 525 2522 555 2522 c 2,11,-1
 1930 2522 l 2,12,13
 1960 2522 1960 2522 1982.5 2499.5 c 128,-1,14
 2005 2477 2005 2477 2005 2447 c 2,15,-1
 2005 214 l 2,0,1
1854 289 m 1,16,-1
 1854 2371 l 1,17,-1
 631 2371 l 1,18,-1
 631 289 l 1,19,-1
 1854 289 l 1,16,-1
EndSplineSet
EndChar

StartChar: glyph120
Encoding: 65561 -1 120
Width: 3277
GlyphClass: 2
Flags: W
LayerCount: 2
Fore
SplineSet
2005 214 m 2,0,1
 2005 184 2005 184 1982.5 161.5 c 128,-1,2
 1960 139 1960 139 1930 139 c 2,3,-1
 555 139 l 2,4,5
 525 139 525 139 502.5 161.5 c 128,-1,6
 480 184 480 184 480 214 c 2,7,-1
 480 2447 l 2,8,9
 480 2477 480 2477 502.5 2499.5 c 128,-1,10
 525 2522 525 2522 555 2522 c 2,11,-1
 1930 2522 l 2,12,13
 1960 2522 1960 2522 1982.5 2499.5 c 128,-1,14
 2005 2477 2005 2477 2005 2447 c 2,15,-1
 2005 214 l 2,0,1
1854 289 m 1,16,-1
 1854 2371 l 1,17,-1
 631 2371 l 1,18,-1
 631 289 l 1,19,-1
 1854 289 l 1,16,-1
EndSplineSet
EndChar

StartChar: glyph121
Encoding: 65562 -1 121
Width: 3277
GlyphClass: 2
Flags: W
LayerCount: 2
Fore
SplineSet
2005 214 m 2,0,1
 2005 184 2005 184 1982.5 161.5 c 128,-1,2
 1960 139 1960 139 1930 139 c 2,3,-1
 555 139 l 2,4,5
 525 139 525 139 502.5 161.5 c 128,-1,6
 480 184 480 184 480 214 c 2,7,-1
 480 2447 l 2,8,9
 480 2477 480 2477 502.5 2499.5 c 128,-1,10
 525 2522 525 2522 555 2522 c 2,11,-1
 1930 2522 l 2,12,13
 1960 2522 1960 2522 1982.5 2499.5 c 128,-1,14
 2005 2477 2005 2477 2005 2447 c 2,15,-1
 2005 214 l 2,0,1
1854 289 m 1,16,-1
 1854 2371 l 1,17,-1
 631 2371 l 1,18,-1
 631 289 l 1,19,-1
 1854 289 l 1,16,-1
EndSplineSet
EndChar

StartChar: glyph122
Encoding: 65563 -1 122
Width: 3277
GlyphClass: 2
Flags: W
LayerCount: 2
Fore
SplineSet
2005 214 m 2,0,1
 2005 184 2005 184 1982.5 161.5 c 128,-1,2
 1960 139 1960 139 1930 139 c 2,3,-1
 555 139 l 2,4,5
 525 139 525 139 502.5 161.5 c 128,-1,6
 480 184 480 184 480 214 c 2,7,-1
 480 2447 l 2,8,9
 480 2477 480 2477 502.5 2499.5 c 128,-1,10
 525 2522 525 2522 555 2522 c 2,11,-1
 1930 2522 l 2,12,13
 1960 2522 1960 2522 1982.5 2499.5 c 128,-1,14
 2005 2477 2005 2477 2005 2447 c 2,15,-1
 2005 214 l 2,0,1
1854 289 m 1,16,-1
 1854 2371 l 1,17,-1
 631 2371 l 1,18,-1
 631 289 l 1,19,-1
 1854 289 l 1,16,-1
EndSplineSet
EndChar

StartChar: glyph123
Encoding: 65564 -1 123
Width: 3277
GlyphClass: 2
Flags: W
LayerCount: 2
Fore
SplineSet
2005 214 m 2,0,1
 2005 184 2005 184 1982.5 161.5 c 128,-1,2
 1960 139 1960 139 1930 139 c 2,3,-1
 555 139 l 2,4,5
 525 139 525 139 502.5 161.5 c 128,-1,6
 480 184 480 184 480 214 c 2,7,-1
 480 2447 l 2,8,9
 480 2477 480 2477 502.5 2499.5 c 128,-1,10
 525 2522 525 2522 555 2522 c 2,11,-1
 1930 2522 l 2,12,13
 1960 2522 1960 2522 1982.5 2499.5 c 128,-1,14
 2005 2477 2005 2477 2005 2447 c 2,15,-1
 2005 214 l 2,0,1
1854 289 m 1,16,-1
 1854 2371 l 1,17,-1
 631 2371 l 1,18,-1
 631 289 l 1,19,-1
 1854 289 l 1,16,-1
EndSplineSet
EndChar

StartChar: glyph124
Encoding: 65565 -1 124
Width: 3277
GlyphClass: 2
Flags: W
LayerCount: 2
Fore
SplineSet
2005 214 m 2,0,1
 2005 184 2005 184 1982.5 161.5 c 128,-1,2
 1960 139 1960 139 1930 139 c 2,3,-1
 555 139 l 2,4,5
 525 139 525 139 502.5 161.5 c 128,-1,6
 480 184 480 184 480 214 c 2,7,-1
 480 2447 l 2,8,9
 480 2477 480 2477 502.5 2499.5 c 128,-1,10
 525 2522 525 2522 555 2522 c 2,11,-1
 1930 2522 l 2,12,13
 1960 2522 1960 2522 1982.5 2499.5 c 128,-1,14
 2005 2477 2005 2477 2005 2447 c 2,15,-1
 2005 214 l 2,0,1
1854 289 m 1,16,-1
 1854 2371 l 1,17,-1
 631 2371 l 1,18,-1
 631 289 l 1,19,-1
 1854 289 l 1,16,-1
EndSplineSet
EndChar

StartChar: glyph125
Encoding: 65566 -1 125
Width: 3277
GlyphClass: 2
Flags: W
LayerCount: 2
Fore
SplineSet
2005 214 m 2,0,1
 2005 184 2005 184 1982.5 161.5 c 128,-1,2
 1960 139 1960 139 1930 139 c 2,3,-1
 555 139 l 2,4,5
 525 139 525 139 502.5 161.5 c 128,-1,6
 480 184 480 184 480 214 c 2,7,-1
 480 2447 l 2,8,9
 480 2477 480 2477 502.5 2499.5 c 128,-1,10
 525 2522 525 2522 555 2522 c 2,11,-1
 1930 2522 l 2,12,13
 1960 2522 1960 2522 1982.5 2499.5 c 128,-1,14
 2005 2477 2005 2477 2005 2447 c 2,15,-1
 2005 214 l 2,0,1
1854 289 m 1,16,-1
 1854 2371 l 1,17,-1
 631 2371 l 1,18,-1
 631 289 l 1,19,-1
 1854 289 l 1,16,-1
EndSplineSet
EndChar

StartChar: glyph126
Encoding: 65567 -1 126
Width: 3277
GlyphClass: 2
Flags: W
LayerCount: 2
Fore
SplineSet
2005 214 m 2,0,1
 2005 184 2005 184 1982.5 161.5 c 128,-1,2
 1960 139 1960 139 1930 139 c 2,3,-1
 555 139 l 2,4,5
 525 139 525 139 502.5 161.5 c 128,-1,6
 480 184 480 184 480 214 c 2,7,-1
 480 2447 l 2,8,9
 480 2477 480 2477 502.5 2499.5 c 128,-1,10
 525 2522 525 2522 555 2522 c 2,11,-1
 1930 2522 l 2,12,13
 1960 2522 1960 2522 1982.5 2499.5 c 128,-1,14
 2005 2477 2005 2477 2005 2447 c 2,15,-1
 2005 214 l 2,0,1
1854 289 m 1,16,-1
 1854 2371 l 1,17,-1
 631 2371 l 1,18,-1
 631 289 l 1,19,-1
 1854 289 l 1,16,-1
EndSplineSet
EndChar

StartChar: glyph127
Encoding: 65568 -1 127
Width: 3277
GlyphClass: 2
Flags: W
LayerCount: 2
Fore
SplineSet
2005 214 m 2,0,1
 2005 184 2005 184 1982.5 161.5 c 128,-1,2
 1960 139 1960 139 1930 139 c 2,3,-1
 555 139 l 2,4,5
 525 139 525 139 502.5 161.5 c 128,-1,6
 480 184 480 184 480 214 c 2,7,-1
 480 2447 l 2,8,9
 480 2477 480 2477 502.5 2499.5 c 128,-1,10
 525 2522 525 2522 555 2522 c 2,11,-1
 1930 2522 l 2,12,13
 1960 2522 1960 2522 1982.5 2499.5 c 128,-1,14
 2005 2477 2005 2477 2005 2447 c 2,15,-1
 2005 214 l 2,0,1
1854 289 m 1,16,-1
 1854 2371 l 1,17,-1
 631 2371 l 1,18,-1
 631 289 l 1,19,-1
 1854 289 l 1,16,-1
EndSplineSet
EndChar

StartChar: glyph128
Encoding: 65569 -1 128
Width: 3277
GlyphClass: 2
Flags: W
LayerCount: 2
Fore
SplineSet
2005 214 m 2,0,1
 2005 184 2005 184 1982.5 161.5 c 128,-1,2
 1960 139 1960 139 1930 139 c 2,3,-1
 555 139 l 2,4,5
 525 139 525 139 502.5 161.5 c 128,-1,6
 480 184 480 184 480 214 c 2,7,-1
 480 2447 l 2,8,9
 480 2477 480 2477 502.5 2499.5 c 128,-1,10
 525 2522 525 2522 555 2522 c 2,11,-1
 1930 2522 l 2,12,13
 1960 2522 1960 2522 1982.5 2499.5 c 128,-1,14
 2005 2477 2005 2477 2005 2447 c 2,15,-1
 2005 214 l 2,0,1
1854 289 m 1,16,-1
 1854 2371 l 1,17,-1
 631 2371 l 1,18,-1
 631 289 l 1,19,-1
 1854 289 l 1,16,-1
EndSplineSet
EndChar

StartChar: glyph129
Encoding: 65570 -1 129
Width: 3277
GlyphClass: 2
Flags: W
LayerCount: 2
Fore
SplineSet
2005 214 m 2,0,1
 2005 184 2005 184 1982.5 161.5 c 128,-1,2
 1960 139 1960 139 1930 139 c 2,3,-1
 555 139 l 2,4,5
 525 139 525 139 502.5 161.5 c 128,-1,6
 480 184 480 184 480 214 c 2,7,-1
 480 2447 l 2,8,9
 480 2477 480 2477 502.5 2499.5 c 128,-1,10
 525 2522 525 2522 555 2522 c 2,11,-1
 1930 2522 l 2,12,13
 1960 2522 1960 2522 1982.5 2499.5 c 128,-1,14
 2005 2477 2005 2477 2005 2447 c 2,15,-1
 2005 214 l 2,0,1
1854 289 m 1,16,-1
 1854 2371 l 1,17,-1
 631 2371 l 1,18,-1
 631 289 l 1,19,-1
 1854 289 l 1,16,-1
EndSplineSet
EndChar

StartChar: glyph130
Encoding: 65571 -1 130
Width: 3277
GlyphClass: 2
Flags: W
LayerCount: 2
Fore
SplineSet
2005 214 m 2,0,1
 2005 184 2005 184 1982.5 161.5 c 128,-1,2
 1960 139 1960 139 1930 139 c 2,3,-1
 555 139 l 2,4,5
 525 139 525 139 502.5 161.5 c 128,-1,6
 480 184 480 184 480 214 c 2,7,-1
 480 2447 l 2,8,9
 480 2477 480 2477 502.5 2499.5 c 128,-1,10
 525 2522 525 2522 555 2522 c 2,11,-1
 1930 2522 l 2,12,13
 1960 2522 1960 2522 1982.5 2499.5 c 128,-1,14
 2005 2477 2005 2477 2005 2447 c 2,15,-1
 2005 214 l 2,0,1
1854 289 m 1,16,-1
 1854 2371 l 1,17,-1
 631 2371 l 1,18,-1
 631 289 l 1,19,-1
 1854 289 l 1,16,-1
EndSplineSet
EndChar

StartChar: glyph131
Encoding: 65572 -1 131
Width: 3277
GlyphClass: 2
Flags: W
LayerCount: 2
Fore
SplineSet
2005 214 m 2,0,1
 2005 184 2005 184 1982.5 161.5 c 128,-1,2
 1960 139 1960 139 1930 139 c 2,3,-1
 555 139 l 2,4,5
 525 139 525 139 502.5 161.5 c 128,-1,6
 480 184 480 184 480 214 c 2,7,-1
 480 2447 l 2,8,9
 480 2477 480 2477 502.5 2499.5 c 128,-1,10
 525 2522 525 2522 555 2522 c 2,11,-1
 1930 2522 l 2,12,13
 1960 2522 1960 2522 1982.5 2499.5 c 128,-1,14
 2005 2477 2005 2477 2005 2447 c 2,15,-1
 2005 214 l 2,0,1
1854 289 m 1,16,-1
 1854 2371 l 1,17,-1
 631 2371 l 1,18,-1
 631 289 l 1,19,-1
 1854 289 l 1,16,-1
EndSplineSet
EndChar

StartChar: exclamdown
Encoding: 161 161 132
Width: 3277
GlyphClass: 2
Flags: W
LayerCount: 2
Fore
SplineSet
2005 214 m 2,0,1
 2005 184 2005 184 1982.5 161.5 c 128,-1,2
 1960 139 1960 139 1930 139 c 2,3,-1
 555 139 l 2,4,5
 525 139 525 139 502.5 161.5 c 128,-1,6
 480 184 480 184 480 214 c 2,7,-1
 480 2447 l 2,8,9
 480 2477 480 2477 502.5 2499.5 c 128,-1,10
 525 2522 525 2522 555 2522 c 2,11,-1
 1930 2522 l 2,12,13
 1960 2522 1960 2522 1982.5 2499.5 c 128,-1,14
 2005 2477 2005 2477 2005 2447 c 2,15,-1
 2005 214 l 2,0,1
1854 289 m 1,16,-1
 1854 2371 l 1,17,-1
 631 2371 l 1,18,-1
 631 289 l 1,19,-1
 1854 289 l 1,16,-1
EndSplineSet
EndChar

StartChar: cent
Encoding: 162 162 133
Width: 1100
GlyphClass: 2
Flags: W
LayerCount: 2
Fore
SplineSet
921 246 m 1,0,1
 841 209 841 209 723 203 c 1,2,-1
 723 40 l 1,3,-1
 659 40 l 1,4,-1
 659 202 l 1,5,6
 444 224 444 224 325 356 c 0,7,8
 206 485 206 485 206 694 c 0,9,10
 206 898 206 898 327 1030.5 c 128,-1,11
 448 1163 448 1163 659 1186 c 1,12,-1
 659 1342 l 1,13,-1
 723 1342 l 1,14,-1
 723 1186 l 1,15,16
 842 1173 842 1173 896 1154 c 1,17,-1
 888 1035 l 1,18,19
 829 1061 829 1061 723 1068 c 1,20,-1
 723 320 l 1,21,22
 836 330 836 330 909 369 c 1,23,-1
 921 246 l 1,0,1
659 324 m 1,24,-1
 659 1065 l 1,25,26
 365 983 365 983 365 700 c 0,27,28
 365 400 365 400 659 324 c 1,24,-1
EndSplineSet
EndChar

StartChar: sterling
Encoding: 163 163 134
Width: 1100
GlyphClass: 2
Flags: W
LayerCount: 2
Fore
SplineSet
984 1323 m 1,0,-1
 972 1196 l 1,1,2
 868 1237 868 1237 786 1237 c 0,3,4
 682 1237 682 1237 604.5 1182.5 c 128,-1,5
 527 1128 527 1128 499 1034 c 0,6,7
 476 956 476 956 476 809 c 2,8,-1
 476 752 l 1,9,-1
 793 752 l 1,10,-1
 793 684 l 1,11,-1
 482 684 l 1,12,-1
 482 142 l 1,13,-1
 963 142 l 1,14,-1
 963 20 l 1,15,-1
 145 20 l 1,16,-1
 145 142 l 1,17,-1
 327 142 l 1,18,-1
 327 684 l 1,19,-1
 163 684 l 1,20,-1
 163 752 l 1,21,-1
 325 752 l 1,22,-1
 325 819 l 2,23,24
 325 952 325 952 335 1014 c 0,25,26
 352 1117 352 1117 405 1193 c 0,27,28
 522 1356 522 1356 766 1356 c 0,29,30
 876 1356 876 1356 984 1323 c 1,0,-1
EndSplineSet
EndChar

StartChar: currency
Encoding: 164 164 135
Width: 3277
GlyphClass: 2
Flags: W
LayerCount: 2
Fore
SplineSet
2005 214 m 2,0,1
 2005 184 2005 184 1982.5 161.5 c 128,-1,2
 1960 139 1960 139 1930 139 c 2,3,-1
 555 139 l 2,4,5
 525 139 525 139 502.5 161.5 c 128,-1,6
 480 184 480 184 480 214 c 2,7,-1
 480 2447 l 2,8,9
 480 2477 480 2477 502.5 2499.5 c 128,-1,10
 525 2522 525 2522 555 2522 c 2,11,-1
 1930 2522 l 2,12,13
 1960 2522 1960 2522 1982.5 2499.5 c 128,-1,14
 2005 2477 2005 2477 2005 2447 c 2,15,-1
 2005 214 l 2,0,1
1854 289 m 1,16,-1
 1854 2371 l 1,17,-1
 631 2371 l 1,18,-1
 631 289 l 1,19,-1
 1854 289 l 1,16,-1
EndSplineSet
EndChar

StartChar: yen
Encoding: 165 165 136
Width: 3277
GlyphClass: 2
Flags: W
LayerCount: 2
Fore
SplineSet
2005 214 m 2,0,1
 2005 184 2005 184 1982.5 161.5 c 128,-1,2
 1960 139 1960 139 1930 139 c 2,3,-1
 555 139 l 2,4,5
 525 139 525 139 502.5 161.5 c 128,-1,6
 480 184 480 184 480 214 c 2,7,-1
 480 2447 l 2,8,9
 480 2477 480 2477 502.5 2499.5 c 128,-1,10
 525 2522 525 2522 555 2522 c 2,11,-1
 1930 2522 l 2,12,13
 1960 2522 1960 2522 1982.5 2499.5 c 128,-1,14
 2005 2477 2005 2477 2005 2447 c 2,15,-1
 2005 214 l 2,0,1
1854 289 m 1,16,-1
 1854 2371 l 1,17,-1
 631 2371 l 1,18,-1
 631 289 l 1,19,-1
 1854 289 l 1,16,-1
EndSplineSet
EndChar

StartChar: brokenbar
Encoding: 166 166 137
Width: 3277
GlyphClass: 2
Flags: W
LayerCount: 2
Fore
SplineSet
2005 214 m 2,0,1
 2005 184 2005 184 1982.5 161.5 c 128,-1,2
 1960 139 1960 139 1930 139 c 2,3,-1
 555 139 l 2,4,5
 525 139 525 139 502.5 161.5 c 128,-1,6
 480 184 480 184 480 214 c 2,7,-1
 480 2447 l 2,8,9
 480 2477 480 2477 502.5 2499.5 c 128,-1,10
 525 2522 525 2522 555 2522 c 2,11,-1
 1930 2522 l 2,12,13
 1960 2522 1960 2522 1982.5 2499.5 c 128,-1,14
 2005 2477 2005 2477 2005 2447 c 2,15,-1
 2005 214 l 2,0,1
1854 289 m 1,16,-1
 1854 2371 l 1,17,-1
 631 2371 l 1,18,-1
 631 289 l 1,19,-1
 1854 289 l 1,16,-1
EndSplineSet
EndChar

StartChar: section
Encoding: 167 167 138
Width: 3277
GlyphClass: 2
Flags: W
LayerCount: 2
Fore
SplineSet
2005 214 m 2,0,1
 2005 184 2005 184 1982.5 161.5 c 128,-1,2
 1960 139 1960 139 1930 139 c 2,3,-1
 555 139 l 2,4,5
 525 139 525 139 502.5 161.5 c 128,-1,6
 480 184 480 184 480 214 c 2,7,-1
 480 2447 l 2,8,9
 480 2477 480 2477 502.5 2499.5 c 128,-1,10
 525 2522 525 2522 555 2522 c 2,11,-1
 1930 2522 l 2,12,13
 1960 2522 1960 2522 1982.5 2499.5 c 128,-1,14
 2005 2477 2005 2477 2005 2447 c 2,15,-1
 2005 214 l 2,0,1
1854 289 m 1,16,-1
 1854 2371 l 1,17,-1
 631 2371 l 1,18,-1
 631 289 l 1,19,-1
 1854 289 l 1,16,-1
EndSplineSet
EndChar

StartChar: dieresis
Encoding: 168 168 139
Width: 3277
GlyphClass: 2
Flags: W
LayerCount: 2
Fore
SplineSet
2005 214 m 2,0,1
 2005 184 2005 184 1982.5 161.5 c 128,-1,2
 1960 139 1960 139 1930 139 c 2,3,-1
 555 139 l 2,4,5
 525 139 525 139 502.5 161.5 c 128,-1,6
 480 184 480 184 480 214 c 2,7,-1
 480 2447 l 2,8,9
 480 2477 480 2477 502.5 2499.5 c 128,-1,10
 525 2522 525 2522 555 2522 c 2,11,-1
 1930 2522 l 2,12,13
 1960 2522 1960 2522 1982.5 2499.5 c 128,-1,14
 2005 2477 2005 2477 2005 2447 c 2,15,-1
 2005 214 l 2,0,1
1854 289 m 1,16,-1
 1854 2371 l 1,17,-1
 631 2371 l 1,18,-1
 631 289 l 1,19,-1
 1854 289 l 1,16,-1
EndSplineSet
EndChar

StartChar: copyright
Encoding: 169 169 140
Width: 1608
GlyphClass: 2
Flags: W
LayerCount: 2
Fore
SplineSet
1489 684 m 0,0,1
 1489 397 1489 397 1288.5 195 c 128,-1,2
 1088 -7 1088 -7 805 -7 c 0,3,4
 523 -7 523 -7 320.5 196 c 128,-1,5
 118 399 118 399 118 682 c 0,6,7
 118 972 118 972 320 1172.5 c 128,-1,8
 522 1373 522 1373 815 1373 c 0,9,10
 1091 1373 1091 1373 1290 1169.5 c 128,-1,11
 1489 966 1489 966 1489 684 c 0,0,1
1419 682 m 0,12,13
 1419 940 1419 940 1240 1126 c 128,-1,14
 1061 1312 1061 1312 813 1312 c 0,15,16
 551 1312 551 1312 370 1129.5 c 128,-1,17
 189 947 189 947 189 682 c 0,18,19
 189 423 189 423 370 238.5 c 128,-1,20
 551 54 551 54 805 54 c 256,21,22
 1059 54 1059 54 1239 238 c 128,-1,23
 1419 422 1419 422 1419 682 c 0,12,13
1036 330 m 1,24,25
 957 307 957 307 868 307 c 0,26,27
 668 307 668 307 552 409.5 c 128,-1,28
 436 512 436 512 436 686 c 0,29,30
 436 851 436 851 552 955 c 128,-1,31
 668 1059 668 1059 854 1059 c 0,32,33
 954 1059 954 1059 1029 1030 c 1,34,-1
 1021 953 l 1,35,36
 943 991 943 991 860 991 c 0,37,38
 719 991 719 991 628 907 c 128,-1,39
 537 823 537 823 537 690 c 256,40,41
 537 557 537 557 631 469 c 128,-1,42
 725 381 725 381 866 381 c 0,43,44
 944 381 944 381 1030 411 c 1,45,-1
 1036 330 l 1,24,25
EndSplineSet
EndChar

StartChar: ordfeminine
Encoding: 170 170 141
Width: 3277
GlyphClass: 2
Flags: W
LayerCount: 2
Fore
SplineSet
2005 214 m 2,0,1
 2005 184 2005 184 1982.5 161.5 c 128,-1,2
 1960 139 1960 139 1930 139 c 2,3,-1
 555 139 l 2,4,5
 525 139 525 139 502.5 161.5 c 128,-1,6
 480 184 480 184 480 214 c 2,7,-1
 480 2447 l 2,8,9
 480 2477 480 2477 502.5 2499.5 c 128,-1,10
 525 2522 525 2522 555 2522 c 2,11,-1
 1930 2522 l 2,12,13
 1960 2522 1960 2522 1982.5 2499.5 c 128,-1,14
 2005 2477 2005 2477 2005 2447 c 2,15,-1
 2005 214 l 2,0,1
1854 289 m 1,16,-1
 1854 2371 l 1,17,-1
 631 2371 l 1,18,-1
 631 289 l 1,19,-1
 1854 289 l 1,16,-1
EndSplineSet
EndChar

StartChar: guillemotleft
Encoding: 171 171 142
Width: 3277
GlyphClass: 2
Flags: W
LayerCount: 2
Fore
SplineSet
2005 214 m 2,0,1
 2005 184 2005 184 1982.5 161.5 c 128,-1,2
 1960 139 1960 139 1930 139 c 2,3,-1
 555 139 l 2,4,5
 525 139 525 139 502.5 161.5 c 128,-1,6
 480 184 480 184 480 214 c 2,7,-1
 480 2447 l 2,8,9
 480 2477 480 2477 502.5 2499.5 c 128,-1,10
 525 2522 525 2522 555 2522 c 2,11,-1
 1930 2522 l 2,12,13
 1960 2522 1960 2522 1982.5 2499.5 c 128,-1,14
 2005 2477 2005 2477 2005 2447 c 2,15,-1
 2005 214 l 2,0,1
1854 289 m 1,16,-1
 1854 2371 l 1,17,-1
 631 2371 l 1,18,-1
 631 289 l 1,19,-1
 1854 289 l 1,16,-1
EndSplineSet
EndChar

StartChar: logicalnot
Encoding: 172 172 143
Width: 3277
GlyphClass: 2
Flags: W
LayerCount: 2
Fore
SplineSet
2005 214 m 2,0,1
 2005 184 2005 184 1982.5 161.5 c 128,-1,2
 1960 139 1960 139 1930 139 c 2,3,-1
 555 139 l 2,4,5
 525 139 525 139 502.5 161.5 c 128,-1,6
 480 184 480 184 480 214 c 2,7,-1
 480 2447 l 2,8,9
 480 2477 480 2477 502.5 2499.5 c 128,-1,10
 525 2522 525 2522 555 2522 c 2,11,-1
 1930 2522 l 2,12,13
 1960 2522 1960 2522 1982.5 2499.5 c 128,-1,14
 2005 2477 2005 2477 2005 2447 c 2,15,-1
 2005 214 l 2,0,1
1854 289 m 1,16,-1
 1854 2371 l 1,17,-1
 631 2371 l 1,18,-1
 631 289 l 1,19,-1
 1854 289 l 1,16,-1
EndSplineSet
EndChar

StartChar: glyph144
Encoding: 65573 -1 144
Width: 514
GlyphClass: 2
Flags: W
LayerCount: 2
Fore
SplineSet
494 448 m 1,0,-1
 20 448 l 1,1,-1
 20 562 l 1,2,-1
 494 562 l 1,3,-1
 494 448 l 1,0,-1
EndSplineSet
EndChar

StartChar: registered
Encoding: 174 174 145
Width: 1608
GlyphClass: 2
Flags: W
LayerCount: 2
Fore
SplineSet
1489 684 m 0,0,1
 1489 397 1489 397 1288.5 195 c 128,-1,2
 1088 -7 1088 -7 805 -7 c 0,3,4
 523 -7 523 -7 320.5 196 c 128,-1,5
 118 399 118 399 118 682 c 0,6,7
 118 972 118 972 320 1172.5 c 128,-1,8
 522 1373 522 1373 815 1373 c 0,9,10
 1091 1373 1091 1373 1290 1169.5 c 128,-1,11
 1489 966 1489 966 1489 684 c 0,0,1
1419 682 m 0,12,13
 1419 940 1419 940 1240 1126 c 128,-1,14
 1061 1312 1061 1312 813 1312 c 0,15,16
 551 1312 551 1312 370 1129.5 c 128,-1,17
 189 947 189 947 189 682 c 0,18,19
 189 423 189 423 370 238.5 c 128,-1,20
 551 54 551 54 805 54 c 256,21,22
 1059 54 1059 54 1239 238 c 128,-1,23
 1419 422 1419 422 1419 682 c 0,12,13
1117 313 m 1,24,-1
 1008 313 l 1,25,-1
 907 535 l 2,26,27
 874 608 874 608 842 630.5 c 128,-1,28
 810 653 810 653 735 653 c 2,29,-1
 656 653 l 1,30,-1
 656 313 l 1,31,-1
 563 313 l 1,32,-1
 563 1053 l 1,33,-1
 748 1053 l 2,34,35
 868 1053 868 1053 930 1034 c 0,36,37
 1057 994 1057 994 1057 862 c 0,38,39
 1057 734 1057 734 866 687 c 1,40,41
 953 641 953 641 986 575 c 2,42,-1
 1117 313 l 1,24,-1
960 854 m 0,43,44
 960 983 960 983 752 983 c 2,45,-1
 656 983 l 1,46,-1
 656 723 l 1,47,-1
 741 723 l 2,48,49
 960 723 960 723 960 854 c 0,43,44
EndSplineSet
EndChar

StartChar: overscore
Encoding: 175 175 146
Width: 3277
GlyphClass: 2
Flags: W
LayerCount: 2
Fore
SplineSet
2005 214 m 2,0,1
 2005 184 2005 184 1982.5 161.5 c 128,-1,2
 1960 139 1960 139 1930 139 c 2,3,-1
 555 139 l 2,4,5
 525 139 525 139 502.5 161.5 c 128,-1,6
 480 184 480 184 480 214 c 2,7,-1
 480 2447 l 2,8,9
 480 2477 480 2477 502.5 2499.5 c 128,-1,10
 525 2522 525 2522 555 2522 c 2,11,-1
 1930 2522 l 2,12,13
 1960 2522 1960 2522 1982.5 2499.5 c 128,-1,14
 2005 2477 2005 2477 2005 2447 c 2,15,-1
 2005 214 l 2,0,1
1854 289 m 1,16,-1
 1854 2371 l 1,17,-1
 631 2371 l 1,18,-1
 631 289 l 1,19,-1
 1854 289 l 1,16,-1
EndSplineSet
EndChar

StartChar: degree
Encoding: 176 176 147
Width: 3277
GlyphClass: 2
Flags: W
LayerCount: 2
Fore
SplineSet
2005 214 m 2,0,1
 2005 184 2005 184 1982.5 161.5 c 128,-1,2
 1960 139 1960 139 1930 139 c 2,3,-1
 555 139 l 2,4,5
 525 139 525 139 502.5 161.5 c 128,-1,6
 480 184 480 184 480 214 c 2,7,-1
 480 2447 l 2,8,9
 480 2477 480 2477 502.5 2499.5 c 128,-1,10
 525 2522 525 2522 555 2522 c 2,11,-1
 1930 2522 l 2,12,13
 1960 2522 1960 2522 1982.5 2499.5 c 128,-1,14
 2005 2477 2005 2477 2005 2447 c 2,15,-1
 2005 214 l 2,0,1
1854 289 m 1,16,-1
 1854 2371 l 1,17,-1
 631 2371 l 1,18,-1
 631 289 l 1,19,-1
 1854 289 l 1,16,-1
EndSplineSet
EndChar

StartChar: plusminus
Encoding: 177 177 148
Width: 1100
GlyphClass: 2
Flags: W
LayerCount: 2
Fore
SplineSet
1002 765 m 1,0,-1
 605 765 l 1,1,-1
 605 383 l 1,2,-1
 495 383 l 1,3,-1
 495 765 l 1,4,-1
 100 765 l 1,5,-1
 100 875 l 1,6,-1
 495 875 l 1,7,-1
 495 1256 l 1,8,-1
 605 1256 l 1,9,-1
 605 875 l 1,10,-1
 1002 875 l 1,11,-1
 1002 765 l 1,0,-1
1002 137 m 1,12,-1
 100 137 l 1,13,-1
 100 246 l 1,14,-1
 1002 246 l 1,15,-1
 1002 137 l 1,12,-1
EndSplineSet
EndChar

StartChar: twosuperior
Encoding: 178 178 149
Width: 508
GlyphClass: 2
Flags: W
LayerCount: 2
Fore
SplineSet
426 839 m 1,0,-1
 75 839 l 1,1,-1
 75 904 l 1,2,3
 348 1122 348 1122 348 1229 c 0,4,5
 348 1273 348 1273 310 1301 c 128,-1,6
 272 1329 272 1329 219 1329 c 0,7,8
 162 1329 162 1329 96 1295 c 1,9,-1
 90 1341 l 1,10,11
 166 1369 166 1369 233 1369 c 0,12,13
 316 1369 316 1369 365 1330 c 128,-1,14
 414 1291 414 1291 414 1229 c 0,15,16
 414 1149 414 1149 289 1024 c 0,17,18
 237 971 237 971 118 879 c 1,19,-1
 426 879 l 1,20,-1
 426 839 l 1,0,-1
EndSplineSet
EndChar

StartChar: threesuperior
Encoding: 179 179 150
Width: 508
GlyphClass: 2
Flags: W
LayerCount: 2
Fore
SplineSet
418 975 m 0,0,1
 418 912 418 912 366 873 c 0,2,3
 311 833 311 833 215 833 c 0,4,5
 142 833 142 833 76 852 c 1,6,-1
 78 899 l 1,7,8
 150 873 150 873 209 873 c 256,9,10
 268 873 268 873 310 902.5 c 128,-1,11
 352 932 352 932 352 981 c 0,12,13
 352 1091 352 1091 168 1091 c 2,14,-1
 153 1091 l 1,15,-1
 153 1133 l 1,16,-1
 164 1133 l 2,17,18
 350 1133 350 1133 350 1237 c 0,19,20
 350 1280 350 1280 309 1307 c 0,21,22
 272 1331 272 1331 219 1331 c 0,23,24
 162 1331 162 1331 97 1306 c 1,25,-1
 93 1350 l 1,26,27
 160 1371 160 1371 223 1371 c 0,28,29
 412 1371 412 1371 412 1239 c 0,30,31
 412 1166 412 1166 279 1112 c 1,32,33
 362 1078 362 1078 392 1046 c 0,34,35
 418 1019 418 1019 418 975 c 0,0,1
EndSplineSet
EndChar

StartChar: acute
Encoding: 180 180 151
Width: 1024
GlyphClass: 2
Flags: W
LayerCount: 2
Fore
SplineSet
726 1430 m 1,0,-1
 519 1189 l 1,1,-1
 433 1189 l 1,2,-1
 577 1430 l 1,3,-1
 726 1430 l 1,0,-1
EndSplineSet
EndChar

StartChar: mu1
Encoding: 181 181 152
Width: 1024
GlyphClass: 2
Flags: W
LayerCount: 2
Fore
SplineSet
920 20 m 1,0,-1
 776 20 l 1,1,-1
 776 248 l 1,2,3
 707 100 707 100 644 45 c 0,4,5
 588 -5 588 -5 504 -5 c 0,6,7
 429 -5 429 -5 375 34 c 0,8,9
 315 77 315 77 246 190 c 1,10,-1
 246 -326 l 1,11,-1
 102 -326 l 1,12,-1
 102 963 l 1,13,-1
 246 963 l 1,14,-1
 246 438 l 2,15,16
 246 242 246 242 326 166 c 0,17,18
 400 95 400 95 508 95 c 0,19,20
 657 95 657 95 734 231 c 0,21,22
 776 307 776 307 776 453 c 2,23,-1
 776 963 l 1,24,-1
 920 963 l 1,25,-1
 920 20 l 1,0,-1
EndSplineSet
EndChar

StartChar: paragraph
Encoding: 182 182 153
Width: 1100
GlyphClass: 2
Flags: W
LayerCount: 2
Fore
SplineSet
1008 1243 m 1,0,-1
 904 1243 l 1,1,-1
 904 -398 l 1,2,-1
 786 -398 l 1,3,-1
 786 1243 l 1,4,-1
 564 1243 l 1,5,-1
 564 -398 l 1,6,-1
 446 -398 l 1,7,-1
 446 628 l 1,8,9
 262 628 262 628 164.5 720.5 c 128,-1,10
 67 813 67 813 67 981 c 0,11,12
 67 1197 67 1197 219 1290 c 0,13,14
 312 1346 312 1346 483 1346 c 2,15,-1
 1008 1346 l 1,16,-1
 1008 1243 l 1,0,-1
EndSplineSet
EndChar

StartChar: middot
Encoding: 183 183 154
Width: 547
GlyphClass: 2
Flags: W
LayerCount: 2
Fore
SplineSet
363 415 m 1,0,-1
 184 415 l 1,1,-1
 184 594 l 1,2,-1
 363 594 l 1,3,-1
 363 415 l 1,0,-1
EndSplineSet
EndChar

StartChar: cedilla
Encoding: 184 184 155
Width: 1024
GlyphClass: 2
Flags: W
LayerCount: 2
Fore
SplineSet
701 -240 m 0,0,1
 701 -302 701 -302 642.5 -346 c 128,-1,2
 584 -390 584 -390 492 -390 c 0,3,4
 405 -390 405 -390 330 -359 c 1,5,-1
 347 -325 l 1,6,7
 406 -348 406 -348 471 -348 c 0,8,9
 524 -348 524 -348 561 -322 c 128,-1,10
 598 -296 598 -296 598 -252 c 0,11,12
 598 -210 598 -210 564 -183 c 128,-1,13
 530 -156 530 -156 483 -156 c 0,14,15
 466 -156 466 -156 418 -168 c 1,16,-1
 404 -155 l 1,17,-1
 488 -20 l 1,18,-1
 523 -20 l 1,19,-1
 450 -140 l 1,20,21
 542 -120 542 -120 565 -120 c 0,22,23
 627 -120 627 -120 664 -153.5 c 128,-1,24
 701 -187 701 -187 701 -240 c 0,0,1
EndSplineSet
EndChar

StartChar: onesuperior
Encoding: 185 185 156
Width: 508
GlyphClass: 2
Flags: W
LayerCount: 2
Fore
SplineSet
318 839 m 1,0,-1
 258 839 l 1,1,-1
 258 1318 l 1,2,3
 216 1277 216 1277 205 1269 c 2,4,-1
 155 1228 l 1,5,-1
 124 1261 l 1,6,-1
 255 1362 l 1,7,-1
 318 1362 l 1,8,-1
 318 839 l 1,0,-1
EndSplineSet
EndChar

StartChar: ordmasculine
Encoding: 186 186 157
Width: 834
GlyphClass: 2
Flags: W
LayerCount: 2
Fore
SplineSet
728 1067 m 0,0,1
 728 940 728 940 640 857 c 128,-1,2
 552 774 552 774 416 774 c 0,3,4
 281 774 281 774 193.5 858.5 c 128,-1,5
 106 943 106 943 106 1071 c 0,6,7
 106 1202 106 1202 193.5 1287.5 c 128,-1,8
 281 1373 281 1373 416 1373 c 0,9,10
 555 1373 555 1373 641.5 1288 c 128,-1,11
 728 1203 728 1203 728 1067 c 0,0,1
707 593 m 1,12,-1
 127 593 l 1,13,-1
 127 650 l 1,14,-1
 707 650 l 1,15,-1
 707 593 l 1,12,-1
628 1069 m 0,16,17
 628 1173 628 1173 569 1241.5 c 128,-1,18
 510 1310 510 1310 418 1310 c 0,19,20
 324 1310 324 1310 264.5 1242 c 128,-1,21
 205 1174 205 1174 205 1071 c 0,22,23
 205 970 205 970 264.5 903 c 128,-1,24
 324 836 324 836 418 836 c 0,25,26
 509 836 509 836 568.5 903 c 128,-1,27
 628 970 628 970 628 1069 c 0,16,17
EndSplineSet
EndChar

StartChar: guillemotright
Encoding: 187 187 158
Width: 1096
GlyphClass: 2
Flags: W
LayerCount: 2
Fore
SplineSet
961 506 m 1,0,-1
 694 120 l 1,1,-1
 565 120 l 1,2,-1
 812 506 l 1,3,-1
 571 883 l 1,4,-1
 700 883 l 1,5,-1
 961 506 l 1,0,-1
563 506 m 1,6,-1
 295 120 l 1,7,-1
 168 120 l 1,8,-1
 413 506 l 1,9,-1
 172 883 l 1,10,-1
 303 883 l 1,11,-1
 563 506 l 1,6,-1
EndSplineSet
EndChar

StartChar: onequarter
Encoding: 188 188 159
Width: 1765
GlyphClass: 2
Flags: W
LayerCount: 2
Fore
SplineSet
1686 192 m 1,0,-1
 1584 192 l 1,1,-1
 1584 20 l 1,2,-1
 1478 20 l 1,3,-1
 1478 192 l 1,4,-1
 1118 192 l 1,5,-1
 1118 281 l 1,6,-1
 1429 801 l 1,7,-1
 1584 801 l 1,8,-1
 1584 281 l 1,9,-1
 1686 281 l 1,10,-1
 1686 192 l 1,0,-1
1282 1412 m 1,11,-1
 555 -46 l 1,12,-1
 481 -46 l 1,13,-1
 1206 1412 l 1,14,-1
 1282 1412 l 1,11,-1
459 563 m 1,15,-1
 354 563 l 1,16,-1
 354 1222 l 1,17,-1
 234 1116 l 1,18,-1
 175 1187 l 1,19,-1
 362 1346 l 1,20,-1
 459 1346 l 1,21,-1
 459 563 l 1,15,-1
1490 742 m 1,22,23
 1437 647 1437 647 1298 405 c 1,24,-1
 1224 281 l 1,25,-1
 1478 281 l 1,26,-1
 1482 594 l 2,27,28
 1485 643 1485 643 1490 742 c 1,22,23
EndSplineSet
EndChar

StartChar: onehalf
Encoding: 189 189 160
Width: 1765
GlyphClass: 2
Flags: W
LayerCount: 2
Fore
SplineSet
1641 20 m 1,0,-1
 1153 20 l 1,1,-1
 1153 136 l 1,2,3
 1509 447 1509 447 1509 594 c 0,4,5
 1509 650 1509 650 1464 685 c 128,-1,6
 1419 720 1419 720 1356 720 c 0,7,8
 1276 720 1276 720 1182 668 c 1,9,-1
 1171 766 l 1,10,11
 1283 811 1283 811 1374 811 c 0,12,13
 1487 811 1487 811 1556 751.5 c 128,-1,14
 1625 692 1625 692 1625 598 c 0,15,16
 1625 424 1625 424 1264 109 c 1,17,-1
 1641 109 l 1,18,-1
 1641 20 l 1,0,-1
1282 1412 m 1,19,-1
 555 -46 l 1,20,-1
 481 -46 l 1,21,-1
 1206 1412 l 1,22,-1
 1282 1412 l 1,19,-1
459 563 m 1,23,-1
 354 563 l 1,24,-1
 354 1222 l 1,25,-1
 234 1116 l 1,26,-1
 175 1187 l 1,27,-1
 362 1346 l 1,28,-1
 459 1346 l 1,29,-1
 459 563 l 1,23,-1
EndSplineSet
EndChar

StartChar: threequarters
Encoding: 190 190 161
Width: 1765
GlyphClass: 2
Flags: W
LayerCount: 2
Fore
SplineSet
1686 192 m 1,0,-1
 1584 192 l 1,1,-1
 1584 20 l 1,2,-1
 1478 20 l 1,3,-1
 1478 192 l 1,4,-1
 1118 192 l 1,5,-1
 1118 281 l 1,6,-1
 1429 801 l 1,7,-1
 1584 801 l 1,8,-1
 1584 281 l 1,9,-1
 1686 281 l 1,10,-1
 1686 192 l 1,0,-1
1282 1412 m 1,11,-1
 555 -46 l 1,12,-1
 481 -46 l 1,13,-1
 1206 1412 l 1,14,-1
 1282 1412 l 1,11,-1
592 772 m 0,15,16
 592 673 592 673 517 612.5 c 128,-1,17
 442 552 442 552 311 552 c 0,18,19
 215 552 215 552 115 585 c 1,20,-1
 121 685 l 1,21,22
 225 642 225 642 303 642 c 0,23,24
 377 642 377 642 427 681 c 128,-1,25
 477 720 477 720 477 782 c 0,26,27
 477 927 477 927 252 927 c 0,28,29
 235 927 235 927 217 926 c 1,30,-1
 217 1016 l 1,31,-1
 242 1016 l 2,32,33
 475 1016 475 1016 475 1151 c 0,34,35
 475 1206 475 1206 429 1240 c 0,36,37
 385 1271 385 1271 319 1271 c 0,38,39
 238 1271 238 1271 145 1230 c 1,40,-1
 138 1323 l 1,41,42
 236 1356 236 1356 326 1356 c 0,43,44
 450 1356 450 1356 517 1301.5 c 128,-1,45
 584 1247 584 1247 584 1151 c 0,46,47
 584 1044 584 1044 436 973 c 1,48,49
 526 928 526 928 560 881 c 0,50,51
 592 838 592 838 592 772 c 0,15,16
1490 742 m 1,52,53
 1437 647 1437 647 1298 405 c 1,54,-1
 1224 281 l 1,55,-1
 1478 281 l 1,56,-1
 1482 594 l 2,57,58
 1485 643 1485 643 1490 742 c 1,52,53
EndSplineSet
EndChar

StartChar: questiondown
Encoding: 191 191 162
Width: 3277
GlyphClass: 2
Flags: W
LayerCount: 2
Fore
SplineSet
2005 214 m 2,0,1
 2005 184 2005 184 1982.5 161.5 c 128,-1,2
 1960 139 1960 139 1930 139 c 2,3,-1
 555 139 l 2,4,5
 525 139 525 139 502.5 161.5 c 128,-1,6
 480 184 480 184 480 214 c 2,7,-1
 480 2447 l 2,8,9
 480 2477 480 2477 502.5 2499.5 c 128,-1,10
 525 2522 525 2522 555 2522 c 2,11,-1
 1930 2522 l 2,12,13
 1960 2522 1960 2522 1982.5 2499.5 c 128,-1,14
 2005 2477 2005 2477 2005 2447 c 2,15,-1
 2005 214 l 2,0,1
1854 289 m 1,16,-1
 1854 2371 l 1,17,-1
 631 2371 l 1,18,-1
 631 289 l 1,19,-1
 1854 289 l 1,16,-1
EndSplineSet
EndChar

StartChar: Agrave
Encoding: 192 192 163
Width: 3277
GlyphClass: 2
Flags: W
LayerCount: 2
Fore
SplineSet
2005 214 m 2,0,1
 2005 184 2005 184 1982.5 161.5 c 128,-1,2
 1960 139 1960 139 1930 139 c 2,3,-1
 555 139 l 2,4,5
 525 139 525 139 502.5 161.5 c 128,-1,6
 480 184 480 184 480 214 c 2,7,-1
 480 2447 l 2,8,9
 480 2477 480 2477 502.5 2499.5 c 128,-1,10
 525 2522 525 2522 555 2522 c 2,11,-1
 1930 2522 l 2,12,13
 1960 2522 1960 2522 1982.5 2499.5 c 128,-1,14
 2005 2477 2005 2477 2005 2447 c 2,15,-1
 2005 214 l 2,0,1
1854 289 m 1,16,-1
 1854 2371 l 1,17,-1
 631 2371 l 1,18,-1
 631 289 l 1,19,-1
 1854 289 l 1,16,-1
EndSplineSet
EndChar

StartChar: Aacute
Encoding: 193 193 164
Width: 3277
GlyphClass: 2
Flags: W
LayerCount: 2
Fore
SplineSet
2005 214 m 2,0,1
 2005 184 2005 184 1982.5 161.5 c 128,-1,2
 1960 139 1960 139 1930 139 c 2,3,-1
 555 139 l 2,4,5
 525 139 525 139 502.5 161.5 c 128,-1,6
 480 184 480 184 480 214 c 2,7,-1
 480 2447 l 2,8,9
 480 2477 480 2477 502.5 2499.5 c 128,-1,10
 525 2522 525 2522 555 2522 c 2,11,-1
 1930 2522 l 2,12,13
 1960 2522 1960 2522 1982.5 2499.5 c 128,-1,14
 2005 2477 2005 2477 2005 2447 c 2,15,-1
 2005 214 l 2,0,1
1854 289 m 1,16,-1
 1854 2371 l 1,17,-1
 631 2371 l 1,18,-1
 631 289 l 1,19,-1
 1854 289 l 1,16,-1
EndSplineSet
EndChar

StartChar: Acircumflex
Encoding: 194 194 165
Width: 3277
GlyphClass: 2
Flags: W
LayerCount: 2
Fore
SplineSet
2005 214 m 2,0,1
 2005 184 2005 184 1982.5 161.5 c 128,-1,2
 1960 139 1960 139 1930 139 c 2,3,-1
 555 139 l 2,4,5
 525 139 525 139 502.5 161.5 c 128,-1,6
 480 184 480 184 480 214 c 2,7,-1
 480 2447 l 2,8,9
 480 2477 480 2477 502.5 2499.5 c 128,-1,10
 525 2522 525 2522 555 2522 c 2,11,-1
 1930 2522 l 2,12,13
 1960 2522 1960 2522 1982.5 2499.5 c 128,-1,14
 2005 2477 2005 2477 2005 2447 c 2,15,-1
 2005 214 l 2,0,1
1854 289 m 1,16,-1
 1854 2371 l 1,17,-1
 631 2371 l 1,18,-1
 631 289 l 1,19,-1
 1854 289 l 1,16,-1
EndSplineSet
EndChar

StartChar: Atilde
Encoding: 195 195 166
Width: 3277
GlyphClass: 2
Flags: W
LayerCount: 2
Fore
SplineSet
2005 214 m 2,0,1
 2005 184 2005 184 1982.5 161.5 c 128,-1,2
 1960 139 1960 139 1930 139 c 2,3,-1
 555 139 l 2,4,5
 525 139 525 139 502.5 161.5 c 128,-1,6
 480 184 480 184 480 214 c 2,7,-1
 480 2447 l 2,8,9
 480 2477 480 2477 502.5 2499.5 c 128,-1,10
 525 2522 525 2522 555 2522 c 2,11,-1
 1930 2522 l 2,12,13
 1960 2522 1960 2522 1982.5 2499.5 c 128,-1,14
 2005 2477 2005 2477 2005 2447 c 2,15,-1
 2005 214 l 2,0,1
1854 289 m 1,16,-1
 1854 2371 l 1,17,-1
 631 2371 l 1,18,-1
 631 289 l 1,19,-1
 1854 289 l 1,16,-1
EndSplineSet
EndChar

StartChar: Adieresis
Encoding: 196 196 167
Width: 3277
GlyphClass: 2
Flags: W
LayerCount: 2
Fore
SplineSet
2005 214 m 2,0,1
 2005 184 2005 184 1982.5 161.5 c 128,-1,2
 1960 139 1960 139 1930 139 c 2,3,-1
 555 139 l 2,4,5
 525 139 525 139 502.5 161.5 c 128,-1,6
 480 184 480 184 480 214 c 2,7,-1
 480 2447 l 2,8,9
 480 2477 480 2477 502.5 2499.5 c 128,-1,10
 525 2522 525 2522 555 2522 c 2,11,-1
 1930 2522 l 2,12,13
 1960 2522 1960 2522 1982.5 2499.5 c 128,-1,14
 2005 2477 2005 2477 2005 2447 c 2,15,-1
 2005 214 l 2,0,1
1854 289 m 1,16,-1
 1854 2371 l 1,17,-1
 631 2371 l 1,18,-1
 631 289 l 1,19,-1
 1854 289 l 1,16,-1
EndSplineSet
EndChar

StartChar: Aring
Encoding: 197 197 168
Width: 3277
GlyphClass: 2
Flags: W
LayerCount: 2
Fore
SplineSet
2005 214 m 2,0,1
 2005 184 2005 184 1982.5 161.5 c 128,-1,2
 1960 139 1960 139 1930 139 c 2,3,-1
 555 139 l 2,4,5
 525 139 525 139 502.5 161.5 c 128,-1,6
 480 184 480 184 480 214 c 2,7,-1
 480 2447 l 2,8,9
 480 2477 480 2477 502.5 2499.5 c 128,-1,10
 525 2522 525 2522 555 2522 c 2,11,-1
 1930 2522 l 2,12,13
 1960 2522 1960 2522 1982.5 2499.5 c 128,-1,14
 2005 2477 2005 2477 2005 2447 c 2,15,-1
 2005 214 l 2,0,1
1854 289 m 1,16,-1
 1854 2371 l 1,17,-1
 631 2371 l 1,18,-1
 631 289 l 1,19,-1
 1854 289 l 1,16,-1
EndSplineSet
EndChar

StartChar: AE
Encoding: 198 198 169
Width: 3277
GlyphClass: 2
Flags: W
LayerCount: 2
Fore
SplineSet
2005 214 m 2,0,1
 2005 184 2005 184 1982.5 161.5 c 128,-1,2
 1960 139 1960 139 1930 139 c 2,3,-1
 555 139 l 2,4,5
 525 139 525 139 502.5 161.5 c 128,-1,6
 480 184 480 184 480 214 c 2,7,-1
 480 2447 l 2,8,9
 480 2477 480 2477 502.5 2499.5 c 128,-1,10
 525 2522 525 2522 555 2522 c 2,11,-1
 1930 2522 l 2,12,13
 1960 2522 1960 2522 1982.5 2499.5 c 128,-1,14
 2005 2477 2005 2477 2005 2447 c 2,15,-1
 2005 214 l 2,0,1
1854 289 m 1,16,-1
 1854 2371 l 1,17,-1
 631 2371 l 1,18,-1
 631 289 l 1,19,-1
 1854 289 l 1,16,-1
EndSplineSet
EndChar

StartChar: Ccedilla
Encoding: 199 199 170
Width: 3277
GlyphClass: 2
Flags: W
LayerCount: 2
Fore
SplineSet
2005 214 m 2,0,1
 2005 184 2005 184 1982.5 161.5 c 128,-1,2
 1960 139 1960 139 1930 139 c 2,3,-1
 555 139 l 2,4,5
 525 139 525 139 502.5 161.5 c 128,-1,6
 480 184 480 184 480 214 c 2,7,-1
 480 2447 l 2,8,9
 480 2477 480 2477 502.5 2499.5 c 128,-1,10
 525 2522 525 2522 555 2522 c 2,11,-1
 1930 2522 l 2,12,13
 1960 2522 1960 2522 1982.5 2499.5 c 128,-1,14
 2005 2477 2005 2477 2005 2447 c 2,15,-1
 2005 214 l 2,0,1
1854 289 m 1,16,-1
 1854 2371 l 1,17,-1
 631 2371 l 1,18,-1
 631 289 l 1,19,-1
 1854 289 l 1,16,-1
EndSplineSet
EndChar

StartChar: Egrave
Encoding: 200 200 171
Width: 3277
GlyphClass: 2
Flags: W
LayerCount: 2
Fore
SplineSet
2005 214 m 2,0,1
 2005 184 2005 184 1982.5 161.5 c 128,-1,2
 1960 139 1960 139 1930 139 c 2,3,-1
 555 139 l 2,4,5
 525 139 525 139 502.5 161.5 c 128,-1,6
 480 184 480 184 480 214 c 2,7,-1
 480 2447 l 2,8,9
 480 2477 480 2477 502.5 2499.5 c 128,-1,10
 525 2522 525 2522 555 2522 c 2,11,-1
 1930 2522 l 2,12,13
 1960 2522 1960 2522 1982.5 2499.5 c 128,-1,14
 2005 2477 2005 2477 2005 2447 c 2,15,-1
 2005 214 l 2,0,1
1854 289 m 1,16,-1
 1854 2371 l 1,17,-1
 631 2371 l 1,18,-1
 631 289 l 1,19,-1
 1854 289 l 1,16,-1
EndSplineSet
EndChar

StartChar: Eacute
Encoding: 201 201 172
Width: 3277
GlyphClass: 2
Flags: W
LayerCount: 2
Fore
SplineSet
2005 214 m 2,0,1
 2005 184 2005 184 1982.5 161.5 c 128,-1,2
 1960 139 1960 139 1930 139 c 2,3,-1
 555 139 l 2,4,5
 525 139 525 139 502.5 161.5 c 128,-1,6
 480 184 480 184 480 214 c 2,7,-1
 480 2447 l 2,8,9
 480 2477 480 2477 502.5 2499.5 c 128,-1,10
 525 2522 525 2522 555 2522 c 2,11,-1
 1930 2522 l 2,12,13
 1960 2522 1960 2522 1982.5 2499.5 c 128,-1,14
 2005 2477 2005 2477 2005 2447 c 2,15,-1
 2005 214 l 2,0,1
1854 289 m 1,16,-1
 1854 2371 l 1,17,-1
 631 2371 l 1,18,-1
 631 289 l 1,19,-1
 1854 289 l 1,16,-1
EndSplineSet
EndChar

StartChar: Ecircumflex
Encoding: 160 160 173
Width: 3277
GlyphClass: 2
Flags: W
LayerCount: 2
Fore
SplineSet
2005 214 m 2,0,1
 2005 184 2005 184 1982.5 161.5 c 128,-1,2
 1960 139 1960 139 1930 139 c 2,3,-1
 555 139 l 2,4,5
 525 139 525 139 502.5 161.5 c 128,-1,6
 480 184 480 184 480 214 c 2,7,-1
 480 2447 l 2,8,9
 480 2477 480 2477 502.5 2499.5 c 128,-1,10
 525 2522 525 2522 555 2522 c 2,11,-1
 1930 2522 l 2,12,13
 1960 2522 1960 2522 1982.5 2499.5 c 128,-1,14
 2005 2477 2005 2477 2005 2447 c 2,15,-1
 2005 214 l 2,0,1
1854 289 m 1,16,-1
 1854 2371 l 1,17,-1
 631 2371 l 1,18,-1
 631 289 l 1,19,-1
 1854 289 l 1,16,-1
EndSplineSet
EndChar

StartChar: Edieresis
Encoding: 203 203 174
Width: 3277
GlyphClass: 2
Flags: W
LayerCount: 2
Fore
SplineSet
2005 214 m 2,0,1
 2005 184 2005 184 1982.5 161.5 c 128,-1,2
 1960 139 1960 139 1930 139 c 2,3,-1
 555 139 l 2,4,5
 525 139 525 139 502.5 161.5 c 128,-1,6
 480 184 480 184 480 214 c 2,7,-1
 480 2447 l 2,8,9
 480 2477 480 2477 502.5 2499.5 c 128,-1,10
 525 2522 525 2522 555 2522 c 2,11,-1
 1930 2522 l 2,12,13
 1960 2522 1960 2522 1982.5 2499.5 c 128,-1,14
 2005 2477 2005 2477 2005 2447 c 2,15,-1
 2005 214 l 2,0,1
1854 289 m 1,16,-1
 1854 2371 l 1,17,-1
 631 2371 l 1,18,-1
 631 289 l 1,19,-1
 1854 289 l 1,16,-1
EndSplineSet
EndChar

StartChar: Igrave
Encoding: 204 204 175
Width: 3277
GlyphClass: 2
Flags: W
LayerCount: 2
Fore
SplineSet
2005 214 m 2,0,1
 2005 184 2005 184 1982.5 161.5 c 128,-1,2
 1960 139 1960 139 1930 139 c 2,3,-1
 555 139 l 2,4,5
 525 139 525 139 502.5 161.5 c 128,-1,6
 480 184 480 184 480 214 c 2,7,-1
 480 2447 l 2,8,9
 480 2477 480 2477 502.5 2499.5 c 128,-1,10
 525 2522 525 2522 555 2522 c 2,11,-1
 1930 2522 l 2,12,13
 1960 2522 1960 2522 1982.5 2499.5 c 128,-1,14
 2005 2477 2005 2477 2005 2447 c 2,15,-1
 2005 214 l 2,0,1
1854 289 m 1,16,-1
 1854 2371 l 1,17,-1
 631 2371 l 1,18,-1
 631 289 l 1,19,-1
 1854 289 l 1,16,-1
EndSplineSet
EndChar

StartChar: Iacute
Encoding: 205 205 176
Width: 3277
GlyphClass: 2
Flags: W
LayerCount: 2
Fore
SplineSet
2005 214 m 2,0,1
 2005 184 2005 184 1982.5 161.5 c 128,-1,2
 1960 139 1960 139 1930 139 c 2,3,-1
 555 139 l 2,4,5
 525 139 525 139 502.5 161.5 c 128,-1,6
 480 184 480 184 480 214 c 2,7,-1
 480 2447 l 2,8,9
 480 2477 480 2477 502.5 2499.5 c 128,-1,10
 525 2522 525 2522 555 2522 c 2,11,-1
 1930 2522 l 2,12,13
 1960 2522 1960 2522 1982.5 2499.5 c 128,-1,14
 2005 2477 2005 2477 2005 2447 c 2,15,-1
 2005 214 l 2,0,1
1854 289 m 1,16,-1
 1854 2371 l 1,17,-1
 631 2371 l 1,18,-1
 631 289 l 1,19,-1
 1854 289 l 1,16,-1
EndSplineSet
EndChar

StartChar: Icircumflex
Encoding: 206 206 177
Width: 3277
GlyphClass: 2
Flags: W
LayerCount: 2
Fore
SplineSet
2005 214 m 2,0,1
 2005 184 2005 184 1982.5 161.5 c 128,-1,2
 1960 139 1960 139 1930 139 c 2,3,-1
 555 139 l 2,4,5
 525 139 525 139 502.5 161.5 c 128,-1,6
 480 184 480 184 480 214 c 2,7,-1
 480 2447 l 2,8,9
 480 2477 480 2477 502.5 2499.5 c 128,-1,10
 525 2522 525 2522 555 2522 c 2,11,-1
 1930 2522 l 2,12,13
 1960 2522 1960 2522 1982.5 2499.5 c 128,-1,14
 2005 2477 2005 2477 2005 2447 c 2,15,-1
 2005 214 l 2,0,1
1854 289 m 1,16,-1
 1854 2371 l 1,17,-1
 631 2371 l 1,18,-1
 631 289 l 1,19,-1
 1854 289 l 1,16,-1
EndSplineSet
EndChar

StartChar: Idieresis
Encoding: 207 207 178
Width: 3277
GlyphClass: 2
Flags: W
LayerCount: 2
Fore
SplineSet
2005 214 m 2,0,1
 2005 184 2005 184 1982.5 161.5 c 128,-1,2
 1960 139 1960 139 1930 139 c 2,3,-1
 555 139 l 2,4,5
 525 139 525 139 502.5 161.5 c 128,-1,6
 480 184 480 184 480 214 c 2,7,-1
 480 2447 l 2,8,9
 480 2477 480 2477 502.5 2499.5 c 128,-1,10
 525 2522 525 2522 555 2522 c 2,11,-1
 1930 2522 l 2,12,13
 1960 2522 1960 2522 1982.5 2499.5 c 128,-1,14
 2005 2477 2005 2477 2005 2447 c 2,15,-1
 2005 214 l 2,0,1
1854 289 m 1,16,-1
 1854 2371 l 1,17,-1
 631 2371 l 1,18,-1
 631 289 l 1,19,-1
 1854 289 l 1,16,-1
EndSplineSet
EndChar

StartChar: Eth
Encoding: 208 208 179
Width: 3277
GlyphClass: 2
Flags: W
LayerCount: 2
Fore
SplineSet
2005 214 m 2,0,1
 2005 184 2005 184 1982.5 161.5 c 128,-1,2
 1960 139 1960 139 1930 139 c 2,3,-1
 555 139 l 2,4,5
 525 139 525 139 502.5 161.5 c 128,-1,6
 480 184 480 184 480 214 c 2,7,-1
 480 2447 l 2,8,9
 480 2477 480 2477 502.5 2499.5 c 128,-1,10
 525 2522 525 2522 555 2522 c 2,11,-1
 1930 2522 l 2,12,13
 1960 2522 1960 2522 1982.5 2499.5 c 128,-1,14
 2005 2477 2005 2477 2005 2447 c 2,15,-1
 2005 214 l 2,0,1
1854 289 m 1,16,-1
 1854 2371 l 1,17,-1
 631 2371 l 1,18,-1
 631 289 l 1,19,-1
 1854 289 l 1,16,-1
EndSplineSet
EndChar

StartChar: Ntilde
Encoding: 209 209 180
Width: 3277
GlyphClass: 2
Flags: W
LayerCount: 2
Fore
SplineSet
2005 214 m 2,0,1
 2005 184 2005 184 1982.5 161.5 c 128,-1,2
 1960 139 1960 139 1930 139 c 2,3,-1
 555 139 l 2,4,5
 525 139 525 139 502.5 161.5 c 128,-1,6
 480 184 480 184 480 214 c 2,7,-1
 480 2447 l 2,8,9
 480 2477 480 2477 502.5 2499.5 c 128,-1,10
 525 2522 525 2522 555 2522 c 2,11,-1
 1930 2522 l 2,12,13
 1960 2522 1960 2522 1982.5 2499.5 c 128,-1,14
 2005 2477 2005 2477 2005 2447 c 2,15,-1
 2005 214 l 2,0,1
1854 289 m 1,16,-1
 1854 2371 l 1,17,-1
 631 2371 l 1,18,-1
 631 289 l 1,19,-1
 1854 289 l 1,16,-1
EndSplineSet
EndChar

StartChar: Ograve
Encoding: 210 210 181
Width: 3277
GlyphClass: 2
Flags: W
LayerCount: 2
Fore
SplineSet
2005 214 m 2,0,1
 2005 184 2005 184 1982.5 161.5 c 128,-1,2
 1960 139 1960 139 1930 139 c 2,3,-1
 555 139 l 2,4,5
 525 139 525 139 502.5 161.5 c 128,-1,6
 480 184 480 184 480 214 c 2,7,-1
 480 2447 l 2,8,9
 480 2477 480 2477 502.5 2499.5 c 128,-1,10
 525 2522 525 2522 555 2522 c 2,11,-1
 1930 2522 l 2,12,13
 1960 2522 1960 2522 1982.5 2499.5 c 128,-1,14
 2005 2477 2005 2477 2005 2447 c 2,15,-1
 2005 214 l 2,0,1
1854 289 m 1,16,-1
 1854 2371 l 1,17,-1
 631 2371 l 1,18,-1
 631 289 l 1,19,-1
 1854 289 l 1,16,-1
EndSplineSet
EndChar

StartChar: Oacute
Encoding: 211 211 182
Width: 3277
GlyphClass: 2
Flags: W
LayerCount: 2
Fore
SplineSet
2005 214 m 2,0,1
 2005 184 2005 184 1982.5 161.5 c 128,-1,2
 1960 139 1960 139 1930 139 c 2,3,-1
 555 139 l 2,4,5
 525 139 525 139 502.5 161.5 c 128,-1,6
 480 184 480 184 480 214 c 2,7,-1
 480 2447 l 2,8,9
 480 2477 480 2477 502.5 2499.5 c 128,-1,10
 525 2522 525 2522 555 2522 c 2,11,-1
 1930 2522 l 2,12,13
 1960 2522 1960 2522 1982.5 2499.5 c 128,-1,14
 2005 2477 2005 2477 2005 2447 c 2,15,-1
 2005 214 l 2,0,1
1854 289 m 1,16,-1
 1854 2371 l 1,17,-1
 631 2371 l 1,18,-1
 631 289 l 1,19,-1
 1854 289 l 1,16,-1
EndSplineSet
EndChar

StartChar: Ocircumflex
Encoding: 212 212 183
Width: 3277
GlyphClass: 2
Flags: W
LayerCount: 2
Fore
SplineSet
2005 214 m 2,0,1
 2005 184 2005 184 1982.5 161.5 c 128,-1,2
 1960 139 1960 139 1930 139 c 2,3,-1
 555 139 l 2,4,5
 525 139 525 139 502.5 161.5 c 128,-1,6
 480 184 480 184 480 214 c 2,7,-1
 480 2447 l 2,8,9
 480 2477 480 2477 502.5 2499.5 c 128,-1,10
 525 2522 525 2522 555 2522 c 2,11,-1
 1930 2522 l 2,12,13
 1960 2522 1960 2522 1982.5 2499.5 c 128,-1,14
 2005 2477 2005 2477 2005 2447 c 2,15,-1
 2005 214 l 2,0,1
1854 289 m 1,16,-1
 1854 2371 l 1,17,-1
 631 2371 l 1,18,-1
 631 289 l 1,19,-1
 1854 289 l 1,16,-1
EndSplineSet
EndChar

StartChar: Otilde
Encoding: 213 213 184
Width: 3277
GlyphClass: 2
Flags: W
LayerCount: 2
Fore
SplineSet
2005 214 m 2,0,1
 2005 184 2005 184 1982.5 161.5 c 128,-1,2
 1960 139 1960 139 1930 139 c 2,3,-1
 555 139 l 2,4,5
 525 139 525 139 502.5 161.5 c 128,-1,6
 480 184 480 184 480 214 c 2,7,-1
 480 2447 l 2,8,9
 480 2477 480 2477 502.5 2499.5 c 128,-1,10
 525 2522 525 2522 555 2522 c 2,11,-1
 1930 2522 l 2,12,13
 1960 2522 1960 2522 1982.5 2499.5 c 128,-1,14
 2005 2477 2005 2477 2005 2447 c 2,15,-1
 2005 214 l 2,0,1
1854 289 m 1,16,-1
 1854 2371 l 1,17,-1
 631 2371 l 1,18,-1
 631 289 l 1,19,-1
 1854 289 l 1,16,-1
EndSplineSet
EndChar

StartChar: Odieresis
Encoding: 214 214 185
Width: 3277
GlyphClass: 2
Flags: W
LayerCount: 2
Fore
SplineSet
2005 214 m 2,0,1
 2005 184 2005 184 1982.5 161.5 c 128,-1,2
 1960 139 1960 139 1930 139 c 2,3,-1
 555 139 l 2,4,5
 525 139 525 139 502.5 161.5 c 128,-1,6
 480 184 480 184 480 214 c 2,7,-1
 480 2447 l 2,8,9
 480 2477 480 2477 502.5 2499.5 c 128,-1,10
 525 2522 525 2522 555 2522 c 2,11,-1
 1930 2522 l 2,12,13
 1960 2522 1960 2522 1982.5 2499.5 c 128,-1,14
 2005 2477 2005 2477 2005 2447 c 2,15,-1
 2005 214 l 2,0,1
1854 289 m 1,16,-1
 1854 2371 l 1,17,-1
 631 2371 l 1,18,-1
 631 289 l 1,19,-1
 1854 289 l 1,16,-1
EndSplineSet
EndChar

StartChar: multiply
Encoding: 215 215 186
Width: 3277
GlyphClass: 2
Flags: W
LayerCount: 2
Fore
SplineSet
2005 214 m 2,0,1
 2005 184 2005 184 1982.5 161.5 c 128,-1,2
 1960 139 1960 139 1930 139 c 2,3,-1
 555 139 l 2,4,5
 525 139 525 139 502.5 161.5 c 128,-1,6
 480 184 480 184 480 214 c 2,7,-1
 480 2447 l 2,8,9
 480 2477 480 2477 502.5 2499.5 c 128,-1,10
 525 2522 525 2522 555 2522 c 2,11,-1
 1930 2522 l 2,12,13
 1960 2522 1960 2522 1982.5 2499.5 c 128,-1,14
 2005 2477 2005 2477 2005 2447 c 2,15,-1
 2005 214 l 2,0,1
1854 289 m 1,16,-1
 1854 2371 l 1,17,-1
 631 2371 l 1,18,-1
 631 289 l 1,19,-1
 1854 289 l 1,16,-1
EndSplineSet
EndChar

StartChar: Oslash
Encoding: 216 216 187
Width: 3277
GlyphClass: 2
Flags: W
LayerCount: 2
Fore
SplineSet
2005 214 m 2,0,1
 2005 184 2005 184 1982.5 161.5 c 128,-1,2
 1960 139 1960 139 1930 139 c 2,3,-1
 555 139 l 2,4,5
 525 139 525 139 502.5 161.5 c 128,-1,6
 480 184 480 184 480 214 c 2,7,-1
 480 2447 l 2,8,9
 480 2477 480 2477 502.5 2499.5 c 128,-1,10
 525 2522 525 2522 555 2522 c 2,11,-1
 1930 2522 l 2,12,13
 1960 2522 1960 2522 1982.5 2499.5 c 128,-1,14
 2005 2477 2005 2477 2005 2447 c 2,15,-1
 2005 214 l 2,0,1
1854 289 m 1,16,-1
 1854 2371 l 1,17,-1
 631 2371 l 1,18,-1
 631 289 l 1,19,-1
 1854 289 l 1,16,-1
EndSplineSet
EndChar

StartChar: Ugrave
Encoding: 217 217 188
Width: 3277
GlyphClass: 2
Flags: W
LayerCount: 2
Fore
SplineSet
2005 214 m 2,0,1
 2005 184 2005 184 1982.5 161.5 c 128,-1,2
 1960 139 1960 139 1930 139 c 2,3,-1
 555 139 l 2,4,5
 525 139 525 139 502.5 161.5 c 128,-1,6
 480 184 480 184 480 214 c 2,7,-1
 480 2447 l 2,8,9
 480 2477 480 2477 502.5 2499.5 c 128,-1,10
 525 2522 525 2522 555 2522 c 2,11,-1
 1930 2522 l 2,12,13
 1960 2522 1960 2522 1982.5 2499.5 c 128,-1,14
 2005 2477 2005 2477 2005 2447 c 2,15,-1
 2005 214 l 2,0,1
1854 289 m 1,16,-1
 1854 2371 l 1,17,-1
 631 2371 l 1,18,-1
 631 289 l 1,19,-1
 1854 289 l 1,16,-1
EndSplineSet
EndChar

StartChar: Uacute
Encoding: 218 218 189
Width: 3277
GlyphClass: 2
Flags: W
LayerCount: 2
Fore
SplineSet
2005 214 m 2,0,1
 2005 184 2005 184 1982.5 161.5 c 128,-1,2
 1960 139 1960 139 1930 139 c 2,3,-1
 555 139 l 2,4,5
 525 139 525 139 502.5 161.5 c 128,-1,6
 480 184 480 184 480 214 c 2,7,-1
 480 2447 l 2,8,9
 480 2477 480 2477 502.5 2499.5 c 128,-1,10
 525 2522 525 2522 555 2522 c 2,11,-1
 1930 2522 l 2,12,13
 1960 2522 1960 2522 1982.5 2499.5 c 128,-1,14
 2005 2477 2005 2477 2005 2447 c 2,15,-1
 2005 214 l 2,0,1
1854 289 m 1,16,-1
 1854 2371 l 1,17,-1
 631 2371 l 1,18,-1
 631 289 l 1,19,-1
 1854 289 l 1,16,-1
EndSplineSet
EndChar

StartChar: Ucircumflex
Encoding: 219 219 190
Width: 3277
GlyphClass: 2
Flags: W
LayerCount: 2
Fore
SplineSet
2005 214 m 2,0,1
 2005 184 2005 184 1982.5 161.5 c 128,-1,2
 1960 139 1960 139 1930 139 c 2,3,-1
 555 139 l 2,4,5
 525 139 525 139 502.5 161.5 c 128,-1,6
 480 184 480 184 480 214 c 2,7,-1
 480 2447 l 2,8,9
 480 2477 480 2477 502.5 2499.5 c 128,-1,10
 525 2522 525 2522 555 2522 c 2,11,-1
 1930 2522 l 2,12,13
 1960 2522 1960 2522 1982.5 2499.5 c 128,-1,14
 2005 2477 2005 2477 2005 2447 c 2,15,-1
 2005 214 l 2,0,1
1854 289 m 1,16,-1
 1854 2371 l 1,17,-1
 631 2371 l 1,18,-1
 631 289 l 1,19,-1
 1854 289 l 1,16,-1
EndSplineSet
EndChar

StartChar: Udieresis
Encoding: 220 220 191
Width: 3277
GlyphClass: 2
Flags: W
LayerCount: 2
Fore
SplineSet
2005 214 m 2,0,1
 2005 184 2005 184 1982.5 161.5 c 128,-1,2
 1960 139 1960 139 1930 139 c 2,3,-1
 555 139 l 2,4,5
 525 139 525 139 502.5 161.5 c 128,-1,6
 480 184 480 184 480 214 c 2,7,-1
 480 2447 l 2,8,9
 480 2477 480 2477 502.5 2499.5 c 128,-1,10
 525 2522 525 2522 555 2522 c 2,11,-1
 1930 2522 l 2,12,13
 1960 2522 1960 2522 1982.5 2499.5 c 128,-1,14
 2005 2477 2005 2477 2005 2447 c 2,15,-1
 2005 214 l 2,0,1
1854 289 m 1,16,-1
 1854 2371 l 1,17,-1
 631 2371 l 1,18,-1
 631 289 l 1,19,-1
 1854 289 l 1,16,-1
EndSplineSet
EndChar

StartChar: Yacute
Encoding: 221 221 192
Width: 3277
GlyphClass: 2
Flags: W
LayerCount: 2
Fore
SplineSet
2005 214 m 2,0,1
 2005 184 2005 184 1982.5 161.5 c 128,-1,2
 1960 139 1960 139 1930 139 c 2,3,-1
 555 139 l 2,4,5
 525 139 525 139 502.5 161.5 c 128,-1,6
 480 184 480 184 480 214 c 2,7,-1
 480 2447 l 2,8,9
 480 2477 480 2477 502.5 2499.5 c 128,-1,10
 525 2522 525 2522 555 2522 c 2,11,-1
 1930 2522 l 2,12,13
 1960 2522 1960 2522 1982.5 2499.5 c 128,-1,14
 2005 2477 2005 2477 2005 2447 c 2,15,-1
 2005 214 l 2,0,1
1854 289 m 1,16,-1
 1854 2371 l 1,17,-1
 631 2371 l 1,18,-1
 631 289 l 1,19,-1
 1854 289 l 1,16,-1
EndSplineSet
EndChar

StartChar: Thorn
Encoding: 222 222 193
Width: 3277
GlyphClass: 2
Flags: W
LayerCount: 2
Fore
SplineSet
2005 214 m 2,0,1
 2005 184 2005 184 1982.5 161.5 c 128,-1,2
 1960 139 1960 139 1930 139 c 2,3,-1
 555 139 l 2,4,5
 525 139 525 139 502.5 161.5 c 128,-1,6
 480 184 480 184 480 214 c 2,7,-1
 480 2447 l 2,8,9
 480 2477 480 2477 502.5 2499.5 c 128,-1,10
 525 2522 525 2522 555 2522 c 2,11,-1
 1930 2522 l 2,12,13
 1960 2522 1960 2522 1982.5 2499.5 c 128,-1,14
 2005 2477 2005 2477 2005 2447 c 2,15,-1
 2005 214 l 2,0,1
1854 289 m 1,16,-1
 1854 2371 l 1,17,-1
 631 2371 l 1,18,-1
 631 289 l 1,19,-1
 1854 289 l 1,16,-1
EndSplineSet
EndChar

StartChar: germandbls
Encoding: 223 223 194
Width: 3277
GlyphClass: 2
Flags: W
LayerCount: 2
Fore
SplineSet
2005 214 m 2,0,1
 2005 184 2005 184 1982.5 161.5 c 128,-1,2
 1960 139 1960 139 1930 139 c 2,3,-1
 555 139 l 2,4,5
 525 139 525 139 502.5 161.5 c 128,-1,6
 480 184 480 184 480 214 c 2,7,-1
 480 2447 l 2,8,9
 480 2477 480 2477 502.5 2499.5 c 128,-1,10
 525 2522 525 2522 555 2522 c 2,11,-1
 1930 2522 l 2,12,13
 1960 2522 1960 2522 1982.5 2499.5 c 128,-1,14
 2005 2477 2005 2477 2005 2447 c 2,15,-1
 2005 214 l 2,0,1
1854 289 m 1,16,-1
 1854 2371 l 1,17,-1
 631 2371 l 1,18,-1
 631 289 l 1,19,-1
 1854 289 l 1,16,-1
EndSplineSet
EndChar

StartChar: agrave
Encoding: 224 224 195
Width: 3277
GlyphClass: 2
Flags: W
LayerCount: 2
Fore
SplineSet
2005 214 m 2,0,1
 2005 184 2005 184 1982.5 161.5 c 128,-1,2
 1960 139 1960 139 1930 139 c 2,3,-1
 555 139 l 2,4,5
 525 139 525 139 502.5 161.5 c 128,-1,6
 480 184 480 184 480 214 c 2,7,-1
 480 2447 l 2,8,9
 480 2477 480 2477 502.5 2499.5 c 128,-1,10
 525 2522 525 2522 555 2522 c 2,11,-1
 1930 2522 l 2,12,13
 1960 2522 1960 2522 1982.5 2499.5 c 128,-1,14
 2005 2477 2005 2477 2005 2447 c 2,15,-1
 2005 214 l 2,0,1
1854 289 m 1,16,-1
 1854 2371 l 1,17,-1
 631 2371 l 1,18,-1
 631 289 l 1,19,-1
 1854 289 l 1,16,-1
EndSplineSet
EndChar

StartChar: aacute
Encoding: 225 225 196
Width: 3277
GlyphClass: 2
Flags: W
LayerCount: 2
Fore
SplineSet
2005 214 m 2,0,1
 2005 184 2005 184 1982.5 161.5 c 128,-1,2
 1960 139 1960 139 1930 139 c 2,3,-1
 555 139 l 2,4,5
 525 139 525 139 502.5 161.5 c 128,-1,6
 480 184 480 184 480 214 c 2,7,-1
 480 2447 l 2,8,9
 480 2477 480 2477 502.5 2499.5 c 128,-1,10
 525 2522 525 2522 555 2522 c 2,11,-1
 1930 2522 l 2,12,13
 1960 2522 1960 2522 1982.5 2499.5 c 128,-1,14
 2005 2477 2005 2477 2005 2447 c 2,15,-1
 2005 214 l 2,0,1
1854 289 m 1,16,-1
 1854 2371 l 1,17,-1
 631 2371 l 1,18,-1
 631 289 l 1,19,-1
 1854 289 l 1,16,-1
EndSplineSet
EndChar

StartChar: acircumflex
Encoding: 226 226 197
Width: 3277
GlyphClass: 2
Flags: W
LayerCount: 2
Fore
SplineSet
2005 214 m 2,0,1
 2005 184 2005 184 1982.5 161.5 c 128,-1,2
 1960 139 1960 139 1930 139 c 2,3,-1
 555 139 l 2,4,5
 525 139 525 139 502.5 161.5 c 128,-1,6
 480 184 480 184 480 214 c 2,7,-1
 480 2447 l 2,8,9
 480 2477 480 2477 502.5 2499.5 c 128,-1,10
 525 2522 525 2522 555 2522 c 2,11,-1
 1930 2522 l 2,12,13
 1960 2522 1960 2522 1982.5 2499.5 c 128,-1,14
 2005 2477 2005 2477 2005 2447 c 2,15,-1
 2005 214 l 2,0,1
1854 289 m 1,16,-1
 1854 2371 l 1,17,-1
 631 2371 l 1,18,-1
 631 289 l 1,19,-1
 1854 289 l 1,16,-1
EndSplineSet
EndChar

StartChar: atilde
Encoding: 227 227 198
Width: 3277
GlyphClass: 2
Flags: W
LayerCount: 2
Fore
SplineSet
2005 214 m 2,0,1
 2005 184 2005 184 1982.5 161.5 c 128,-1,2
 1960 139 1960 139 1930 139 c 2,3,-1
 555 139 l 2,4,5
 525 139 525 139 502.5 161.5 c 128,-1,6
 480 184 480 184 480 214 c 2,7,-1
 480 2447 l 2,8,9
 480 2477 480 2477 502.5 2499.5 c 128,-1,10
 525 2522 525 2522 555 2522 c 2,11,-1
 1930 2522 l 2,12,13
 1960 2522 1960 2522 1982.5 2499.5 c 128,-1,14
 2005 2477 2005 2477 2005 2447 c 2,15,-1
 2005 214 l 2,0,1
1854 289 m 1,16,-1
 1854 2371 l 1,17,-1
 631 2371 l 1,18,-1
 631 289 l 1,19,-1
 1854 289 l 1,16,-1
EndSplineSet
EndChar

StartChar: adieresis
Encoding: 228 228 199
Width: 3277
GlyphClass: 2
Flags: W
LayerCount: 2
Fore
SplineSet
2005 214 m 2,0,1
 2005 184 2005 184 1982.5 161.5 c 128,-1,2
 1960 139 1960 139 1930 139 c 2,3,-1
 555 139 l 2,4,5
 525 139 525 139 502.5 161.5 c 128,-1,6
 480 184 480 184 480 214 c 2,7,-1
 480 2447 l 2,8,9
 480 2477 480 2477 502.5 2499.5 c 128,-1,10
 525 2522 525 2522 555 2522 c 2,11,-1
 1930 2522 l 2,12,13
 1960 2522 1960 2522 1982.5 2499.5 c 128,-1,14
 2005 2477 2005 2477 2005 2447 c 2,15,-1
 2005 214 l 2,0,1
1854 289 m 1,16,-1
 1854 2371 l 1,17,-1
 631 2371 l 1,18,-1
 631 289 l 1,19,-1
 1854 289 l 1,16,-1
EndSplineSet
EndChar

StartChar: aring
Encoding: 229 229 200
Width: 3277
GlyphClass: 2
Flags: W
LayerCount: 2
Fore
SplineSet
2005 214 m 2,0,1
 2005 184 2005 184 1982.5 161.5 c 128,-1,2
 1960 139 1960 139 1930 139 c 2,3,-1
 555 139 l 2,4,5
 525 139 525 139 502.5 161.5 c 128,-1,6
 480 184 480 184 480 214 c 2,7,-1
 480 2447 l 2,8,9
 480 2477 480 2477 502.5 2499.5 c 128,-1,10
 525 2522 525 2522 555 2522 c 2,11,-1
 1930 2522 l 2,12,13
 1960 2522 1960 2522 1982.5 2499.5 c 128,-1,14
 2005 2477 2005 2477 2005 2447 c 2,15,-1
 2005 214 l 2,0,1
1854 289 m 1,16,-1
 1854 2371 l 1,17,-1
 631 2371 l 1,18,-1
 631 289 l 1,19,-1
 1854 289 l 1,16,-1
EndSplineSet
EndChar

StartChar: ae
Encoding: 230 230 201
Width: 3277
GlyphClass: 2
Flags: W
LayerCount: 2
Fore
SplineSet
2005 214 m 2,0,1
 2005 184 2005 184 1982.5 161.5 c 128,-1,2
 1960 139 1960 139 1930 139 c 2,3,-1
 555 139 l 2,4,5
 525 139 525 139 502.5 161.5 c 128,-1,6
 480 184 480 184 480 214 c 2,7,-1
 480 2447 l 2,8,9
 480 2477 480 2477 502.5 2499.5 c 128,-1,10
 525 2522 525 2522 555 2522 c 2,11,-1
 1930 2522 l 2,12,13
 1960 2522 1960 2522 1982.5 2499.5 c 128,-1,14
 2005 2477 2005 2477 2005 2447 c 2,15,-1
 2005 214 l 2,0,1
1854 289 m 1,16,-1
 1854 2371 l 1,17,-1
 631 2371 l 1,18,-1
 631 289 l 1,19,-1
 1854 289 l 1,16,-1
EndSplineSet
EndChar

StartChar: ccedilla
Encoding: 231 231 202
Width: 3277
GlyphClass: 2
Flags: W
LayerCount: 2
Fore
SplineSet
2005 214 m 2,0,1
 2005 184 2005 184 1982.5 161.5 c 128,-1,2
 1960 139 1960 139 1930 139 c 2,3,-1
 555 139 l 2,4,5
 525 139 525 139 502.5 161.5 c 128,-1,6
 480 184 480 184 480 214 c 2,7,-1
 480 2447 l 2,8,9
 480 2477 480 2477 502.5 2499.5 c 128,-1,10
 525 2522 525 2522 555 2522 c 2,11,-1
 1930 2522 l 2,12,13
 1960 2522 1960 2522 1982.5 2499.5 c 128,-1,14
 2005 2477 2005 2477 2005 2447 c 2,15,-1
 2005 214 l 2,0,1
1854 289 m 1,16,-1
 1854 2371 l 1,17,-1
 631 2371 l 1,18,-1
 631 289 l 1,19,-1
 1854 289 l 1,16,-1
EndSplineSet
EndChar

StartChar: egrave
Encoding: 232 232 203
Width: 3277
GlyphClass: 2
Flags: W
LayerCount: 2
Fore
SplineSet
2005 214 m 2,0,1
 2005 184 2005 184 1982.5 161.5 c 128,-1,2
 1960 139 1960 139 1930 139 c 2,3,-1
 555 139 l 2,4,5
 525 139 525 139 502.5 161.5 c 128,-1,6
 480 184 480 184 480 214 c 2,7,-1
 480 2447 l 2,8,9
 480 2477 480 2477 502.5 2499.5 c 128,-1,10
 525 2522 525 2522 555 2522 c 2,11,-1
 1930 2522 l 2,12,13
 1960 2522 1960 2522 1982.5 2499.5 c 128,-1,14
 2005 2477 2005 2477 2005 2447 c 2,15,-1
 2005 214 l 2,0,1
1854 289 m 1,16,-1
 1854 2371 l 1,17,-1
 631 2371 l 1,18,-1
 631 289 l 1,19,-1
 1854 289 l 1,16,-1
EndSplineSet
EndChar

StartChar: eacute
Encoding: 233 233 204
Width: 3277
GlyphClass: 2
Flags: W
LayerCount: 2
Fore
SplineSet
2005 214 m 2,0,1
 2005 184 2005 184 1982.5 161.5 c 128,-1,2
 1960 139 1960 139 1930 139 c 2,3,-1
 555 139 l 2,4,5
 525 139 525 139 502.5 161.5 c 128,-1,6
 480 184 480 184 480 214 c 2,7,-1
 480 2447 l 2,8,9
 480 2477 480 2477 502.5 2499.5 c 128,-1,10
 525 2522 525 2522 555 2522 c 2,11,-1
 1930 2522 l 2,12,13
 1960 2522 1960 2522 1982.5 2499.5 c 128,-1,14
 2005 2477 2005 2477 2005 2447 c 2,15,-1
 2005 214 l 2,0,1
1854 289 m 1,16,-1
 1854 2371 l 1,17,-1
 631 2371 l 1,18,-1
 631 289 l 1,19,-1
 1854 289 l 1,16,-1
EndSplineSet
EndChar

StartChar: ecircumflex
Encoding: 234 234 205
Width: 3277
GlyphClass: 2
Flags: W
LayerCount: 2
Fore
SplineSet
2005 214 m 2,0,1
 2005 184 2005 184 1982.5 161.5 c 128,-1,2
 1960 139 1960 139 1930 139 c 2,3,-1
 555 139 l 2,4,5
 525 139 525 139 502.5 161.5 c 128,-1,6
 480 184 480 184 480 214 c 2,7,-1
 480 2447 l 2,8,9
 480 2477 480 2477 502.5 2499.5 c 128,-1,10
 525 2522 525 2522 555 2522 c 2,11,-1
 1930 2522 l 2,12,13
 1960 2522 1960 2522 1982.5 2499.5 c 128,-1,14
 2005 2477 2005 2477 2005 2447 c 2,15,-1
 2005 214 l 2,0,1
1854 289 m 1,16,-1
 1854 2371 l 1,17,-1
 631 2371 l 1,18,-1
 631 289 l 1,19,-1
 1854 289 l 1,16,-1
EndSplineSet
EndChar

StartChar: edieresis
Encoding: 235 235 206
Width: 3277
GlyphClass: 2
Flags: W
LayerCount: 2
Fore
SplineSet
2005 214 m 2,0,1
 2005 184 2005 184 1982.5 161.5 c 128,-1,2
 1960 139 1960 139 1930 139 c 2,3,-1
 555 139 l 2,4,5
 525 139 525 139 502.5 161.5 c 128,-1,6
 480 184 480 184 480 214 c 2,7,-1
 480 2447 l 2,8,9
 480 2477 480 2477 502.5 2499.5 c 128,-1,10
 525 2522 525 2522 555 2522 c 2,11,-1
 1930 2522 l 2,12,13
 1960 2522 1960 2522 1982.5 2499.5 c 128,-1,14
 2005 2477 2005 2477 2005 2447 c 2,15,-1
 2005 214 l 2,0,1
1854 289 m 1,16,-1
 1854 2371 l 1,17,-1
 631 2371 l 1,18,-1
 631 289 l 1,19,-1
 1854 289 l 1,16,-1
EndSplineSet
EndChar

StartChar: igrave
Encoding: 236 236 207
Width: 3277
GlyphClass: 2
Flags: W
LayerCount: 2
Fore
SplineSet
2005 214 m 2,0,1
 2005 184 2005 184 1982.5 161.5 c 128,-1,2
 1960 139 1960 139 1930 139 c 2,3,-1
 555 139 l 2,4,5
 525 139 525 139 502.5 161.5 c 128,-1,6
 480 184 480 184 480 214 c 2,7,-1
 480 2447 l 2,8,9
 480 2477 480 2477 502.5 2499.5 c 128,-1,10
 525 2522 525 2522 555 2522 c 2,11,-1
 1930 2522 l 2,12,13
 1960 2522 1960 2522 1982.5 2499.5 c 128,-1,14
 2005 2477 2005 2477 2005 2447 c 2,15,-1
 2005 214 l 2,0,1
1854 289 m 1,16,-1
 1854 2371 l 1,17,-1
 631 2371 l 1,18,-1
 631 289 l 1,19,-1
 1854 289 l 1,16,-1
EndSplineSet
EndChar

StartChar: iacute
Encoding: 237 237 208
Width: 3277
GlyphClass: 2
Flags: W
LayerCount: 2
Fore
SplineSet
2005 214 m 2,0,1
 2005 184 2005 184 1982.5 161.5 c 128,-1,2
 1960 139 1960 139 1930 139 c 2,3,-1
 555 139 l 2,4,5
 525 139 525 139 502.5 161.5 c 128,-1,6
 480 184 480 184 480 214 c 2,7,-1
 480 2447 l 2,8,9
 480 2477 480 2477 502.5 2499.5 c 128,-1,10
 525 2522 525 2522 555 2522 c 2,11,-1
 1930 2522 l 2,12,13
 1960 2522 1960 2522 1982.5 2499.5 c 128,-1,14
 2005 2477 2005 2477 2005 2447 c 2,15,-1
 2005 214 l 2,0,1
1854 289 m 1,16,-1
 1854 2371 l 1,17,-1
 631 2371 l 1,18,-1
 631 289 l 1,19,-1
 1854 289 l 1,16,-1
EndSplineSet
EndChar

StartChar: icircumflex
Encoding: 238 238 209
Width: 3277
GlyphClass: 2
Flags: W
LayerCount: 2
Fore
SplineSet
2005 214 m 2,0,1
 2005 184 2005 184 1982.5 161.5 c 128,-1,2
 1960 139 1960 139 1930 139 c 2,3,-1
 555 139 l 2,4,5
 525 139 525 139 502.5 161.5 c 128,-1,6
 480 184 480 184 480 214 c 2,7,-1
 480 2447 l 2,8,9
 480 2477 480 2477 502.5 2499.5 c 128,-1,10
 525 2522 525 2522 555 2522 c 2,11,-1
 1930 2522 l 2,12,13
 1960 2522 1960 2522 1982.5 2499.5 c 128,-1,14
 2005 2477 2005 2477 2005 2447 c 2,15,-1
 2005 214 l 2,0,1
1854 289 m 1,16,-1
 1854 2371 l 1,17,-1
 631 2371 l 1,18,-1
 631 289 l 1,19,-1
 1854 289 l 1,16,-1
EndSplineSet
EndChar

StartChar: idieresis
Encoding: 239 239 210
Width: 3277
GlyphClass: 2
Flags: W
LayerCount: 2
Fore
SplineSet
2005 214 m 2,0,1
 2005 184 2005 184 1982.5 161.5 c 128,-1,2
 1960 139 1960 139 1930 139 c 2,3,-1
 555 139 l 2,4,5
 525 139 525 139 502.5 161.5 c 128,-1,6
 480 184 480 184 480 214 c 2,7,-1
 480 2447 l 2,8,9
 480 2477 480 2477 502.5 2499.5 c 128,-1,10
 525 2522 525 2522 555 2522 c 2,11,-1
 1930 2522 l 2,12,13
 1960 2522 1960 2522 1982.5 2499.5 c 128,-1,14
 2005 2477 2005 2477 2005 2447 c 2,15,-1
 2005 214 l 2,0,1
1854 289 m 1,16,-1
 1854 2371 l 1,17,-1
 631 2371 l 1,18,-1
 631 289 l 1,19,-1
 1854 289 l 1,16,-1
EndSplineSet
EndChar

StartChar: eth
Encoding: 240 240 211
Width: 3277
GlyphClass: 2
Flags: W
LayerCount: 2
Fore
SplineSet
2005 214 m 2,0,1
 2005 184 2005 184 1982.5 161.5 c 128,-1,2
 1960 139 1960 139 1930 139 c 2,3,-1
 555 139 l 2,4,5
 525 139 525 139 502.5 161.5 c 128,-1,6
 480 184 480 184 480 214 c 2,7,-1
 480 2447 l 2,8,9
 480 2477 480 2477 502.5 2499.5 c 128,-1,10
 525 2522 525 2522 555 2522 c 2,11,-1
 1930 2522 l 2,12,13
 1960 2522 1960 2522 1982.5 2499.5 c 128,-1,14
 2005 2477 2005 2477 2005 2447 c 2,15,-1
 2005 214 l 2,0,1
1854 289 m 1,16,-1
 1854 2371 l 1,17,-1
 631 2371 l 1,18,-1
 631 289 l 1,19,-1
 1854 289 l 1,16,-1
EndSplineSet
EndChar

StartChar: ntilde
Encoding: 241 241 212
Width: 3277
GlyphClass: 2
Flags: W
LayerCount: 2
Fore
SplineSet
2005 214 m 2,0,1
 2005 184 2005 184 1982.5 161.5 c 128,-1,2
 1960 139 1960 139 1930 139 c 2,3,-1
 555 139 l 2,4,5
 525 139 525 139 502.5 161.5 c 128,-1,6
 480 184 480 184 480 214 c 2,7,-1
 480 2447 l 2,8,9
 480 2477 480 2477 502.5 2499.5 c 128,-1,10
 525 2522 525 2522 555 2522 c 2,11,-1
 1930 2522 l 2,12,13
 1960 2522 1960 2522 1982.5 2499.5 c 128,-1,14
 2005 2477 2005 2477 2005 2447 c 2,15,-1
 2005 214 l 2,0,1
1854 289 m 1,16,-1
 1854 2371 l 1,17,-1
 631 2371 l 1,18,-1
 631 289 l 1,19,-1
 1854 289 l 1,16,-1
EndSplineSet
EndChar

StartChar: ograve
Encoding: 242 242 213
Width: 3277
GlyphClass: 2
Flags: W
LayerCount: 2
Fore
SplineSet
2005 214 m 2,0,1
 2005 184 2005 184 1982.5 161.5 c 128,-1,2
 1960 139 1960 139 1930 139 c 2,3,-1
 555 139 l 2,4,5
 525 139 525 139 502.5 161.5 c 128,-1,6
 480 184 480 184 480 214 c 2,7,-1
 480 2447 l 2,8,9
 480 2477 480 2477 502.5 2499.5 c 128,-1,10
 525 2522 525 2522 555 2522 c 2,11,-1
 1930 2522 l 2,12,13
 1960 2522 1960 2522 1982.5 2499.5 c 128,-1,14
 2005 2477 2005 2477 2005 2447 c 2,15,-1
 2005 214 l 2,0,1
1854 289 m 1,16,-1
 1854 2371 l 1,17,-1
 631 2371 l 1,18,-1
 631 289 l 1,19,-1
 1854 289 l 1,16,-1
EndSplineSet
EndChar

StartChar: oacute
Encoding: 243 243 214
Width: 3277
GlyphClass: 2
Flags: W
LayerCount: 2
Fore
SplineSet
2005 214 m 2,0,1
 2005 184 2005 184 1982.5 161.5 c 128,-1,2
 1960 139 1960 139 1930 139 c 2,3,-1
 555 139 l 2,4,5
 525 139 525 139 502.5 161.5 c 128,-1,6
 480 184 480 184 480 214 c 2,7,-1
 480 2447 l 2,8,9
 480 2477 480 2477 502.5 2499.5 c 128,-1,10
 525 2522 525 2522 555 2522 c 2,11,-1
 1930 2522 l 2,12,13
 1960 2522 1960 2522 1982.5 2499.5 c 128,-1,14
 2005 2477 2005 2477 2005 2447 c 2,15,-1
 2005 214 l 2,0,1
1854 289 m 1,16,-1
 1854 2371 l 1,17,-1
 631 2371 l 1,18,-1
 631 289 l 1,19,-1
 1854 289 l 1,16,-1
EndSplineSet
EndChar

StartChar: ocircumflex
Encoding: 244 244 215
Width: 3277
GlyphClass: 2
Flags: W
LayerCount: 2
Fore
SplineSet
2005 214 m 2,0,1
 2005 184 2005 184 1982.5 161.5 c 128,-1,2
 1960 139 1960 139 1930 139 c 2,3,-1
 555 139 l 2,4,5
 525 139 525 139 502.5 161.5 c 128,-1,6
 480 184 480 184 480 214 c 2,7,-1
 480 2447 l 2,8,9
 480 2477 480 2477 502.5 2499.5 c 128,-1,10
 525 2522 525 2522 555 2522 c 2,11,-1
 1930 2522 l 2,12,13
 1960 2522 1960 2522 1982.5 2499.5 c 128,-1,14
 2005 2477 2005 2477 2005 2447 c 2,15,-1
 2005 214 l 2,0,1
1854 289 m 1,16,-1
 1854 2371 l 1,17,-1
 631 2371 l 1,18,-1
 631 289 l 1,19,-1
 1854 289 l 1,16,-1
EndSplineSet
EndChar

StartChar: otilde
Encoding: 245 245 216
Width: 3277
GlyphClass: 2
Flags: W
LayerCount: 2
Fore
SplineSet
2005 214 m 2,0,1
 2005 184 2005 184 1982.5 161.5 c 128,-1,2
 1960 139 1960 139 1930 139 c 2,3,-1
 555 139 l 2,4,5
 525 139 525 139 502.5 161.5 c 128,-1,6
 480 184 480 184 480 214 c 2,7,-1
 480 2447 l 2,8,9
 480 2477 480 2477 502.5 2499.5 c 128,-1,10
 525 2522 525 2522 555 2522 c 2,11,-1
 1930 2522 l 2,12,13
 1960 2522 1960 2522 1982.5 2499.5 c 128,-1,14
 2005 2477 2005 2477 2005 2447 c 2,15,-1
 2005 214 l 2,0,1
1854 289 m 1,16,-1
 1854 2371 l 1,17,-1
 631 2371 l 1,18,-1
 631 289 l 1,19,-1
 1854 289 l 1,16,-1
EndSplineSet
EndChar

StartChar: odieresis
Encoding: 246 246 217
Width: 3277
GlyphClass: 2
Flags: W
LayerCount: 2
Fore
SplineSet
2005 214 m 2,0,1
 2005 184 2005 184 1982.5 161.5 c 128,-1,2
 1960 139 1960 139 1930 139 c 2,3,-1
 555 139 l 2,4,5
 525 139 525 139 502.5 161.5 c 128,-1,6
 480 184 480 184 480 214 c 2,7,-1
 480 2447 l 2,8,9
 480 2477 480 2477 502.5 2499.5 c 128,-1,10
 525 2522 525 2522 555 2522 c 2,11,-1
 1930 2522 l 2,12,13
 1960 2522 1960 2522 1982.5 2499.5 c 128,-1,14
 2005 2477 2005 2477 2005 2447 c 2,15,-1
 2005 214 l 2,0,1
1854 289 m 1,16,-1
 1854 2371 l 1,17,-1
 631 2371 l 1,18,-1
 631 289 l 1,19,-1
 1854 289 l 1,16,-1
EndSplineSet
EndChar

StartChar: divide
Encoding: 247 247 218
Width: 1428
GlyphClass: 2
Flags: W
LayerCount: 2
Fore
SplineSet
848 1015 m 256,0,1
 848 969 848 969 816 937 c 128,-1,2
 784 905 784 905 738 905 c 256,3,4
 692 905 692 905 660 937 c 128,-1,5
 628 969 628 969 628 1015 c 256,6,7
 628 1061 628 1061 660 1093 c 128,-1,8
 692 1125 692 1125 738 1125 c 256,9,10
 784 1125 784 1125 816 1093 c 128,-1,11
 848 1061 848 1061 848 1015 c 256,0,1
1230 584 m 1,12,-1
 243 584 l 1,13,-1
 243 698 l 1,14,-1
 1230 698 l 1,15,-1
 1230 584 l 1,12,-1
848 261 m 256,16,17
 848 215 848 215 816 183 c 128,-1,18
 784 151 784 151 738 151 c 256,19,20
 692 151 692 151 660 183 c 128,-1,21
 628 215 628 215 628 261 c 256,22,23
 628 307 628 307 660 339 c 128,-1,24
 692 371 692 371 738 371 c 256,25,26
 784 371 784 371 816 339 c 128,-1,27
 848 307 848 307 848 261 c 256,16,17
EndSplineSet
EndChar

StartChar: oslash
Encoding: 248 248 219
Width: 3277
GlyphClass: 2
Flags: W
LayerCount: 2
Fore
SplineSet
2005 214 m 2,0,1
 2005 184 2005 184 1982.5 161.5 c 128,-1,2
 1960 139 1960 139 1930 139 c 2,3,-1
 555 139 l 2,4,5
 525 139 525 139 502.5 161.5 c 128,-1,6
 480 184 480 184 480 214 c 2,7,-1
 480 2447 l 2,8,9
 480 2477 480 2477 502.5 2499.5 c 128,-1,10
 525 2522 525 2522 555 2522 c 2,11,-1
 1930 2522 l 2,12,13
 1960 2522 1960 2522 1982.5 2499.5 c 128,-1,14
 2005 2477 2005 2477 2005 2447 c 2,15,-1
 2005 214 l 2,0,1
1854 289 m 1,16,-1
 1854 2371 l 1,17,-1
 631 2371 l 1,18,-1
 631 289 l 1,19,-1
 1854 289 l 1,16,-1
EndSplineSet
EndChar

StartChar: ugrave
Encoding: 249 249 220
Width: 3277
GlyphClass: 2
Flags: W
LayerCount: 2
Fore
SplineSet
2005 214 m 2,0,1
 2005 184 2005 184 1982.5 161.5 c 128,-1,2
 1960 139 1960 139 1930 139 c 2,3,-1
 555 139 l 2,4,5
 525 139 525 139 502.5 161.5 c 128,-1,6
 480 184 480 184 480 214 c 2,7,-1
 480 2447 l 2,8,9
 480 2477 480 2477 502.5 2499.5 c 128,-1,10
 525 2522 525 2522 555 2522 c 2,11,-1
 1930 2522 l 2,12,13
 1960 2522 1960 2522 1982.5 2499.5 c 128,-1,14
 2005 2477 2005 2477 2005 2447 c 2,15,-1
 2005 214 l 2,0,1
1854 289 m 1,16,-1
 1854 2371 l 1,17,-1
 631 2371 l 1,18,-1
 631 289 l 1,19,-1
 1854 289 l 1,16,-1
EndSplineSet
EndChar

StartChar: uacute
Encoding: 250 250 221
Width: 3277
GlyphClass: 2
Flags: W
LayerCount: 2
Fore
SplineSet
2005 214 m 2,0,1
 2005 184 2005 184 1982.5 161.5 c 128,-1,2
 1960 139 1960 139 1930 139 c 2,3,-1
 555 139 l 2,4,5
 525 139 525 139 502.5 161.5 c 128,-1,6
 480 184 480 184 480 214 c 2,7,-1
 480 2447 l 2,8,9
 480 2477 480 2477 502.5 2499.5 c 128,-1,10
 525 2522 525 2522 555 2522 c 2,11,-1
 1930 2522 l 2,12,13
 1960 2522 1960 2522 1982.5 2499.5 c 128,-1,14
 2005 2477 2005 2477 2005 2447 c 2,15,-1
 2005 214 l 2,0,1
1854 289 m 1,16,-1
 1854 2371 l 1,17,-1
 631 2371 l 1,18,-1
 631 289 l 1,19,-1
 1854 289 l 1,16,-1
EndSplineSet
EndChar

StartChar: ucircumflex
Encoding: 251 251 222
Width: 3277
GlyphClass: 2
Flags: W
LayerCount: 2
Fore
SplineSet
2005 214 m 2,0,1
 2005 184 2005 184 1982.5 161.5 c 128,-1,2
 1960 139 1960 139 1930 139 c 2,3,-1
 555 139 l 2,4,5
 525 139 525 139 502.5 161.5 c 128,-1,6
 480 184 480 184 480 214 c 2,7,-1
 480 2447 l 2,8,9
 480 2477 480 2477 502.5 2499.5 c 128,-1,10
 525 2522 525 2522 555 2522 c 2,11,-1
 1930 2522 l 2,12,13
 1960 2522 1960 2522 1982.5 2499.5 c 128,-1,14
 2005 2477 2005 2477 2005 2447 c 2,15,-1
 2005 214 l 2,0,1
1854 289 m 1,16,-1
 1854 2371 l 1,17,-1
 631 2371 l 1,18,-1
 631 289 l 1,19,-1
 1854 289 l 1,16,-1
EndSplineSet
EndChar

StartChar: udieresis
Encoding: 252 252 223
Width: 3277
GlyphClass: 2
Flags: W
LayerCount: 2
Fore
SplineSet
2005 214 m 2,0,1
 2005 184 2005 184 1982.5 161.5 c 128,-1,2
 1960 139 1960 139 1930 139 c 2,3,-1
 555 139 l 2,4,5
 525 139 525 139 502.5 161.5 c 128,-1,6
 480 184 480 184 480 214 c 2,7,-1
 480 2447 l 2,8,9
 480 2477 480 2477 502.5 2499.5 c 128,-1,10
 525 2522 525 2522 555 2522 c 2,11,-1
 1930 2522 l 2,12,13
 1960 2522 1960 2522 1982.5 2499.5 c 128,-1,14
 2005 2477 2005 2477 2005 2447 c 2,15,-1
 2005 214 l 2,0,1
1854 289 m 1,16,-1
 1854 2371 l 1,17,-1
 631 2371 l 1,18,-1
 631 289 l 1,19,-1
 1854 289 l 1,16,-1
EndSplineSet
EndChar

StartChar: yacute
Encoding: 253 253 224
Width: 3277
GlyphClass: 2
Flags: W
LayerCount: 2
Fore
SplineSet
2005 214 m 2,0,1
 2005 184 2005 184 1982.5 161.5 c 128,-1,2
 1960 139 1960 139 1930 139 c 2,3,-1
 555 139 l 2,4,5
 525 139 525 139 502.5 161.5 c 128,-1,6
 480 184 480 184 480 214 c 2,7,-1
 480 2447 l 2,8,9
 480 2477 480 2477 502.5 2499.5 c 128,-1,10
 525 2522 525 2522 555 2522 c 2,11,-1
 1930 2522 l 2,12,13
 1960 2522 1960 2522 1982.5 2499.5 c 128,-1,14
 2005 2477 2005 2477 2005 2447 c 2,15,-1
 2005 214 l 2,0,1
1854 289 m 1,16,-1
 1854 2371 l 1,17,-1
 631 2371 l 1,18,-1
 631 289 l 1,19,-1
 1854 289 l 1,16,-1
EndSplineSet
EndChar

StartChar: thorn
Encoding: 254 254 225
Width: 3277
GlyphClass: 2
Flags: W
LayerCount: 2
Fore
SplineSet
2005 214 m 2,0,1
 2005 184 2005 184 1982.5 161.5 c 128,-1,2
 1960 139 1960 139 1930 139 c 2,3,-1
 555 139 l 2,4,5
 525 139 525 139 502.5 161.5 c 128,-1,6
 480 184 480 184 480 214 c 2,7,-1
 480 2447 l 2,8,9
 480 2477 480 2477 502.5 2499.5 c 128,-1,10
 525 2522 525 2522 555 2522 c 2,11,-1
 1930 2522 l 2,12,13
 1960 2522 1960 2522 1982.5 2499.5 c 128,-1,14
 2005 2477 2005 2477 2005 2447 c 2,15,-1
 2005 214 l 2,0,1
1854 289 m 1,16,-1
 1854 2371 l 1,17,-1
 631 2371 l 1,18,-1
 631 289 l 1,19,-1
 1854 289 l 1,16,-1
EndSplineSet
EndChar

StartChar: ydieresis
Encoding: 255 255 226
Width: 3277
GlyphClass: 2
Flags: W
LayerCount: 2
Fore
SplineSet
2005 214 m 2,0,1
 2005 184 2005 184 1982.5 161.5 c 128,-1,2
 1960 139 1960 139 1930 139 c 2,3,-1
 555 139 l 2,4,5
 525 139 525 139 502.5 161.5 c 128,-1,6
 480 184 480 184 480 214 c 2,7,-1
 480 2447 l 2,8,9
 480 2477 480 2477 502.5 2499.5 c 128,-1,10
 525 2522 525 2522 555 2522 c 2,11,-1
 1930 2522 l 2,12,13
 1960 2522 1960 2522 1982.5 2499.5 c 128,-1,14
 2005 2477 2005 2477 2005 2447 c 2,15,-1
 2005 214 l 2,0,1
1854 289 m 1,16,-1
 1854 2371 l 1,17,-1
 631 2371 l 1,18,-1
 631 289 l 1,19,-1
 1854 289 l 1,16,-1
EndSplineSet
EndChar

StartChar: Amacron
Encoding: 256 256 227
Width: 3277
GlyphClass: 2
Flags: W
LayerCount: 2
Fore
SplineSet
2005 214 m 2,0,1
 2005 184 2005 184 1982.5 161.5 c 128,-1,2
 1960 139 1960 139 1930 139 c 2,3,-1
 555 139 l 2,4,5
 525 139 525 139 502.5 161.5 c 128,-1,6
 480 184 480 184 480 214 c 2,7,-1
 480 2447 l 2,8,9
 480 2477 480 2477 502.5 2499.5 c 128,-1,10
 525 2522 525 2522 555 2522 c 2,11,-1
 1930 2522 l 2,12,13
 1960 2522 1960 2522 1982.5 2499.5 c 128,-1,14
 2005 2477 2005 2477 2005 2447 c 2,15,-1
 2005 214 l 2,0,1
1854 289 m 1,16,-1
 1854 2371 l 1,17,-1
 631 2371 l 1,18,-1
 631 289 l 1,19,-1
 1854 289 l 1,16,-1
EndSplineSet
EndChar

StartChar: amacron
Encoding: 257 257 228
Width: 3277
GlyphClass: 2
Flags: W
LayerCount: 2
Fore
SplineSet
2005 214 m 2,0,1
 2005 184 2005 184 1982.5 161.5 c 128,-1,2
 1960 139 1960 139 1930 139 c 2,3,-1
 555 139 l 2,4,5
 525 139 525 139 502.5 161.5 c 128,-1,6
 480 184 480 184 480 214 c 2,7,-1
 480 2447 l 2,8,9
 480 2477 480 2477 502.5 2499.5 c 128,-1,10
 525 2522 525 2522 555 2522 c 2,11,-1
 1930 2522 l 2,12,13
 1960 2522 1960 2522 1982.5 2499.5 c 128,-1,14
 2005 2477 2005 2477 2005 2447 c 2,15,-1
 2005 214 l 2,0,1
1854 289 m 1,16,-1
 1854 2371 l 1,17,-1
 631 2371 l 1,18,-1
 631 289 l 1,19,-1
 1854 289 l 1,16,-1
EndSplineSet
EndChar

StartChar: Abreve
Encoding: 258 258 229
Width: 3277
GlyphClass: 2
Flags: W
LayerCount: 2
Fore
SplineSet
2005 214 m 2,0,1
 2005 184 2005 184 1982.5 161.5 c 128,-1,2
 1960 139 1960 139 1930 139 c 2,3,-1
 555 139 l 2,4,5
 525 139 525 139 502.5 161.5 c 128,-1,6
 480 184 480 184 480 214 c 2,7,-1
 480 2447 l 2,8,9
 480 2477 480 2477 502.5 2499.5 c 128,-1,10
 525 2522 525 2522 555 2522 c 2,11,-1
 1930 2522 l 2,12,13
 1960 2522 1960 2522 1982.5 2499.5 c 128,-1,14
 2005 2477 2005 2477 2005 2447 c 2,15,-1
 2005 214 l 2,0,1
1854 289 m 1,16,-1
 1854 2371 l 1,17,-1
 631 2371 l 1,18,-1
 631 289 l 1,19,-1
 1854 289 l 1,16,-1
EndSplineSet
EndChar

StartChar: abreve
Encoding: 259 259 230
Width: 3277
GlyphClass: 2
Flags: W
LayerCount: 2
Fore
SplineSet
2005 214 m 2,0,1
 2005 184 2005 184 1982.5 161.5 c 128,-1,2
 1960 139 1960 139 1930 139 c 2,3,-1
 555 139 l 2,4,5
 525 139 525 139 502.5 161.5 c 128,-1,6
 480 184 480 184 480 214 c 2,7,-1
 480 2447 l 2,8,9
 480 2477 480 2477 502.5 2499.5 c 128,-1,10
 525 2522 525 2522 555 2522 c 2,11,-1
 1930 2522 l 2,12,13
 1960 2522 1960 2522 1982.5 2499.5 c 128,-1,14
 2005 2477 2005 2477 2005 2447 c 2,15,-1
 2005 214 l 2,0,1
1854 289 m 1,16,-1
 1854 2371 l 1,17,-1
 631 2371 l 1,18,-1
 631 289 l 1,19,-1
 1854 289 l 1,16,-1
EndSplineSet
EndChar

StartChar: Aogonek
Encoding: 260 260 231
Width: 3277
GlyphClass: 2
Flags: W
LayerCount: 2
Fore
SplineSet
2005 214 m 2,0,1
 2005 184 2005 184 1982.5 161.5 c 128,-1,2
 1960 139 1960 139 1930 139 c 2,3,-1
 555 139 l 2,4,5
 525 139 525 139 502.5 161.5 c 128,-1,6
 480 184 480 184 480 214 c 2,7,-1
 480 2447 l 2,8,9
 480 2477 480 2477 502.5 2499.5 c 128,-1,10
 525 2522 525 2522 555 2522 c 2,11,-1
 1930 2522 l 2,12,13
 1960 2522 1960 2522 1982.5 2499.5 c 128,-1,14
 2005 2477 2005 2477 2005 2447 c 2,15,-1
 2005 214 l 2,0,1
1854 289 m 1,16,-1
 1854 2371 l 1,17,-1
 631 2371 l 1,18,-1
 631 289 l 1,19,-1
 1854 289 l 1,16,-1
EndSplineSet
EndChar

StartChar: aogonek
Encoding: 261 261 232
Width: 3277
GlyphClass: 2
Flags: W
LayerCount: 2
Fore
SplineSet
2005 214 m 2,0,1
 2005 184 2005 184 1982.5 161.5 c 128,-1,2
 1960 139 1960 139 1930 139 c 2,3,-1
 555 139 l 2,4,5
 525 139 525 139 502.5 161.5 c 128,-1,6
 480 184 480 184 480 214 c 2,7,-1
 480 2447 l 2,8,9
 480 2477 480 2477 502.5 2499.5 c 128,-1,10
 525 2522 525 2522 555 2522 c 2,11,-1
 1930 2522 l 2,12,13
 1960 2522 1960 2522 1982.5 2499.5 c 128,-1,14
 2005 2477 2005 2477 2005 2447 c 2,15,-1
 2005 214 l 2,0,1
1854 289 m 1,16,-1
 1854 2371 l 1,17,-1
 631 2371 l 1,18,-1
 631 289 l 1,19,-1
 1854 289 l 1,16,-1
EndSplineSet
EndChar

StartChar: Cacute
Encoding: 262 262 233
Width: 3277
GlyphClass: 2
Flags: W
LayerCount: 2
Fore
SplineSet
2005 214 m 2,0,1
 2005 184 2005 184 1982.5 161.5 c 128,-1,2
 1960 139 1960 139 1930 139 c 2,3,-1
 555 139 l 2,4,5
 525 139 525 139 502.5 161.5 c 128,-1,6
 480 184 480 184 480 214 c 2,7,-1
 480 2447 l 2,8,9
 480 2477 480 2477 502.5 2499.5 c 128,-1,10
 525 2522 525 2522 555 2522 c 2,11,-1
 1930 2522 l 2,12,13
 1960 2522 1960 2522 1982.5 2499.5 c 128,-1,14
 2005 2477 2005 2477 2005 2447 c 2,15,-1
 2005 214 l 2,0,1
1854 289 m 1,16,-1
 1854 2371 l 1,17,-1
 631 2371 l 1,18,-1
 631 289 l 1,19,-1
 1854 289 l 1,16,-1
EndSplineSet
EndChar

StartChar: cacute
Encoding: 263 263 234
Width: 3277
GlyphClass: 2
Flags: W
LayerCount: 2
Fore
SplineSet
2005 214 m 2,0,1
 2005 184 2005 184 1982.5 161.5 c 128,-1,2
 1960 139 1960 139 1930 139 c 2,3,-1
 555 139 l 2,4,5
 525 139 525 139 502.5 161.5 c 128,-1,6
 480 184 480 184 480 214 c 2,7,-1
 480 2447 l 2,8,9
 480 2477 480 2477 502.5 2499.5 c 128,-1,10
 525 2522 525 2522 555 2522 c 2,11,-1
 1930 2522 l 2,12,13
 1960 2522 1960 2522 1982.5 2499.5 c 128,-1,14
 2005 2477 2005 2477 2005 2447 c 2,15,-1
 2005 214 l 2,0,1
1854 289 m 1,16,-1
 1854 2371 l 1,17,-1
 631 2371 l 1,18,-1
 631 289 l 1,19,-1
 1854 289 l 1,16,-1
EndSplineSet
EndChar

StartChar: Ccircumflex
Encoding: 264 264 235
Width: 3277
GlyphClass: 2
Flags: W
LayerCount: 2
Fore
SplineSet
2005 214 m 2,0,1
 2005 184 2005 184 1982.5 161.5 c 128,-1,2
 1960 139 1960 139 1930 139 c 2,3,-1
 555 139 l 2,4,5
 525 139 525 139 502.5 161.5 c 128,-1,6
 480 184 480 184 480 214 c 2,7,-1
 480 2447 l 2,8,9
 480 2477 480 2477 502.5 2499.5 c 128,-1,10
 525 2522 525 2522 555 2522 c 2,11,-1
 1930 2522 l 2,12,13
 1960 2522 1960 2522 1982.5 2499.5 c 128,-1,14
 2005 2477 2005 2477 2005 2447 c 2,15,-1
 2005 214 l 2,0,1
1854 289 m 1,16,-1
 1854 2371 l 1,17,-1
 631 2371 l 1,18,-1
 631 289 l 1,19,-1
 1854 289 l 1,16,-1
EndSplineSet
EndChar

StartChar: ccircumflex
Encoding: 265 265 236
Width: 3277
GlyphClass: 2
Flags: W
LayerCount: 2
Fore
SplineSet
2005 214 m 2,0,1
 2005 184 2005 184 1982.5 161.5 c 128,-1,2
 1960 139 1960 139 1930 139 c 2,3,-1
 555 139 l 2,4,5
 525 139 525 139 502.5 161.5 c 128,-1,6
 480 184 480 184 480 214 c 2,7,-1
 480 2447 l 2,8,9
 480 2477 480 2477 502.5 2499.5 c 128,-1,10
 525 2522 525 2522 555 2522 c 2,11,-1
 1930 2522 l 2,12,13
 1960 2522 1960 2522 1982.5 2499.5 c 128,-1,14
 2005 2477 2005 2477 2005 2447 c 2,15,-1
 2005 214 l 2,0,1
1854 289 m 1,16,-1
 1854 2371 l 1,17,-1
 631 2371 l 1,18,-1
 631 289 l 1,19,-1
 1854 289 l 1,16,-1
EndSplineSet
EndChar

StartChar: Cdot
Encoding: 266 266 237
Width: 3277
GlyphClass: 2
Flags: W
LayerCount: 2
Fore
SplineSet
2005 214 m 2,0,1
 2005 184 2005 184 1982.5 161.5 c 128,-1,2
 1960 139 1960 139 1930 139 c 2,3,-1
 555 139 l 2,4,5
 525 139 525 139 502.5 161.5 c 128,-1,6
 480 184 480 184 480 214 c 2,7,-1
 480 2447 l 2,8,9
 480 2477 480 2477 502.5 2499.5 c 128,-1,10
 525 2522 525 2522 555 2522 c 2,11,-1
 1930 2522 l 2,12,13
 1960 2522 1960 2522 1982.5 2499.5 c 128,-1,14
 2005 2477 2005 2477 2005 2447 c 2,15,-1
 2005 214 l 2,0,1
1854 289 m 1,16,-1
 1854 2371 l 1,17,-1
 631 2371 l 1,18,-1
 631 289 l 1,19,-1
 1854 289 l 1,16,-1
EndSplineSet
EndChar

StartChar: cdot
Encoding: 267 267 238
Width: 3277
GlyphClass: 2
Flags: W
LayerCount: 2
Fore
SplineSet
2005 214 m 2,0,1
 2005 184 2005 184 1982.5 161.5 c 128,-1,2
 1960 139 1960 139 1930 139 c 2,3,-1
 555 139 l 2,4,5
 525 139 525 139 502.5 161.5 c 128,-1,6
 480 184 480 184 480 214 c 2,7,-1
 480 2447 l 2,8,9
 480 2477 480 2477 502.5 2499.5 c 128,-1,10
 525 2522 525 2522 555 2522 c 2,11,-1
 1930 2522 l 2,12,13
 1960 2522 1960 2522 1982.5 2499.5 c 128,-1,14
 2005 2477 2005 2477 2005 2447 c 2,15,-1
 2005 214 l 2,0,1
1854 289 m 1,16,-1
 1854 2371 l 1,17,-1
 631 2371 l 1,18,-1
 631 289 l 1,19,-1
 1854 289 l 1,16,-1
EndSplineSet
EndChar

StartChar: Ccaron
Encoding: 268 268 239
Width: 3277
GlyphClass: 2
Flags: W
LayerCount: 2
Fore
SplineSet
2005 214 m 2,0,1
 2005 184 2005 184 1982.5 161.5 c 128,-1,2
 1960 139 1960 139 1930 139 c 2,3,-1
 555 139 l 2,4,5
 525 139 525 139 502.5 161.5 c 128,-1,6
 480 184 480 184 480 214 c 2,7,-1
 480 2447 l 2,8,9
 480 2477 480 2477 502.5 2499.5 c 128,-1,10
 525 2522 525 2522 555 2522 c 2,11,-1
 1930 2522 l 2,12,13
 1960 2522 1960 2522 1982.5 2499.5 c 128,-1,14
 2005 2477 2005 2477 2005 2447 c 2,15,-1
 2005 214 l 2,0,1
1854 289 m 1,16,-1
 1854 2371 l 1,17,-1
 631 2371 l 1,18,-1
 631 289 l 1,19,-1
 1854 289 l 1,16,-1
EndSplineSet
EndChar

StartChar: ccaron
Encoding: 269 269 240
Width: 3277
GlyphClass: 2
Flags: W
LayerCount: 2
Fore
SplineSet
2005 214 m 2,0,1
 2005 184 2005 184 1982.5 161.5 c 128,-1,2
 1960 139 1960 139 1930 139 c 2,3,-1
 555 139 l 2,4,5
 525 139 525 139 502.5 161.5 c 128,-1,6
 480 184 480 184 480 214 c 2,7,-1
 480 2447 l 2,8,9
 480 2477 480 2477 502.5 2499.5 c 128,-1,10
 525 2522 525 2522 555 2522 c 2,11,-1
 1930 2522 l 2,12,13
 1960 2522 1960 2522 1982.5 2499.5 c 128,-1,14
 2005 2477 2005 2477 2005 2447 c 2,15,-1
 2005 214 l 2,0,1
1854 289 m 1,16,-1
 1854 2371 l 1,17,-1
 631 2371 l 1,18,-1
 631 289 l 1,19,-1
 1854 289 l 1,16,-1
EndSplineSet
EndChar

StartChar: Dcaron
Encoding: 270 270 241
Width: 3277
GlyphClass: 2
Flags: W
LayerCount: 2
Fore
SplineSet
2005 214 m 2,0,1
 2005 184 2005 184 1982.5 161.5 c 128,-1,2
 1960 139 1960 139 1930 139 c 2,3,-1
 555 139 l 2,4,5
 525 139 525 139 502.5 161.5 c 128,-1,6
 480 184 480 184 480 214 c 2,7,-1
 480 2447 l 2,8,9
 480 2477 480 2477 502.5 2499.5 c 128,-1,10
 525 2522 525 2522 555 2522 c 2,11,-1
 1930 2522 l 2,12,13
 1960 2522 1960 2522 1982.5 2499.5 c 128,-1,14
 2005 2477 2005 2477 2005 2447 c 2,15,-1
 2005 214 l 2,0,1
1854 289 m 1,16,-1
 1854 2371 l 1,17,-1
 631 2371 l 1,18,-1
 631 289 l 1,19,-1
 1854 289 l 1,16,-1
EndSplineSet
EndChar

StartChar: dcaron
Encoding: 271 271 242
Width: 3277
GlyphClass: 2
Flags: W
LayerCount: 2
Fore
SplineSet
2005 214 m 2,0,1
 2005 184 2005 184 1982.5 161.5 c 128,-1,2
 1960 139 1960 139 1930 139 c 2,3,-1
 555 139 l 2,4,5
 525 139 525 139 502.5 161.5 c 128,-1,6
 480 184 480 184 480 214 c 2,7,-1
 480 2447 l 2,8,9
 480 2477 480 2477 502.5 2499.5 c 128,-1,10
 525 2522 525 2522 555 2522 c 2,11,-1
 1930 2522 l 2,12,13
 1960 2522 1960 2522 1982.5 2499.5 c 128,-1,14
 2005 2477 2005 2477 2005 2447 c 2,15,-1
 2005 214 l 2,0,1
1854 289 m 1,16,-1
 1854 2371 l 1,17,-1
 631 2371 l 1,18,-1
 631 289 l 1,19,-1
 1854 289 l 1,16,-1
EndSplineSet
EndChar

StartChar: Dslash
Encoding: 272 272 243
Width: 3277
GlyphClass: 2
Flags: W
LayerCount: 2
Fore
SplineSet
2005 214 m 2,0,1
 2005 184 2005 184 1982.5 161.5 c 128,-1,2
 1960 139 1960 139 1930 139 c 2,3,-1
 555 139 l 2,4,5
 525 139 525 139 502.5 161.5 c 128,-1,6
 480 184 480 184 480 214 c 2,7,-1
 480 2447 l 2,8,9
 480 2477 480 2477 502.5 2499.5 c 128,-1,10
 525 2522 525 2522 555 2522 c 2,11,-1
 1930 2522 l 2,12,13
 1960 2522 1960 2522 1982.5 2499.5 c 128,-1,14
 2005 2477 2005 2477 2005 2447 c 2,15,-1
 2005 214 l 2,0,1
1854 289 m 1,16,-1
 1854 2371 l 1,17,-1
 631 2371 l 1,18,-1
 631 289 l 1,19,-1
 1854 289 l 1,16,-1
EndSplineSet
EndChar

StartChar: dcroat
Encoding: 273 273 244
Width: 3277
GlyphClass: 2
Flags: W
LayerCount: 2
Fore
SplineSet
2005 214 m 2,0,1
 2005 184 2005 184 1982.5 161.5 c 128,-1,2
 1960 139 1960 139 1930 139 c 2,3,-1
 555 139 l 2,4,5
 525 139 525 139 502.5 161.5 c 128,-1,6
 480 184 480 184 480 214 c 2,7,-1
 480 2447 l 2,8,9
 480 2477 480 2477 502.5 2499.5 c 128,-1,10
 525 2522 525 2522 555 2522 c 2,11,-1
 1930 2522 l 2,12,13
 1960 2522 1960 2522 1982.5 2499.5 c 128,-1,14
 2005 2477 2005 2477 2005 2447 c 2,15,-1
 2005 214 l 2,0,1
1854 289 m 1,16,-1
 1854 2371 l 1,17,-1
 631 2371 l 1,18,-1
 631 289 l 1,19,-1
 1854 289 l 1,16,-1
EndSplineSet
EndChar

StartChar: Emacron
Encoding: 274 274 245
Width: 3277
GlyphClass: 2
Flags: W
LayerCount: 2
Fore
SplineSet
2005 214 m 2,0,1
 2005 184 2005 184 1982.5 161.5 c 128,-1,2
 1960 139 1960 139 1930 139 c 2,3,-1
 555 139 l 2,4,5
 525 139 525 139 502.5 161.5 c 128,-1,6
 480 184 480 184 480 214 c 2,7,-1
 480 2447 l 2,8,9
 480 2477 480 2477 502.5 2499.5 c 128,-1,10
 525 2522 525 2522 555 2522 c 2,11,-1
 1930 2522 l 2,12,13
 1960 2522 1960 2522 1982.5 2499.5 c 128,-1,14
 2005 2477 2005 2477 2005 2447 c 2,15,-1
 2005 214 l 2,0,1
1854 289 m 1,16,-1
 1854 2371 l 1,17,-1
 631 2371 l 1,18,-1
 631 289 l 1,19,-1
 1854 289 l 1,16,-1
EndSplineSet
EndChar

StartChar: emacron
Encoding: 275 275 246
Width: 3277
GlyphClass: 2
Flags: W
LayerCount: 2
Fore
SplineSet
2005 214 m 2,0,1
 2005 184 2005 184 1982.5 161.5 c 128,-1,2
 1960 139 1960 139 1930 139 c 2,3,-1
 555 139 l 2,4,5
 525 139 525 139 502.5 161.5 c 128,-1,6
 480 184 480 184 480 214 c 2,7,-1
 480 2447 l 2,8,9
 480 2477 480 2477 502.5 2499.5 c 128,-1,10
 525 2522 525 2522 555 2522 c 2,11,-1
 1930 2522 l 2,12,13
 1960 2522 1960 2522 1982.5 2499.5 c 128,-1,14
 2005 2477 2005 2477 2005 2447 c 2,15,-1
 2005 214 l 2,0,1
1854 289 m 1,16,-1
 1854 2371 l 1,17,-1
 631 2371 l 1,18,-1
 631 289 l 1,19,-1
 1854 289 l 1,16,-1
EndSplineSet
EndChar

StartChar: Ebreve
Encoding: 276 276 247
Width: 3277
GlyphClass: 2
Flags: W
LayerCount: 2
Fore
SplineSet
2005 214 m 2,0,1
 2005 184 2005 184 1982.5 161.5 c 128,-1,2
 1960 139 1960 139 1930 139 c 2,3,-1
 555 139 l 2,4,5
 525 139 525 139 502.5 161.5 c 128,-1,6
 480 184 480 184 480 214 c 2,7,-1
 480 2447 l 2,8,9
 480 2477 480 2477 502.5 2499.5 c 128,-1,10
 525 2522 525 2522 555 2522 c 2,11,-1
 1930 2522 l 2,12,13
 1960 2522 1960 2522 1982.5 2499.5 c 128,-1,14
 2005 2477 2005 2477 2005 2447 c 2,15,-1
 2005 214 l 2,0,1
1854 289 m 1,16,-1
 1854 2371 l 1,17,-1
 631 2371 l 1,18,-1
 631 289 l 1,19,-1
 1854 289 l 1,16,-1
EndSplineSet
EndChar

StartChar: ebreve
Encoding: 277 277 248
Width: 3277
GlyphClass: 2
Flags: W
LayerCount: 2
Fore
SplineSet
2005 214 m 2,0,1
 2005 184 2005 184 1982.5 161.5 c 128,-1,2
 1960 139 1960 139 1930 139 c 2,3,-1
 555 139 l 2,4,5
 525 139 525 139 502.5 161.5 c 128,-1,6
 480 184 480 184 480 214 c 2,7,-1
 480 2447 l 2,8,9
 480 2477 480 2477 502.5 2499.5 c 128,-1,10
 525 2522 525 2522 555 2522 c 2,11,-1
 1930 2522 l 2,12,13
 1960 2522 1960 2522 1982.5 2499.5 c 128,-1,14
 2005 2477 2005 2477 2005 2447 c 2,15,-1
 2005 214 l 2,0,1
1854 289 m 1,16,-1
 1854 2371 l 1,17,-1
 631 2371 l 1,18,-1
 631 289 l 1,19,-1
 1854 289 l 1,16,-1
EndSplineSet
EndChar

StartChar: Edot
Encoding: 278 278 249
Width: 3277
GlyphClass: 2
Flags: W
LayerCount: 2
Fore
SplineSet
2005 214 m 2,0,1
 2005 184 2005 184 1982.5 161.5 c 128,-1,2
 1960 139 1960 139 1930 139 c 2,3,-1
 555 139 l 2,4,5
 525 139 525 139 502.5 161.5 c 128,-1,6
 480 184 480 184 480 214 c 2,7,-1
 480 2447 l 2,8,9
 480 2477 480 2477 502.5 2499.5 c 128,-1,10
 525 2522 525 2522 555 2522 c 2,11,-1
 1930 2522 l 2,12,13
 1960 2522 1960 2522 1982.5 2499.5 c 128,-1,14
 2005 2477 2005 2477 2005 2447 c 2,15,-1
 2005 214 l 2,0,1
1854 289 m 1,16,-1
 1854 2371 l 1,17,-1
 631 2371 l 1,18,-1
 631 289 l 1,19,-1
 1854 289 l 1,16,-1
EndSplineSet
EndChar

StartChar: edot
Encoding: 279 279 250
Width: 3277
GlyphClass: 2
Flags: W
LayerCount: 2
Fore
SplineSet
2005 214 m 2,0,1
 2005 184 2005 184 1982.5 161.5 c 128,-1,2
 1960 139 1960 139 1930 139 c 2,3,-1
 555 139 l 2,4,5
 525 139 525 139 502.5 161.5 c 128,-1,6
 480 184 480 184 480 214 c 2,7,-1
 480 2447 l 2,8,9
 480 2477 480 2477 502.5 2499.5 c 128,-1,10
 525 2522 525 2522 555 2522 c 2,11,-1
 1930 2522 l 2,12,13
 1960 2522 1960 2522 1982.5 2499.5 c 128,-1,14
 2005 2477 2005 2477 2005 2447 c 2,15,-1
 2005 214 l 2,0,1
1854 289 m 1,16,-1
 1854 2371 l 1,17,-1
 631 2371 l 1,18,-1
 631 289 l 1,19,-1
 1854 289 l 1,16,-1
EndSplineSet
EndChar

StartChar: Eogonek
Encoding: 280 280 251
Width: 3277
GlyphClass: 2
Flags: W
LayerCount: 2
Fore
SplineSet
2005 214 m 2,0,1
 2005 184 2005 184 1982.5 161.5 c 128,-1,2
 1960 139 1960 139 1930 139 c 2,3,-1
 555 139 l 2,4,5
 525 139 525 139 502.5 161.5 c 128,-1,6
 480 184 480 184 480 214 c 2,7,-1
 480 2447 l 2,8,9
 480 2477 480 2477 502.5 2499.5 c 128,-1,10
 525 2522 525 2522 555 2522 c 2,11,-1
 1930 2522 l 2,12,13
 1960 2522 1960 2522 1982.5 2499.5 c 128,-1,14
 2005 2477 2005 2477 2005 2447 c 2,15,-1
 2005 214 l 2,0,1
1854 289 m 1,16,-1
 1854 2371 l 1,17,-1
 631 2371 l 1,18,-1
 631 289 l 1,19,-1
 1854 289 l 1,16,-1
EndSplineSet
EndChar

StartChar: eogonek
Encoding: 281 281 252
Width: 3277
GlyphClass: 2
Flags: W
LayerCount: 2
Fore
SplineSet
2005 214 m 2,0,1
 2005 184 2005 184 1982.5 161.5 c 128,-1,2
 1960 139 1960 139 1930 139 c 2,3,-1
 555 139 l 2,4,5
 525 139 525 139 502.5 161.5 c 128,-1,6
 480 184 480 184 480 214 c 2,7,-1
 480 2447 l 2,8,9
 480 2477 480 2477 502.5 2499.5 c 128,-1,10
 525 2522 525 2522 555 2522 c 2,11,-1
 1930 2522 l 2,12,13
 1960 2522 1960 2522 1982.5 2499.5 c 128,-1,14
 2005 2477 2005 2477 2005 2447 c 2,15,-1
 2005 214 l 2,0,1
1854 289 m 1,16,-1
 1854 2371 l 1,17,-1
 631 2371 l 1,18,-1
 631 289 l 1,19,-1
 1854 289 l 1,16,-1
EndSplineSet
EndChar

StartChar: Ecaron
Encoding: 282 282 253
Width: 3277
GlyphClass: 2
Flags: W
LayerCount: 2
Fore
SplineSet
2005 214 m 2,0,1
 2005 184 2005 184 1982.5 161.5 c 128,-1,2
 1960 139 1960 139 1930 139 c 2,3,-1
 555 139 l 2,4,5
 525 139 525 139 502.5 161.5 c 128,-1,6
 480 184 480 184 480 214 c 2,7,-1
 480 2447 l 2,8,9
 480 2477 480 2477 502.5 2499.5 c 128,-1,10
 525 2522 525 2522 555 2522 c 2,11,-1
 1930 2522 l 2,12,13
 1960 2522 1960 2522 1982.5 2499.5 c 128,-1,14
 2005 2477 2005 2477 2005 2447 c 2,15,-1
 2005 214 l 2,0,1
1854 289 m 1,16,-1
 1854 2371 l 1,17,-1
 631 2371 l 1,18,-1
 631 289 l 1,19,-1
 1854 289 l 1,16,-1
EndSplineSet
EndChar

StartChar: ecaron
Encoding: 283 283 254
Width: 3277
GlyphClass: 2
Flags: W
LayerCount: 2
Fore
SplineSet
2005 214 m 2,0,1
 2005 184 2005 184 1982.5 161.5 c 128,-1,2
 1960 139 1960 139 1930 139 c 2,3,-1
 555 139 l 2,4,5
 525 139 525 139 502.5 161.5 c 128,-1,6
 480 184 480 184 480 214 c 2,7,-1
 480 2447 l 2,8,9
 480 2477 480 2477 502.5 2499.5 c 128,-1,10
 525 2522 525 2522 555 2522 c 2,11,-1
 1930 2522 l 2,12,13
 1960 2522 1960 2522 1982.5 2499.5 c 128,-1,14
 2005 2477 2005 2477 2005 2447 c 2,15,-1
 2005 214 l 2,0,1
1854 289 m 1,16,-1
 1854 2371 l 1,17,-1
 631 2371 l 1,18,-1
 631 289 l 1,19,-1
 1854 289 l 1,16,-1
EndSplineSet
EndChar

StartChar: Gcircumflex
Encoding: 284 284 255
Width: 3277
GlyphClass: 2
Flags: W
LayerCount: 2
Fore
SplineSet
2005 214 m 2,0,1
 2005 184 2005 184 1982.5 161.5 c 128,-1,2
 1960 139 1960 139 1930 139 c 2,3,-1
 555 139 l 2,4,5
 525 139 525 139 502.5 161.5 c 128,-1,6
 480 184 480 184 480 214 c 2,7,-1
 480 2447 l 2,8,9
 480 2477 480 2477 502.5 2499.5 c 128,-1,10
 525 2522 525 2522 555 2522 c 2,11,-1
 1930 2522 l 2,12,13
 1960 2522 1960 2522 1982.5 2499.5 c 128,-1,14
 2005 2477 2005 2477 2005 2447 c 2,15,-1
 2005 214 l 2,0,1
1854 289 m 1,16,-1
 1854 2371 l 1,17,-1
 631 2371 l 1,18,-1
 631 289 l 1,19,-1
 1854 289 l 1,16,-1
EndSplineSet
EndChar

StartChar: gcircumflex
Encoding: 285 285 256
Width: 3277
GlyphClass: 2
Flags: W
LayerCount: 2
Fore
SplineSet
2005 214 m 2,0,1
 2005 184 2005 184 1982.5 161.5 c 128,-1,2
 1960 139 1960 139 1930 139 c 2,3,-1
 555 139 l 2,4,5
 525 139 525 139 502.5 161.5 c 128,-1,6
 480 184 480 184 480 214 c 2,7,-1
 480 2447 l 2,8,9
 480 2477 480 2477 502.5 2499.5 c 128,-1,10
 525 2522 525 2522 555 2522 c 2,11,-1
 1930 2522 l 2,12,13
 1960 2522 1960 2522 1982.5 2499.5 c 128,-1,14
 2005 2477 2005 2477 2005 2447 c 2,15,-1
 2005 214 l 2,0,1
1854 289 m 1,16,-1
 1854 2371 l 1,17,-1
 631 2371 l 1,18,-1
 631 289 l 1,19,-1
 1854 289 l 1,16,-1
EndSplineSet
EndChar

StartChar: Gbreve
Encoding: 286 286 257
Width: 3277
GlyphClass: 2
Flags: W
LayerCount: 2
Fore
SplineSet
2005 214 m 2,0,1
 2005 184 2005 184 1982.5 161.5 c 128,-1,2
 1960 139 1960 139 1930 139 c 2,3,-1
 555 139 l 2,4,5
 525 139 525 139 502.5 161.5 c 128,-1,6
 480 184 480 184 480 214 c 2,7,-1
 480 2447 l 2,8,9
 480 2477 480 2477 502.5 2499.5 c 128,-1,10
 525 2522 525 2522 555 2522 c 2,11,-1
 1930 2522 l 2,12,13
 1960 2522 1960 2522 1982.5 2499.5 c 128,-1,14
 2005 2477 2005 2477 2005 2447 c 2,15,-1
 2005 214 l 2,0,1
1854 289 m 1,16,-1
 1854 2371 l 1,17,-1
 631 2371 l 1,18,-1
 631 289 l 1,19,-1
 1854 289 l 1,16,-1
EndSplineSet
EndChar

StartChar: gbreve
Encoding: 287 287 258
Width: 3277
GlyphClass: 2
Flags: W
LayerCount: 2
Fore
SplineSet
2005 214 m 2,0,1
 2005 184 2005 184 1982.5 161.5 c 128,-1,2
 1960 139 1960 139 1930 139 c 2,3,-1
 555 139 l 2,4,5
 525 139 525 139 502.5 161.5 c 128,-1,6
 480 184 480 184 480 214 c 2,7,-1
 480 2447 l 2,8,9
 480 2477 480 2477 502.5 2499.5 c 128,-1,10
 525 2522 525 2522 555 2522 c 2,11,-1
 1930 2522 l 2,12,13
 1960 2522 1960 2522 1982.5 2499.5 c 128,-1,14
 2005 2477 2005 2477 2005 2447 c 2,15,-1
 2005 214 l 2,0,1
1854 289 m 1,16,-1
 1854 2371 l 1,17,-1
 631 2371 l 1,18,-1
 631 289 l 1,19,-1
 1854 289 l 1,16,-1
EndSplineSet
EndChar

StartChar: Gdot
Encoding: 288 288 259
Width: 3277
GlyphClass: 2
Flags: W
LayerCount: 2
Fore
SplineSet
2005 214 m 2,0,1
 2005 184 2005 184 1982.5 161.5 c 128,-1,2
 1960 139 1960 139 1930 139 c 2,3,-1
 555 139 l 2,4,5
 525 139 525 139 502.5 161.5 c 128,-1,6
 480 184 480 184 480 214 c 2,7,-1
 480 2447 l 2,8,9
 480 2477 480 2477 502.5 2499.5 c 128,-1,10
 525 2522 525 2522 555 2522 c 2,11,-1
 1930 2522 l 2,12,13
 1960 2522 1960 2522 1982.5 2499.5 c 128,-1,14
 2005 2477 2005 2477 2005 2447 c 2,15,-1
 2005 214 l 2,0,1
1854 289 m 1,16,-1
 1854 2371 l 1,17,-1
 631 2371 l 1,18,-1
 631 289 l 1,19,-1
 1854 289 l 1,16,-1
EndSplineSet
EndChar

StartChar: gdot
Encoding: 289 289 260
Width: 3277
GlyphClass: 2
Flags: W
LayerCount: 2
Fore
SplineSet
2005 214 m 2,0,1
 2005 184 2005 184 1982.5 161.5 c 128,-1,2
 1960 139 1960 139 1930 139 c 2,3,-1
 555 139 l 2,4,5
 525 139 525 139 502.5 161.5 c 128,-1,6
 480 184 480 184 480 214 c 2,7,-1
 480 2447 l 2,8,9
 480 2477 480 2477 502.5 2499.5 c 128,-1,10
 525 2522 525 2522 555 2522 c 2,11,-1
 1930 2522 l 2,12,13
 1960 2522 1960 2522 1982.5 2499.5 c 128,-1,14
 2005 2477 2005 2477 2005 2447 c 2,15,-1
 2005 214 l 2,0,1
1854 289 m 1,16,-1
 1854 2371 l 1,17,-1
 631 2371 l 1,18,-1
 631 289 l 1,19,-1
 1854 289 l 1,16,-1
EndSplineSet
EndChar

StartChar: Gcedilla
Encoding: 290 290 261
Width: 3277
GlyphClass: 2
Flags: W
LayerCount: 2
Fore
SplineSet
2005 214 m 2,0,1
 2005 184 2005 184 1982.5 161.5 c 128,-1,2
 1960 139 1960 139 1930 139 c 2,3,-1
 555 139 l 2,4,5
 525 139 525 139 502.5 161.5 c 128,-1,6
 480 184 480 184 480 214 c 2,7,-1
 480 2447 l 2,8,9
 480 2477 480 2477 502.5 2499.5 c 128,-1,10
 525 2522 525 2522 555 2522 c 2,11,-1
 1930 2522 l 2,12,13
 1960 2522 1960 2522 1982.5 2499.5 c 128,-1,14
 2005 2477 2005 2477 2005 2447 c 2,15,-1
 2005 214 l 2,0,1
1854 289 m 1,16,-1
 1854 2371 l 1,17,-1
 631 2371 l 1,18,-1
 631 289 l 1,19,-1
 1854 289 l 1,16,-1
EndSplineSet
EndChar

StartChar: gcedilla
Encoding: 291 291 262
Width: 3277
GlyphClass: 2
Flags: W
LayerCount: 2
Fore
SplineSet
2005 214 m 2,0,1
 2005 184 2005 184 1982.5 161.5 c 128,-1,2
 1960 139 1960 139 1930 139 c 2,3,-1
 555 139 l 2,4,5
 525 139 525 139 502.5 161.5 c 128,-1,6
 480 184 480 184 480 214 c 2,7,-1
 480 2447 l 2,8,9
 480 2477 480 2477 502.5 2499.5 c 128,-1,10
 525 2522 525 2522 555 2522 c 2,11,-1
 1930 2522 l 2,12,13
 1960 2522 1960 2522 1982.5 2499.5 c 128,-1,14
 2005 2477 2005 2477 2005 2447 c 2,15,-1
 2005 214 l 2,0,1
1854 289 m 1,16,-1
 1854 2371 l 1,17,-1
 631 2371 l 1,18,-1
 631 289 l 1,19,-1
 1854 289 l 1,16,-1
EndSplineSet
EndChar

StartChar: Hcircumflex
Encoding: 292 292 263
Width: 3277
GlyphClass: 2
Flags: W
LayerCount: 2
Fore
SplineSet
2005 214 m 2,0,1
 2005 184 2005 184 1982.5 161.5 c 128,-1,2
 1960 139 1960 139 1930 139 c 2,3,-1
 555 139 l 2,4,5
 525 139 525 139 502.5 161.5 c 128,-1,6
 480 184 480 184 480 214 c 2,7,-1
 480 2447 l 2,8,9
 480 2477 480 2477 502.5 2499.5 c 128,-1,10
 525 2522 525 2522 555 2522 c 2,11,-1
 1930 2522 l 2,12,13
 1960 2522 1960 2522 1982.5 2499.5 c 128,-1,14
 2005 2477 2005 2477 2005 2447 c 2,15,-1
 2005 214 l 2,0,1
1854 289 m 1,16,-1
 1854 2371 l 1,17,-1
 631 2371 l 1,18,-1
 631 289 l 1,19,-1
 1854 289 l 1,16,-1
EndSplineSet
EndChar

StartChar: hcircumflex
Encoding: 293 293 264
Width: 3277
GlyphClass: 2
Flags: W
LayerCount: 2
Fore
SplineSet
2005 214 m 2,0,1
 2005 184 2005 184 1982.5 161.5 c 128,-1,2
 1960 139 1960 139 1930 139 c 2,3,-1
 555 139 l 2,4,5
 525 139 525 139 502.5 161.5 c 128,-1,6
 480 184 480 184 480 214 c 2,7,-1
 480 2447 l 2,8,9
 480 2477 480 2477 502.5 2499.5 c 128,-1,10
 525 2522 525 2522 555 2522 c 2,11,-1
 1930 2522 l 2,12,13
 1960 2522 1960 2522 1982.5 2499.5 c 128,-1,14
 2005 2477 2005 2477 2005 2447 c 2,15,-1
 2005 214 l 2,0,1
1854 289 m 1,16,-1
 1854 2371 l 1,17,-1
 631 2371 l 1,18,-1
 631 289 l 1,19,-1
 1854 289 l 1,16,-1
EndSplineSet
EndChar

StartChar: Hbar
Encoding: 294 294 265
Width: 3277
GlyphClass: 2
Flags: W
LayerCount: 2
Fore
SplineSet
2005 214 m 2,0,1
 2005 184 2005 184 1982.5 161.5 c 128,-1,2
 1960 139 1960 139 1930 139 c 2,3,-1
 555 139 l 2,4,5
 525 139 525 139 502.5 161.5 c 128,-1,6
 480 184 480 184 480 214 c 2,7,-1
 480 2447 l 2,8,9
 480 2477 480 2477 502.5 2499.5 c 128,-1,10
 525 2522 525 2522 555 2522 c 2,11,-1
 1930 2522 l 2,12,13
 1960 2522 1960 2522 1982.5 2499.5 c 128,-1,14
 2005 2477 2005 2477 2005 2447 c 2,15,-1
 2005 214 l 2,0,1
1854 289 m 1,16,-1
 1854 2371 l 1,17,-1
 631 2371 l 1,18,-1
 631 289 l 1,19,-1
 1854 289 l 1,16,-1
EndSplineSet
EndChar

StartChar: hbar
Encoding: 295 295 266
Width: 3277
GlyphClass: 2
Flags: W
LayerCount: 2
Fore
SplineSet
2005 214 m 2,0,1
 2005 184 2005 184 1982.5 161.5 c 128,-1,2
 1960 139 1960 139 1930 139 c 2,3,-1
 555 139 l 2,4,5
 525 139 525 139 502.5 161.5 c 128,-1,6
 480 184 480 184 480 214 c 2,7,-1
 480 2447 l 2,8,9
 480 2477 480 2477 502.5 2499.5 c 128,-1,10
 525 2522 525 2522 555 2522 c 2,11,-1
 1930 2522 l 2,12,13
 1960 2522 1960 2522 1982.5 2499.5 c 128,-1,14
 2005 2477 2005 2477 2005 2447 c 2,15,-1
 2005 214 l 2,0,1
1854 289 m 1,16,-1
 1854 2371 l 1,17,-1
 631 2371 l 1,18,-1
 631 289 l 1,19,-1
 1854 289 l 1,16,-1
EndSplineSet
EndChar

StartChar: Itilde
Encoding: 296 296 267
Width: 3277
GlyphClass: 2
Flags: W
LayerCount: 2
Fore
SplineSet
2005 214 m 2,0,1
 2005 184 2005 184 1982.5 161.5 c 128,-1,2
 1960 139 1960 139 1930 139 c 2,3,-1
 555 139 l 2,4,5
 525 139 525 139 502.5 161.5 c 128,-1,6
 480 184 480 184 480 214 c 2,7,-1
 480 2447 l 2,8,9
 480 2477 480 2477 502.5 2499.5 c 128,-1,10
 525 2522 525 2522 555 2522 c 2,11,-1
 1930 2522 l 2,12,13
 1960 2522 1960 2522 1982.5 2499.5 c 128,-1,14
 2005 2477 2005 2477 2005 2447 c 2,15,-1
 2005 214 l 2,0,1
1854 289 m 1,16,-1
 1854 2371 l 1,17,-1
 631 2371 l 1,18,-1
 631 289 l 1,19,-1
 1854 289 l 1,16,-1
EndSplineSet
EndChar

StartChar: itilde
Encoding: 297 297 268
Width: 3277
GlyphClass: 2
Flags: W
LayerCount: 2
Fore
SplineSet
2005 214 m 2,0,1
 2005 184 2005 184 1982.5 161.5 c 128,-1,2
 1960 139 1960 139 1930 139 c 2,3,-1
 555 139 l 2,4,5
 525 139 525 139 502.5 161.5 c 128,-1,6
 480 184 480 184 480 214 c 2,7,-1
 480 2447 l 2,8,9
 480 2477 480 2477 502.5 2499.5 c 128,-1,10
 525 2522 525 2522 555 2522 c 2,11,-1
 1930 2522 l 2,12,13
 1960 2522 1960 2522 1982.5 2499.5 c 128,-1,14
 2005 2477 2005 2477 2005 2447 c 2,15,-1
 2005 214 l 2,0,1
1854 289 m 1,16,-1
 1854 2371 l 1,17,-1
 631 2371 l 1,18,-1
 631 289 l 1,19,-1
 1854 289 l 1,16,-1
EndSplineSet
EndChar

StartChar: Imacron
Encoding: 298 298 269
Width: 3277
GlyphClass: 2
Flags: W
LayerCount: 2
Fore
SplineSet
2005 214 m 2,0,1
 2005 184 2005 184 1982.5 161.5 c 128,-1,2
 1960 139 1960 139 1930 139 c 2,3,-1
 555 139 l 2,4,5
 525 139 525 139 502.5 161.5 c 128,-1,6
 480 184 480 184 480 214 c 2,7,-1
 480 2447 l 2,8,9
 480 2477 480 2477 502.5 2499.5 c 128,-1,10
 525 2522 525 2522 555 2522 c 2,11,-1
 1930 2522 l 2,12,13
 1960 2522 1960 2522 1982.5 2499.5 c 128,-1,14
 2005 2477 2005 2477 2005 2447 c 2,15,-1
 2005 214 l 2,0,1
1854 289 m 1,16,-1
 1854 2371 l 1,17,-1
 631 2371 l 1,18,-1
 631 289 l 1,19,-1
 1854 289 l 1,16,-1
EndSplineSet
EndChar

StartChar: imacron
Encoding: 299 299 270
Width: 3277
GlyphClass: 2
Flags: W
LayerCount: 2
Fore
SplineSet
2005 214 m 2,0,1
 2005 184 2005 184 1982.5 161.5 c 128,-1,2
 1960 139 1960 139 1930 139 c 2,3,-1
 555 139 l 2,4,5
 525 139 525 139 502.5 161.5 c 128,-1,6
 480 184 480 184 480 214 c 2,7,-1
 480 2447 l 2,8,9
 480 2477 480 2477 502.5 2499.5 c 128,-1,10
 525 2522 525 2522 555 2522 c 2,11,-1
 1930 2522 l 2,12,13
 1960 2522 1960 2522 1982.5 2499.5 c 128,-1,14
 2005 2477 2005 2477 2005 2447 c 2,15,-1
 2005 214 l 2,0,1
1854 289 m 1,16,-1
 1854 2371 l 1,17,-1
 631 2371 l 1,18,-1
 631 289 l 1,19,-1
 1854 289 l 1,16,-1
EndSplineSet
EndChar

StartChar: Ibreve
Encoding: 300 300 271
Width: 3277
GlyphClass: 2
Flags: W
LayerCount: 2
Fore
SplineSet
2005 214 m 2,0,1
 2005 184 2005 184 1982.5 161.5 c 128,-1,2
 1960 139 1960 139 1930 139 c 2,3,-1
 555 139 l 2,4,5
 525 139 525 139 502.5 161.5 c 128,-1,6
 480 184 480 184 480 214 c 2,7,-1
 480 2447 l 2,8,9
 480 2477 480 2477 502.5 2499.5 c 128,-1,10
 525 2522 525 2522 555 2522 c 2,11,-1
 1930 2522 l 2,12,13
 1960 2522 1960 2522 1982.5 2499.5 c 128,-1,14
 2005 2477 2005 2477 2005 2447 c 2,15,-1
 2005 214 l 2,0,1
1854 289 m 1,16,-1
 1854 2371 l 1,17,-1
 631 2371 l 1,18,-1
 631 289 l 1,19,-1
 1854 289 l 1,16,-1
EndSplineSet
EndChar

StartChar: ibreve
Encoding: 301 301 272
Width: 3277
GlyphClass: 2
Flags: W
LayerCount: 2
Fore
SplineSet
2005 214 m 2,0,1
 2005 184 2005 184 1982.5 161.5 c 128,-1,2
 1960 139 1960 139 1930 139 c 2,3,-1
 555 139 l 2,4,5
 525 139 525 139 502.5 161.5 c 128,-1,6
 480 184 480 184 480 214 c 2,7,-1
 480 2447 l 2,8,9
 480 2477 480 2477 502.5 2499.5 c 128,-1,10
 525 2522 525 2522 555 2522 c 2,11,-1
 1930 2522 l 2,12,13
 1960 2522 1960 2522 1982.5 2499.5 c 128,-1,14
 2005 2477 2005 2477 2005 2447 c 2,15,-1
 2005 214 l 2,0,1
1854 289 m 1,16,-1
 1854 2371 l 1,17,-1
 631 2371 l 1,18,-1
 631 289 l 1,19,-1
 1854 289 l 1,16,-1
EndSplineSet
EndChar

StartChar: Iogonek
Encoding: 302 302 273
Width: 3277
GlyphClass: 2
Flags: W
LayerCount: 2
Fore
SplineSet
2005 214 m 2,0,1
 2005 184 2005 184 1982.5 161.5 c 128,-1,2
 1960 139 1960 139 1930 139 c 2,3,-1
 555 139 l 2,4,5
 525 139 525 139 502.5 161.5 c 128,-1,6
 480 184 480 184 480 214 c 2,7,-1
 480 2447 l 2,8,9
 480 2477 480 2477 502.5 2499.5 c 128,-1,10
 525 2522 525 2522 555 2522 c 2,11,-1
 1930 2522 l 2,12,13
 1960 2522 1960 2522 1982.5 2499.5 c 128,-1,14
 2005 2477 2005 2477 2005 2447 c 2,15,-1
 2005 214 l 2,0,1
1854 289 m 1,16,-1
 1854 2371 l 1,17,-1
 631 2371 l 1,18,-1
 631 289 l 1,19,-1
 1854 289 l 1,16,-1
EndSplineSet
EndChar

StartChar: iogonek
Encoding: 303 303 274
Width: 3277
GlyphClass: 2
Flags: W
LayerCount: 2
Fore
SplineSet
2005 214 m 2,0,1
 2005 184 2005 184 1982.5 161.5 c 128,-1,2
 1960 139 1960 139 1930 139 c 2,3,-1
 555 139 l 2,4,5
 525 139 525 139 502.5 161.5 c 128,-1,6
 480 184 480 184 480 214 c 2,7,-1
 480 2447 l 2,8,9
 480 2477 480 2477 502.5 2499.5 c 128,-1,10
 525 2522 525 2522 555 2522 c 2,11,-1
 1930 2522 l 2,12,13
 1960 2522 1960 2522 1982.5 2499.5 c 128,-1,14
 2005 2477 2005 2477 2005 2447 c 2,15,-1
 2005 214 l 2,0,1
1854 289 m 1,16,-1
 1854 2371 l 1,17,-1
 631 2371 l 1,18,-1
 631 289 l 1,19,-1
 1854 289 l 1,16,-1
EndSplineSet
EndChar

StartChar: Idotaccent
Encoding: 304 304 275
Width: 3277
GlyphClass: 2
Flags: W
LayerCount: 2
Fore
SplineSet
2005 214 m 2,0,1
 2005 184 2005 184 1982.5 161.5 c 128,-1,2
 1960 139 1960 139 1930 139 c 2,3,-1
 555 139 l 2,4,5
 525 139 525 139 502.5 161.5 c 128,-1,6
 480 184 480 184 480 214 c 2,7,-1
 480 2447 l 2,8,9
 480 2477 480 2477 502.5 2499.5 c 128,-1,10
 525 2522 525 2522 555 2522 c 2,11,-1
 1930 2522 l 2,12,13
 1960 2522 1960 2522 1982.5 2499.5 c 128,-1,14
 2005 2477 2005 2477 2005 2447 c 2,15,-1
 2005 214 l 2,0,1
1854 289 m 1,16,-1
 1854 2371 l 1,17,-1
 631 2371 l 1,18,-1
 631 289 l 1,19,-1
 1854 289 l 1,16,-1
EndSplineSet
EndChar

StartChar: dotlessi
Encoding: 305 305 276
Width: 3277
GlyphClass: 2
Flags: W
LayerCount: 2
Fore
SplineSet
2005 214 m 2,0,1
 2005 184 2005 184 1982.5 161.5 c 128,-1,2
 1960 139 1960 139 1930 139 c 2,3,-1
 555 139 l 2,4,5
 525 139 525 139 502.5 161.5 c 128,-1,6
 480 184 480 184 480 214 c 2,7,-1
 480 2447 l 2,8,9
 480 2477 480 2477 502.5 2499.5 c 128,-1,10
 525 2522 525 2522 555 2522 c 2,11,-1
 1930 2522 l 2,12,13
 1960 2522 1960 2522 1982.5 2499.5 c 128,-1,14
 2005 2477 2005 2477 2005 2447 c 2,15,-1
 2005 214 l 2,0,1
1854 289 m 1,16,-1
 1854 2371 l 1,17,-1
 631 2371 l 1,18,-1
 631 289 l 1,19,-1
 1854 289 l 1,16,-1
EndSplineSet
EndChar

StartChar: IJ
Encoding: 306 306 277
Width: 3277
GlyphClass: 2
Flags: W
LayerCount: 2
Fore
SplineSet
2005 214 m 2,0,1
 2005 184 2005 184 1982.5 161.5 c 128,-1,2
 1960 139 1960 139 1930 139 c 2,3,-1
 555 139 l 2,4,5
 525 139 525 139 502.5 161.5 c 128,-1,6
 480 184 480 184 480 214 c 2,7,-1
 480 2447 l 2,8,9
 480 2477 480 2477 502.5 2499.5 c 128,-1,10
 525 2522 525 2522 555 2522 c 2,11,-1
 1930 2522 l 2,12,13
 1960 2522 1960 2522 1982.5 2499.5 c 128,-1,14
 2005 2477 2005 2477 2005 2447 c 2,15,-1
 2005 214 l 2,0,1
1854 289 m 1,16,-1
 1854 2371 l 1,17,-1
 631 2371 l 1,18,-1
 631 289 l 1,19,-1
 1854 289 l 1,16,-1
EndSplineSet
EndChar

StartChar: ij
Encoding: 307 307 278
Width: 3277
GlyphClass: 2
Flags: W
LayerCount: 2
Fore
SplineSet
2005 214 m 2,0,1
 2005 184 2005 184 1982.5 161.5 c 128,-1,2
 1960 139 1960 139 1930 139 c 2,3,-1
 555 139 l 2,4,5
 525 139 525 139 502.5 161.5 c 128,-1,6
 480 184 480 184 480 214 c 2,7,-1
 480 2447 l 2,8,9
 480 2477 480 2477 502.5 2499.5 c 128,-1,10
 525 2522 525 2522 555 2522 c 2,11,-1
 1930 2522 l 2,12,13
 1960 2522 1960 2522 1982.5 2499.5 c 128,-1,14
 2005 2477 2005 2477 2005 2447 c 2,15,-1
 2005 214 l 2,0,1
1854 289 m 1,16,-1
 1854 2371 l 1,17,-1
 631 2371 l 1,18,-1
 631 289 l 1,19,-1
 1854 289 l 1,16,-1
EndSplineSet
EndChar

StartChar: Jcircumflex
Encoding: 308 308 279
Width: 3277
GlyphClass: 2
Flags: W
LayerCount: 2
Fore
SplineSet
2005 214 m 2,0,1
 2005 184 2005 184 1982.5 161.5 c 128,-1,2
 1960 139 1960 139 1930 139 c 2,3,-1
 555 139 l 2,4,5
 525 139 525 139 502.5 161.5 c 128,-1,6
 480 184 480 184 480 214 c 2,7,-1
 480 2447 l 2,8,9
 480 2477 480 2477 502.5 2499.5 c 128,-1,10
 525 2522 525 2522 555 2522 c 2,11,-1
 1930 2522 l 2,12,13
 1960 2522 1960 2522 1982.5 2499.5 c 128,-1,14
 2005 2477 2005 2477 2005 2447 c 2,15,-1
 2005 214 l 2,0,1
1854 289 m 1,16,-1
 1854 2371 l 1,17,-1
 631 2371 l 1,18,-1
 631 289 l 1,19,-1
 1854 289 l 1,16,-1
EndSplineSet
EndChar

StartChar: jcircumflex
Encoding: 309 309 280
Width: 3277
GlyphClass: 2
Flags: W
LayerCount: 2
Fore
SplineSet
2005 214 m 2,0,1
 2005 184 2005 184 1982.5 161.5 c 128,-1,2
 1960 139 1960 139 1930 139 c 2,3,-1
 555 139 l 2,4,5
 525 139 525 139 502.5 161.5 c 128,-1,6
 480 184 480 184 480 214 c 2,7,-1
 480 2447 l 2,8,9
 480 2477 480 2477 502.5 2499.5 c 128,-1,10
 525 2522 525 2522 555 2522 c 2,11,-1
 1930 2522 l 2,12,13
 1960 2522 1960 2522 1982.5 2499.5 c 128,-1,14
 2005 2477 2005 2477 2005 2447 c 2,15,-1
 2005 214 l 2,0,1
1854 289 m 1,16,-1
 1854 2371 l 1,17,-1
 631 2371 l 1,18,-1
 631 289 l 1,19,-1
 1854 289 l 1,16,-1
EndSplineSet
EndChar

StartChar: Kcedilla
Encoding: 310 310 281
Width: 3277
GlyphClass: 2
Flags: W
LayerCount: 2
Fore
SplineSet
2005 214 m 2,0,1
 2005 184 2005 184 1982.5 161.5 c 128,-1,2
 1960 139 1960 139 1930 139 c 2,3,-1
 555 139 l 2,4,5
 525 139 525 139 502.5 161.5 c 128,-1,6
 480 184 480 184 480 214 c 2,7,-1
 480 2447 l 2,8,9
 480 2477 480 2477 502.5 2499.5 c 128,-1,10
 525 2522 525 2522 555 2522 c 2,11,-1
 1930 2522 l 2,12,13
 1960 2522 1960 2522 1982.5 2499.5 c 128,-1,14
 2005 2477 2005 2477 2005 2447 c 2,15,-1
 2005 214 l 2,0,1
1854 289 m 1,16,-1
 1854 2371 l 1,17,-1
 631 2371 l 1,18,-1
 631 289 l 1,19,-1
 1854 289 l 1,16,-1
EndSplineSet
EndChar

StartChar: kcedilla
Encoding: 311 311 282
Width: 3277
GlyphClass: 2
Flags: W
LayerCount: 2
Fore
SplineSet
2005 214 m 2,0,1
 2005 184 2005 184 1982.5 161.5 c 128,-1,2
 1960 139 1960 139 1930 139 c 2,3,-1
 555 139 l 2,4,5
 525 139 525 139 502.5 161.5 c 128,-1,6
 480 184 480 184 480 214 c 2,7,-1
 480 2447 l 2,8,9
 480 2477 480 2477 502.5 2499.5 c 128,-1,10
 525 2522 525 2522 555 2522 c 2,11,-1
 1930 2522 l 2,12,13
 1960 2522 1960 2522 1982.5 2499.5 c 128,-1,14
 2005 2477 2005 2477 2005 2447 c 2,15,-1
 2005 214 l 2,0,1
1854 289 m 1,16,-1
 1854 2371 l 1,17,-1
 631 2371 l 1,18,-1
 631 289 l 1,19,-1
 1854 289 l 1,16,-1
EndSplineSet
EndChar

StartChar: kgreenlandic
Encoding: 312 312 283
Width: 3277
GlyphClass: 2
Flags: W
LayerCount: 2
Fore
SplineSet
2005 214 m 2,0,1
 2005 184 2005 184 1982.5 161.5 c 128,-1,2
 1960 139 1960 139 1930 139 c 2,3,-1
 555 139 l 2,4,5
 525 139 525 139 502.5 161.5 c 128,-1,6
 480 184 480 184 480 214 c 2,7,-1
 480 2447 l 2,8,9
 480 2477 480 2477 502.5 2499.5 c 128,-1,10
 525 2522 525 2522 555 2522 c 2,11,-1
 1930 2522 l 2,12,13
 1960 2522 1960 2522 1982.5 2499.5 c 128,-1,14
 2005 2477 2005 2477 2005 2447 c 2,15,-1
 2005 214 l 2,0,1
1854 289 m 1,16,-1
 1854 2371 l 1,17,-1
 631 2371 l 1,18,-1
 631 289 l 1,19,-1
 1854 289 l 1,16,-1
EndSplineSet
EndChar

StartChar: Lacute
Encoding: 313 313 284
Width: 3277
GlyphClass: 2
Flags: W
LayerCount: 2
Fore
SplineSet
2005 214 m 2,0,1
 2005 184 2005 184 1982.5 161.5 c 128,-1,2
 1960 139 1960 139 1930 139 c 2,3,-1
 555 139 l 2,4,5
 525 139 525 139 502.5 161.5 c 128,-1,6
 480 184 480 184 480 214 c 2,7,-1
 480 2447 l 2,8,9
 480 2477 480 2477 502.5 2499.5 c 128,-1,10
 525 2522 525 2522 555 2522 c 2,11,-1
 1930 2522 l 2,12,13
 1960 2522 1960 2522 1982.5 2499.5 c 128,-1,14
 2005 2477 2005 2477 2005 2447 c 2,15,-1
 2005 214 l 2,0,1
1854 289 m 1,16,-1
 1854 2371 l 1,17,-1
 631 2371 l 1,18,-1
 631 289 l 1,19,-1
 1854 289 l 1,16,-1
EndSplineSet
EndChar

StartChar: lacute
Encoding: 314 314 285
Width: 3277
GlyphClass: 2
Flags: W
LayerCount: 2
Fore
SplineSet
2005 214 m 2,0,1
 2005 184 2005 184 1982.5 161.5 c 128,-1,2
 1960 139 1960 139 1930 139 c 2,3,-1
 555 139 l 2,4,5
 525 139 525 139 502.5 161.5 c 128,-1,6
 480 184 480 184 480 214 c 2,7,-1
 480 2447 l 2,8,9
 480 2477 480 2477 502.5 2499.5 c 128,-1,10
 525 2522 525 2522 555 2522 c 2,11,-1
 1930 2522 l 2,12,13
 1960 2522 1960 2522 1982.5 2499.5 c 128,-1,14
 2005 2477 2005 2477 2005 2447 c 2,15,-1
 2005 214 l 2,0,1
1854 289 m 1,16,-1
 1854 2371 l 1,17,-1
 631 2371 l 1,18,-1
 631 289 l 1,19,-1
 1854 289 l 1,16,-1
EndSplineSet
EndChar

StartChar: Lcedilla
Encoding: 315 315 286
Width: 3277
GlyphClass: 2
Flags: W
LayerCount: 2
Fore
SplineSet
2005 214 m 2,0,1
 2005 184 2005 184 1982.5 161.5 c 128,-1,2
 1960 139 1960 139 1930 139 c 2,3,-1
 555 139 l 2,4,5
 525 139 525 139 502.5 161.5 c 128,-1,6
 480 184 480 184 480 214 c 2,7,-1
 480 2447 l 2,8,9
 480 2477 480 2477 502.5 2499.5 c 128,-1,10
 525 2522 525 2522 555 2522 c 2,11,-1
 1930 2522 l 2,12,13
 1960 2522 1960 2522 1982.5 2499.5 c 128,-1,14
 2005 2477 2005 2477 2005 2447 c 2,15,-1
 2005 214 l 2,0,1
1854 289 m 1,16,-1
 1854 2371 l 1,17,-1
 631 2371 l 1,18,-1
 631 289 l 1,19,-1
 1854 289 l 1,16,-1
EndSplineSet
EndChar

StartChar: lcedilla
Encoding: 316 316 287
Width: 3277
GlyphClass: 2
Flags: W
LayerCount: 2
Fore
SplineSet
2005 214 m 2,0,1
 2005 184 2005 184 1982.5 161.5 c 128,-1,2
 1960 139 1960 139 1930 139 c 2,3,-1
 555 139 l 2,4,5
 525 139 525 139 502.5 161.5 c 128,-1,6
 480 184 480 184 480 214 c 2,7,-1
 480 2447 l 2,8,9
 480 2477 480 2477 502.5 2499.5 c 128,-1,10
 525 2522 525 2522 555 2522 c 2,11,-1
 1930 2522 l 2,12,13
 1960 2522 1960 2522 1982.5 2499.5 c 128,-1,14
 2005 2477 2005 2477 2005 2447 c 2,15,-1
 2005 214 l 2,0,1
1854 289 m 1,16,-1
 1854 2371 l 1,17,-1
 631 2371 l 1,18,-1
 631 289 l 1,19,-1
 1854 289 l 1,16,-1
EndSplineSet
EndChar

StartChar: Lcaron
Encoding: 317 317 288
Width: 3277
GlyphClass: 2
Flags: W
LayerCount: 2
Fore
SplineSet
2005 214 m 2,0,1
 2005 184 2005 184 1982.5 161.5 c 128,-1,2
 1960 139 1960 139 1930 139 c 2,3,-1
 555 139 l 2,4,5
 525 139 525 139 502.5 161.5 c 128,-1,6
 480 184 480 184 480 214 c 2,7,-1
 480 2447 l 2,8,9
 480 2477 480 2477 502.5 2499.5 c 128,-1,10
 525 2522 525 2522 555 2522 c 2,11,-1
 1930 2522 l 2,12,13
 1960 2522 1960 2522 1982.5 2499.5 c 128,-1,14
 2005 2477 2005 2477 2005 2447 c 2,15,-1
 2005 214 l 2,0,1
1854 289 m 1,16,-1
 1854 2371 l 1,17,-1
 631 2371 l 1,18,-1
 631 289 l 1,19,-1
 1854 289 l 1,16,-1
EndSplineSet
EndChar

StartChar: lcaron
Encoding: 318 318 289
Width: 3277
GlyphClass: 2
Flags: W
LayerCount: 2
Fore
SplineSet
2005 214 m 2,0,1
 2005 184 2005 184 1982.5 161.5 c 128,-1,2
 1960 139 1960 139 1930 139 c 2,3,-1
 555 139 l 2,4,5
 525 139 525 139 502.5 161.5 c 128,-1,6
 480 184 480 184 480 214 c 2,7,-1
 480 2447 l 2,8,9
 480 2477 480 2477 502.5 2499.5 c 128,-1,10
 525 2522 525 2522 555 2522 c 2,11,-1
 1930 2522 l 2,12,13
 1960 2522 1960 2522 1982.5 2499.5 c 128,-1,14
 2005 2477 2005 2477 2005 2447 c 2,15,-1
 2005 214 l 2,0,1
1854 289 m 1,16,-1
 1854 2371 l 1,17,-1
 631 2371 l 1,18,-1
 631 289 l 1,19,-1
 1854 289 l 1,16,-1
EndSplineSet
EndChar

StartChar: Ldot
Encoding: 319 319 290
Width: 3277
GlyphClass: 2
Flags: W
LayerCount: 2
Fore
SplineSet
2005 214 m 2,0,1
 2005 184 2005 184 1982.5 161.5 c 128,-1,2
 1960 139 1960 139 1930 139 c 2,3,-1
 555 139 l 2,4,5
 525 139 525 139 502.5 161.5 c 128,-1,6
 480 184 480 184 480 214 c 2,7,-1
 480 2447 l 2,8,9
 480 2477 480 2477 502.5 2499.5 c 128,-1,10
 525 2522 525 2522 555 2522 c 2,11,-1
 1930 2522 l 2,12,13
 1960 2522 1960 2522 1982.5 2499.5 c 128,-1,14
 2005 2477 2005 2477 2005 2447 c 2,15,-1
 2005 214 l 2,0,1
1854 289 m 1,16,-1
 1854 2371 l 1,17,-1
 631 2371 l 1,18,-1
 631 289 l 1,19,-1
 1854 289 l 1,16,-1
EndSplineSet
EndChar

StartChar: ldot
Encoding: 320 320 291
Width: 3277
GlyphClass: 2
Flags: W
LayerCount: 2
Fore
SplineSet
2005 214 m 2,0,1
 2005 184 2005 184 1982.5 161.5 c 128,-1,2
 1960 139 1960 139 1930 139 c 2,3,-1
 555 139 l 2,4,5
 525 139 525 139 502.5 161.5 c 128,-1,6
 480 184 480 184 480 214 c 2,7,-1
 480 2447 l 2,8,9
 480 2477 480 2477 502.5 2499.5 c 128,-1,10
 525 2522 525 2522 555 2522 c 2,11,-1
 1930 2522 l 2,12,13
 1960 2522 1960 2522 1982.5 2499.5 c 128,-1,14
 2005 2477 2005 2477 2005 2447 c 2,15,-1
 2005 214 l 2,0,1
1854 289 m 1,16,-1
 1854 2371 l 1,17,-1
 631 2371 l 1,18,-1
 631 289 l 1,19,-1
 1854 289 l 1,16,-1
EndSplineSet
EndChar

StartChar: Lslash
Encoding: 321 321 292
Width: 3277
GlyphClass: 2
Flags: W
LayerCount: 2
Fore
SplineSet
2005 214 m 2,0,1
 2005 184 2005 184 1982.5 161.5 c 128,-1,2
 1960 139 1960 139 1930 139 c 2,3,-1
 555 139 l 2,4,5
 525 139 525 139 502.5 161.5 c 128,-1,6
 480 184 480 184 480 214 c 2,7,-1
 480 2447 l 2,8,9
 480 2477 480 2477 502.5 2499.5 c 128,-1,10
 525 2522 525 2522 555 2522 c 2,11,-1
 1930 2522 l 2,12,13
 1960 2522 1960 2522 1982.5 2499.5 c 128,-1,14
 2005 2477 2005 2477 2005 2447 c 2,15,-1
 2005 214 l 2,0,1
1854 289 m 1,16,-1
 1854 2371 l 1,17,-1
 631 2371 l 1,18,-1
 631 289 l 1,19,-1
 1854 289 l 1,16,-1
EndSplineSet
EndChar

StartChar: lslash
Encoding: 322 322 293
Width: 3277
GlyphClass: 2
Flags: W
LayerCount: 2
Fore
SplineSet
2005 214 m 2,0,1
 2005 184 2005 184 1982.5 161.5 c 128,-1,2
 1960 139 1960 139 1930 139 c 2,3,-1
 555 139 l 2,4,5
 525 139 525 139 502.5 161.5 c 128,-1,6
 480 184 480 184 480 214 c 2,7,-1
 480 2447 l 2,8,9
 480 2477 480 2477 502.5 2499.5 c 128,-1,10
 525 2522 525 2522 555 2522 c 2,11,-1
 1930 2522 l 2,12,13
 1960 2522 1960 2522 1982.5 2499.5 c 128,-1,14
 2005 2477 2005 2477 2005 2447 c 2,15,-1
 2005 214 l 2,0,1
1854 289 m 1,16,-1
 1854 2371 l 1,17,-1
 631 2371 l 1,18,-1
 631 289 l 1,19,-1
 1854 289 l 1,16,-1
EndSplineSet
EndChar

StartChar: Nacute
Encoding: 323 323 294
Width: 3277
GlyphClass: 2
Flags: W
LayerCount: 2
Fore
SplineSet
2005 214 m 2,0,1
 2005 184 2005 184 1982.5 161.5 c 128,-1,2
 1960 139 1960 139 1930 139 c 2,3,-1
 555 139 l 2,4,5
 525 139 525 139 502.5 161.5 c 128,-1,6
 480 184 480 184 480 214 c 2,7,-1
 480 2447 l 2,8,9
 480 2477 480 2477 502.5 2499.5 c 128,-1,10
 525 2522 525 2522 555 2522 c 2,11,-1
 1930 2522 l 2,12,13
 1960 2522 1960 2522 1982.5 2499.5 c 128,-1,14
 2005 2477 2005 2477 2005 2447 c 2,15,-1
 2005 214 l 2,0,1
1854 289 m 1,16,-1
 1854 2371 l 1,17,-1
 631 2371 l 1,18,-1
 631 289 l 1,19,-1
 1854 289 l 1,16,-1
EndSplineSet
EndChar

StartChar: nacute
Encoding: 324 324 295
Width: 3277
GlyphClass: 2
Flags: W
LayerCount: 2
Fore
SplineSet
2005 214 m 2,0,1
 2005 184 2005 184 1982.5 161.5 c 128,-1,2
 1960 139 1960 139 1930 139 c 2,3,-1
 555 139 l 2,4,5
 525 139 525 139 502.5 161.5 c 128,-1,6
 480 184 480 184 480 214 c 2,7,-1
 480 2447 l 2,8,9
 480 2477 480 2477 502.5 2499.5 c 128,-1,10
 525 2522 525 2522 555 2522 c 2,11,-1
 1930 2522 l 2,12,13
 1960 2522 1960 2522 1982.5 2499.5 c 128,-1,14
 2005 2477 2005 2477 2005 2447 c 2,15,-1
 2005 214 l 2,0,1
1854 289 m 1,16,-1
 1854 2371 l 1,17,-1
 631 2371 l 1,18,-1
 631 289 l 1,19,-1
 1854 289 l 1,16,-1
EndSplineSet
EndChar

StartChar: Ncedilla
Encoding: 325 325 296
Width: 3277
GlyphClass: 2
Flags: W
LayerCount: 2
Fore
SplineSet
2005 214 m 2,0,1
 2005 184 2005 184 1982.5 161.5 c 128,-1,2
 1960 139 1960 139 1930 139 c 2,3,-1
 555 139 l 2,4,5
 525 139 525 139 502.5 161.5 c 128,-1,6
 480 184 480 184 480 214 c 2,7,-1
 480 2447 l 2,8,9
 480 2477 480 2477 502.5 2499.5 c 128,-1,10
 525 2522 525 2522 555 2522 c 2,11,-1
 1930 2522 l 2,12,13
 1960 2522 1960 2522 1982.5 2499.5 c 128,-1,14
 2005 2477 2005 2477 2005 2447 c 2,15,-1
 2005 214 l 2,0,1
1854 289 m 1,16,-1
 1854 2371 l 1,17,-1
 631 2371 l 1,18,-1
 631 289 l 1,19,-1
 1854 289 l 1,16,-1
EndSplineSet
EndChar

StartChar: ncedilla
Encoding: 326 326 297
Width: 3277
GlyphClass: 2
Flags: W
LayerCount: 2
Fore
SplineSet
2005 214 m 2,0,1
 2005 184 2005 184 1982.5 161.5 c 128,-1,2
 1960 139 1960 139 1930 139 c 2,3,-1
 555 139 l 2,4,5
 525 139 525 139 502.5 161.5 c 128,-1,6
 480 184 480 184 480 214 c 2,7,-1
 480 2447 l 2,8,9
 480 2477 480 2477 502.5 2499.5 c 128,-1,10
 525 2522 525 2522 555 2522 c 2,11,-1
 1930 2522 l 2,12,13
 1960 2522 1960 2522 1982.5 2499.5 c 128,-1,14
 2005 2477 2005 2477 2005 2447 c 2,15,-1
 2005 214 l 2,0,1
1854 289 m 1,16,-1
 1854 2371 l 1,17,-1
 631 2371 l 1,18,-1
 631 289 l 1,19,-1
 1854 289 l 1,16,-1
EndSplineSet
EndChar

StartChar: Ncaron
Encoding: 327 327 298
Width: 3277
GlyphClass: 2
Flags: W
LayerCount: 2
Fore
SplineSet
2005 214 m 2,0,1
 2005 184 2005 184 1982.5 161.5 c 128,-1,2
 1960 139 1960 139 1930 139 c 2,3,-1
 555 139 l 2,4,5
 525 139 525 139 502.5 161.5 c 128,-1,6
 480 184 480 184 480 214 c 2,7,-1
 480 2447 l 2,8,9
 480 2477 480 2477 502.5 2499.5 c 128,-1,10
 525 2522 525 2522 555 2522 c 2,11,-1
 1930 2522 l 2,12,13
 1960 2522 1960 2522 1982.5 2499.5 c 128,-1,14
 2005 2477 2005 2477 2005 2447 c 2,15,-1
 2005 214 l 2,0,1
1854 289 m 1,16,-1
 1854 2371 l 1,17,-1
 631 2371 l 1,18,-1
 631 289 l 1,19,-1
 1854 289 l 1,16,-1
EndSplineSet
EndChar

StartChar: ncaron
Encoding: 328 328 299
Width: 3277
GlyphClass: 2
Flags: W
LayerCount: 2
Fore
SplineSet
2005 214 m 2,0,1
 2005 184 2005 184 1982.5 161.5 c 128,-1,2
 1960 139 1960 139 1930 139 c 2,3,-1
 555 139 l 2,4,5
 525 139 525 139 502.5 161.5 c 128,-1,6
 480 184 480 184 480 214 c 2,7,-1
 480 2447 l 2,8,9
 480 2477 480 2477 502.5 2499.5 c 128,-1,10
 525 2522 525 2522 555 2522 c 2,11,-1
 1930 2522 l 2,12,13
 1960 2522 1960 2522 1982.5 2499.5 c 128,-1,14
 2005 2477 2005 2477 2005 2447 c 2,15,-1
 2005 214 l 2,0,1
1854 289 m 1,16,-1
 1854 2371 l 1,17,-1
 631 2371 l 1,18,-1
 631 289 l 1,19,-1
 1854 289 l 1,16,-1
EndSplineSet
EndChar

StartChar: napostrophe
Encoding: 329 329 300
Width: 3277
GlyphClass: 2
Flags: W
LayerCount: 2
Fore
SplineSet
2005 214 m 2,0,1
 2005 184 2005 184 1982.5 161.5 c 128,-1,2
 1960 139 1960 139 1930 139 c 2,3,-1
 555 139 l 2,4,5
 525 139 525 139 502.5 161.5 c 128,-1,6
 480 184 480 184 480 214 c 2,7,-1
 480 2447 l 2,8,9
 480 2477 480 2477 502.5 2499.5 c 128,-1,10
 525 2522 525 2522 555 2522 c 2,11,-1
 1930 2522 l 2,12,13
 1960 2522 1960 2522 1982.5 2499.5 c 128,-1,14
 2005 2477 2005 2477 2005 2447 c 2,15,-1
 2005 214 l 2,0,1
1854 289 m 1,16,-1
 1854 2371 l 1,17,-1
 631 2371 l 1,18,-1
 631 289 l 1,19,-1
 1854 289 l 1,16,-1
EndSplineSet
EndChar

StartChar: Eng
Encoding: 330 330 301
Width: 3277
GlyphClass: 2
Flags: W
LayerCount: 2
Fore
SplineSet
2005 214 m 2,0,1
 2005 184 2005 184 1982.5 161.5 c 128,-1,2
 1960 139 1960 139 1930 139 c 2,3,-1
 555 139 l 2,4,5
 525 139 525 139 502.5 161.5 c 128,-1,6
 480 184 480 184 480 214 c 2,7,-1
 480 2447 l 2,8,9
 480 2477 480 2477 502.5 2499.5 c 128,-1,10
 525 2522 525 2522 555 2522 c 2,11,-1
 1930 2522 l 2,12,13
 1960 2522 1960 2522 1982.5 2499.5 c 128,-1,14
 2005 2477 2005 2477 2005 2447 c 2,15,-1
 2005 214 l 2,0,1
1854 289 m 1,16,-1
 1854 2371 l 1,17,-1
 631 2371 l 1,18,-1
 631 289 l 1,19,-1
 1854 289 l 1,16,-1
EndSplineSet
EndChar

StartChar: eng
Encoding: 331 331 302
Width: 3277
GlyphClass: 2
Flags: W
LayerCount: 2
Fore
SplineSet
2005 214 m 2,0,1
 2005 184 2005 184 1982.5 161.5 c 128,-1,2
 1960 139 1960 139 1930 139 c 2,3,-1
 555 139 l 2,4,5
 525 139 525 139 502.5 161.5 c 128,-1,6
 480 184 480 184 480 214 c 2,7,-1
 480 2447 l 2,8,9
 480 2477 480 2477 502.5 2499.5 c 128,-1,10
 525 2522 525 2522 555 2522 c 2,11,-1
 1930 2522 l 2,12,13
 1960 2522 1960 2522 1982.5 2499.5 c 128,-1,14
 2005 2477 2005 2477 2005 2447 c 2,15,-1
 2005 214 l 2,0,1
1854 289 m 1,16,-1
 1854 2371 l 1,17,-1
 631 2371 l 1,18,-1
 631 289 l 1,19,-1
 1854 289 l 1,16,-1
EndSplineSet
EndChar

StartChar: Omacron
Encoding: 332 332 303
Width: 3277
GlyphClass: 2
Flags: W
LayerCount: 2
Fore
SplineSet
2005 214 m 2,0,1
 2005 184 2005 184 1982.5 161.5 c 128,-1,2
 1960 139 1960 139 1930 139 c 2,3,-1
 555 139 l 2,4,5
 525 139 525 139 502.5 161.5 c 128,-1,6
 480 184 480 184 480 214 c 2,7,-1
 480 2447 l 2,8,9
 480 2477 480 2477 502.5 2499.5 c 128,-1,10
 525 2522 525 2522 555 2522 c 2,11,-1
 1930 2522 l 2,12,13
 1960 2522 1960 2522 1982.5 2499.5 c 128,-1,14
 2005 2477 2005 2477 2005 2447 c 2,15,-1
 2005 214 l 2,0,1
1854 289 m 1,16,-1
 1854 2371 l 1,17,-1
 631 2371 l 1,18,-1
 631 289 l 1,19,-1
 1854 289 l 1,16,-1
EndSplineSet
EndChar

StartChar: omacron
Encoding: 333 333 304
Width: 3277
GlyphClass: 2
Flags: W
LayerCount: 2
Fore
SplineSet
2005 214 m 2,0,1
 2005 184 2005 184 1982.5 161.5 c 128,-1,2
 1960 139 1960 139 1930 139 c 2,3,-1
 555 139 l 2,4,5
 525 139 525 139 502.5 161.5 c 128,-1,6
 480 184 480 184 480 214 c 2,7,-1
 480 2447 l 2,8,9
 480 2477 480 2477 502.5 2499.5 c 128,-1,10
 525 2522 525 2522 555 2522 c 2,11,-1
 1930 2522 l 2,12,13
 1960 2522 1960 2522 1982.5 2499.5 c 128,-1,14
 2005 2477 2005 2477 2005 2447 c 2,15,-1
 2005 214 l 2,0,1
1854 289 m 1,16,-1
 1854 2371 l 1,17,-1
 631 2371 l 1,18,-1
 631 289 l 1,19,-1
 1854 289 l 1,16,-1
EndSplineSet
EndChar

StartChar: Obreve
Encoding: 334 334 305
Width: 3277
GlyphClass: 2
Flags: W
LayerCount: 2
Fore
SplineSet
2005 214 m 2,0,1
 2005 184 2005 184 1982.5 161.5 c 128,-1,2
 1960 139 1960 139 1930 139 c 2,3,-1
 555 139 l 2,4,5
 525 139 525 139 502.5 161.5 c 128,-1,6
 480 184 480 184 480 214 c 2,7,-1
 480 2447 l 2,8,9
 480 2477 480 2477 502.5 2499.5 c 128,-1,10
 525 2522 525 2522 555 2522 c 2,11,-1
 1930 2522 l 2,12,13
 1960 2522 1960 2522 1982.5 2499.5 c 128,-1,14
 2005 2477 2005 2477 2005 2447 c 2,15,-1
 2005 214 l 2,0,1
1854 289 m 1,16,-1
 1854 2371 l 1,17,-1
 631 2371 l 1,18,-1
 631 289 l 1,19,-1
 1854 289 l 1,16,-1
EndSplineSet
EndChar

StartChar: obreve
Encoding: 335 335 306
Width: 3277
GlyphClass: 2
Flags: W
LayerCount: 2
Fore
SplineSet
2005 214 m 2,0,1
 2005 184 2005 184 1982.5 161.5 c 128,-1,2
 1960 139 1960 139 1930 139 c 2,3,-1
 555 139 l 2,4,5
 525 139 525 139 502.5 161.5 c 128,-1,6
 480 184 480 184 480 214 c 2,7,-1
 480 2447 l 2,8,9
 480 2477 480 2477 502.5 2499.5 c 128,-1,10
 525 2522 525 2522 555 2522 c 2,11,-1
 1930 2522 l 2,12,13
 1960 2522 1960 2522 1982.5 2499.5 c 128,-1,14
 2005 2477 2005 2477 2005 2447 c 2,15,-1
 2005 214 l 2,0,1
1854 289 m 1,16,-1
 1854 2371 l 1,17,-1
 631 2371 l 1,18,-1
 631 289 l 1,19,-1
 1854 289 l 1,16,-1
EndSplineSet
EndChar

StartChar: Odblacute
Encoding: 336 336 307
Width: 3277
GlyphClass: 2
Flags: W
LayerCount: 2
Fore
SplineSet
2005 214 m 2,0,1
 2005 184 2005 184 1982.5 161.5 c 128,-1,2
 1960 139 1960 139 1930 139 c 2,3,-1
 555 139 l 2,4,5
 525 139 525 139 502.5 161.5 c 128,-1,6
 480 184 480 184 480 214 c 2,7,-1
 480 2447 l 2,8,9
 480 2477 480 2477 502.5 2499.5 c 128,-1,10
 525 2522 525 2522 555 2522 c 2,11,-1
 1930 2522 l 2,12,13
 1960 2522 1960 2522 1982.5 2499.5 c 128,-1,14
 2005 2477 2005 2477 2005 2447 c 2,15,-1
 2005 214 l 2,0,1
1854 289 m 1,16,-1
 1854 2371 l 1,17,-1
 631 2371 l 1,18,-1
 631 289 l 1,19,-1
 1854 289 l 1,16,-1
EndSplineSet
EndChar

StartChar: odblacute
Encoding: 337 337 308
Width: 3277
GlyphClass: 2
Flags: W
LayerCount: 2
Fore
SplineSet
2005 214 m 2,0,1
 2005 184 2005 184 1982.5 161.5 c 128,-1,2
 1960 139 1960 139 1930 139 c 2,3,-1
 555 139 l 2,4,5
 525 139 525 139 502.5 161.5 c 128,-1,6
 480 184 480 184 480 214 c 2,7,-1
 480 2447 l 2,8,9
 480 2477 480 2477 502.5 2499.5 c 128,-1,10
 525 2522 525 2522 555 2522 c 2,11,-1
 1930 2522 l 2,12,13
 1960 2522 1960 2522 1982.5 2499.5 c 128,-1,14
 2005 2477 2005 2477 2005 2447 c 2,15,-1
 2005 214 l 2,0,1
1854 289 m 1,16,-1
 1854 2371 l 1,17,-1
 631 2371 l 1,18,-1
 631 289 l 1,19,-1
 1854 289 l 1,16,-1
EndSplineSet
EndChar

StartChar: OE
Encoding: 338 338 309
Width: 3277
GlyphClass: 2
Flags: W
LayerCount: 2
Fore
SplineSet
2005 214 m 2,0,1
 2005 184 2005 184 1982.5 161.5 c 128,-1,2
 1960 139 1960 139 1930 139 c 2,3,-1
 555 139 l 2,4,5
 525 139 525 139 502.5 161.5 c 128,-1,6
 480 184 480 184 480 214 c 2,7,-1
 480 2447 l 2,8,9
 480 2477 480 2477 502.5 2499.5 c 128,-1,10
 525 2522 525 2522 555 2522 c 2,11,-1
 1930 2522 l 2,12,13
 1960 2522 1960 2522 1982.5 2499.5 c 128,-1,14
 2005 2477 2005 2477 2005 2447 c 2,15,-1
 2005 214 l 2,0,1
1854 289 m 1,16,-1
 1854 2371 l 1,17,-1
 631 2371 l 1,18,-1
 631 289 l 1,19,-1
 1854 289 l 1,16,-1
EndSplineSet
EndChar

StartChar: oe
Encoding: 339 339 310
Width: 3277
GlyphClass: 2
Flags: W
LayerCount: 2
Fore
SplineSet
2005 214 m 2,0,1
 2005 184 2005 184 1982.5 161.5 c 128,-1,2
 1960 139 1960 139 1930 139 c 2,3,-1
 555 139 l 2,4,5
 525 139 525 139 502.5 161.5 c 128,-1,6
 480 184 480 184 480 214 c 2,7,-1
 480 2447 l 2,8,9
 480 2477 480 2477 502.5 2499.5 c 128,-1,10
 525 2522 525 2522 555 2522 c 2,11,-1
 1930 2522 l 2,12,13
 1960 2522 1960 2522 1982.5 2499.5 c 128,-1,14
 2005 2477 2005 2477 2005 2447 c 2,15,-1
 2005 214 l 2,0,1
1854 289 m 1,16,-1
 1854 2371 l 1,17,-1
 631 2371 l 1,18,-1
 631 289 l 1,19,-1
 1854 289 l 1,16,-1
EndSplineSet
EndChar

StartChar: Racute
Encoding: 340 340 311
Width: 3277
GlyphClass: 2
Flags: W
LayerCount: 2
Fore
SplineSet
2005 214 m 2,0,1
 2005 184 2005 184 1982.5 161.5 c 128,-1,2
 1960 139 1960 139 1930 139 c 2,3,-1
 555 139 l 2,4,5
 525 139 525 139 502.5 161.5 c 128,-1,6
 480 184 480 184 480 214 c 2,7,-1
 480 2447 l 2,8,9
 480 2477 480 2477 502.5 2499.5 c 128,-1,10
 525 2522 525 2522 555 2522 c 2,11,-1
 1930 2522 l 2,12,13
 1960 2522 1960 2522 1982.5 2499.5 c 128,-1,14
 2005 2477 2005 2477 2005 2447 c 2,15,-1
 2005 214 l 2,0,1
1854 289 m 1,16,-1
 1854 2371 l 1,17,-1
 631 2371 l 1,18,-1
 631 289 l 1,19,-1
 1854 289 l 1,16,-1
EndSplineSet
EndChar

StartChar: racute
Encoding: 341 341 312
Width: 3277
GlyphClass: 2
Flags: W
LayerCount: 2
Fore
SplineSet
2005 214 m 2,0,1
 2005 184 2005 184 1982.5 161.5 c 128,-1,2
 1960 139 1960 139 1930 139 c 2,3,-1
 555 139 l 2,4,5
 525 139 525 139 502.5 161.5 c 128,-1,6
 480 184 480 184 480 214 c 2,7,-1
 480 2447 l 2,8,9
 480 2477 480 2477 502.5 2499.5 c 128,-1,10
 525 2522 525 2522 555 2522 c 2,11,-1
 1930 2522 l 2,12,13
 1960 2522 1960 2522 1982.5 2499.5 c 128,-1,14
 2005 2477 2005 2477 2005 2447 c 2,15,-1
 2005 214 l 2,0,1
1854 289 m 1,16,-1
 1854 2371 l 1,17,-1
 631 2371 l 1,18,-1
 631 289 l 1,19,-1
 1854 289 l 1,16,-1
EndSplineSet
EndChar

StartChar: Rcedilla
Encoding: 342 342 313
Width: 3277
GlyphClass: 2
Flags: W
LayerCount: 2
Fore
SplineSet
2005 214 m 2,0,1
 2005 184 2005 184 1982.5 161.5 c 128,-1,2
 1960 139 1960 139 1930 139 c 2,3,-1
 555 139 l 2,4,5
 525 139 525 139 502.5 161.5 c 128,-1,6
 480 184 480 184 480 214 c 2,7,-1
 480 2447 l 2,8,9
 480 2477 480 2477 502.5 2499.5 c 128,-1,10
 525 2522 525 2522 555 2522 c 2,11,-1
 1930 2522 l 2,12,13
 1960 2522 1960 2522 1982.5 2499.5 c 128,-1,14
 2005 2477 2005 2477 2005 2447 c 2,15,-1
 2005 214 l 2,0,1
1854 289 m 1,16,-1
 1854 2371 l 1,17,-1
 631 2371 l 1,18,-1
 631 289 l 1,19,-1
 1854 289 l 1,16,-1
EndSplineSet
EndChar

StartChar: rcedilla
Encoding: 343 343 314
Width: 3277
GlyphClass: 2
Flags: W
LayerCount: 2
Fore
SplineSet
2005 214 m 2,0,1
 2005 184 2005 184 1982.5 161.5 c 128,-1,2
 1960 139 1960 139 1930 139 c 2,3,-1
 555 139 l 2,4,5
 525 139 525 139 502.5 161.5 c 128,-1,6
 480 184 480 184 480 214 c 2,7,-1
 480 2447 l 2,8,9
 480 2477 480 2477 502.5 2499.5 c 128,-1,10
 525 2522 525 2522 555 2522 c 2,11,-1
 1930 2522 l 2,12,13
 1960 2522 1960 2522 1982.5 2499.5 c 128,-1,14
 2005 2477 2005 2477 2005 2447 c 2,15,-1
 2005 214 l 2,0,1
1854 289 m 1,16,-1
 1854 2371 l 1,17,-1
 631 2371 l 1,18,-1
 631 289 l 1,19,-1
 1854 289 l 1,16,-1
EndSplineSet
EndChar

